<?xml version="1.0" encoding="UTF-8"?>
<svg id="Layer_2" data-name="Layer 2" xmlns="http://www.w3.org/2000/svg" viewBox="0 0 189.46 189.51">
  <g id="Layer_1-2" data-name="Layer 1">
    <path d="m175.92,143.77q-.17,6.04,5.69,6.04,7.46,0,7.46,7.31,0,5.88-5.9,5.88c-3.59,0-7.2-.22-10.77.07-2.82.23-3.37-.85-3.18-3.34.21-2.68-.02-5.39.07-8.08.05-1.43-.45-1.83-1.87-1.89-4.76-.2-4.76-.26-4.76,4.37,0,2.29-.09,4.59.03,6.88.08,1.6-.49,2.18-2.04,2-.69-.08-1.41.06-2.09-.03-1.89-.25-2.66.38-2.54,2.42.17,2.88-.05,5.79.08,8.68.08,1.75-.56,2.18-2.22,2.15-5.68-.1-11.37-.06-17.06-.08l.08.09c.01-2.19.02-4.39.03-6.58,1.59-.02,3.17-.02,4.76-.07.63-.02,1.61.28,1.67-.71.12-1.77.43-3.71-.12-5.3-.44-1.27-2.31-.37-3.52-.59-2.36-.43-3.21.58-2.89,2.9.18,1.27.13,2.56.19,3.84-2.27-.06-4.54-.12-6.81-.18l.09.08q-.16-6.64-7-6.64c-.9,0-1.82-.12-2.69.02-2.81.46-3.71-.49-3.68-3.48.03-2.76.87-3.59,3.38-3.14,2.74.49,3.83-.63,3.35-3.36-.45-2.53.4-3.8,3.15-3.25,2.99.6,3.67-.74,3.51-3.56-.25-4.38-.16-8.79-.02-13.19.06-1.96-.51-2.55-2.49-2.51-4.09.09-5.1-1.45-4.18-5.5.27-1.2,1.02-1.03,1.77-1.04,3-.02,6-.12,8.99.03,1.96.1,2.7-.51,2.49-2.49-.15-1.38,0-2.79.01-4.19,0,0-.09.08-.09.08,2.19.01,4.39.02,6.58.03.02,1.19.17,2.4.03,3.58-.26,2.24.39,3.11,2.86,3.01,5.46-.22,10.94-.1,16.41-.11q-.12,6.65,6.55,6.65c.8,0,1.59,0,2.39,0,4.41,0,4.31,0,4.28-4.53-.01-1.79-.67-2.15-2.26-2.1-3.68.11-7.36.05-11.04.07.02-1.59-.03-3.18.07-4.76.09-1.38-.35-1.93-1.82-1.9-5.85.12-11.69.14-17.54.19.06-2.27.12-4.54.18-6.81l-.08.09c7.78-.02,15.56.05,23.33-.1,2.22-.04,2.61.76,2.56,2.74-.11,3.91,0,3.91,3.92,3.92,3.09,0,6.18.03,9.27.05,0,0-.09-.09-.09-.09.02.6.04,1.19.05,1.79.02,4.66.02,4.72,4.53,4.81,1.46.03,2.08.29,2.12,1.95.1,4.54.19,4.66-4.44,4.62-1.99-.02-2.3.75-2.23,2.45.11,2.79-.09,5.59.07,8.37.11,1.97-.53,2.68-2.49,2.47-1.38-.14-2.79,0-4.18.02q.12-6.65-6.55-6.65c-.8,0-1.59,0-2.39,0-4.41,0-4.31,0-4.28,4.53.01,1.79.67,2.15,2.26,2.1,3.68-.11,7.36-.05,11.04-.07Zm-29.45-6.56c-2.6,0-5.19.07-7.79-.03-1.47-.05-1.86.51-1.85,1.91.06,5.19.05,10.38,0,15.57-.01,1.24.32,1.78,1.67,1.77,5.29-.06,10.58-.06,15.87,0,1.34.01,1.7-.49,1.69-1.75-.05-5.19-.08-10.38.02-15.57.03-1.71-.71-1.97-2.14-1.92-2.49.08-4.99.02-7.49.02Z"/>
    <path d="m156.02,59.25c.6-.02,1.2-.04,1.8-.04,4.66-.02,4.76-.02,4.8-4.55.01-1.83.73-2.08,2.3-2.09,4.35-.02,4.35-.08,4.35,4.18,0,.5,0,1,0,1.5q0,6.82,6.64,7.01l-.09-.09c.02.6.04,1.2.05,1.79.02,4.65.02,4.8-4.54,4.77-2.2-.01-2.07,1.11-2.08,2.6-.01,4.07-.04,3.99-4.1,4.09-2.95.08-6.88-1.31-8.57.59-1.46,1.64-.48,5.49-.5,8.36-.04,4.29-1.12,5.09-5.48,4.24-1.64-.32-1.08-1.43-1.11-2.28-.16-4.1-.13-4.24-4.16-4.28-2.08-.02-1.85-1.17-1.87-2.49-.05-4.16-1.35-5.07-5.51-4.19-1.19.25-1.07.95-1.08,1.73-.01,2.89-.14,5.79.04,8.68.13,2.13-.35,3.25-2.72,2.84-.68-.12-1.4.05-2.09-.03-1.46-.16-1.88.47-1.86,1.88.06,3.59,0,7.18-.03,10.77l.09-.09c-.6.02-1.19.04-1.79.05-4.66.02-4.72.02-4.81,4.53-.03,1.45-.29,2.08-1.95,2.12-4.55.1-4.61.2-4.64-4.44-.01-1.6-.33-2.25-2.12-2.26-4.52-.03-4.52-.13-4.52,4.3,0,1.2,0,2.39,0,3.59,0,4.97,0,5.02,4.91,5.33,1.28.08,2.02.49,1.65,1.72-.49,1.63,1.57,4.07-1.44,4.89-1.64.45-3.94-.99-4.91.76-.72,1.31-.18,3.31-.21,5,0,.3-.03.6-.04.9l.09-.08c-2.23,0-4.46,0-6.68,0l.08.08q-.14-6.73-6.09-6.6c.02-3.78-.01-7.56.07-11.34.03-1.36-.32-1.88-1.81-1.94-4.79-.22-4.79-.29-4.82-5.1,0-.5-.03-.99-.05-1.49,3.38.01,6.77-.12,10.14.08,2.22.13,2.48-.77,2.6-2.71.17-2.74-.7-3.78-3.42-3.36-1.07.16-2.18.03-3.28.03q-6.07,0-5.95,6.05c-1.4-.02-2.81.08-4.19-.08-1.98-.23-2.74.53-2.46,2.49.1.69-.05,1.4.03,2.09.17,1.51-.33,2.26-1.97,2.06-.89-.1-1.81-.11-2.69,0-1.66.2-2.03-.58-1.97-2.08.09-2.69.15-5.4-.01-8.09-.12-1.97.54-2.54,2.5-2.5,4.26.08,4.19-.03,4.18-4.3,0-1.56-.25-2.29-2.08-2.3-4.57-.04-4.57-.14-4.55-4.79,0-.6.03-1.2.04-1.8l-.08.09c6.63,0,13.26,0,19.88,0l-.08-.09c.01,1.19.17,2.41.01,3.57-.34,2.45.5,3.18,3.03,3.18,2.53,0,3.37-.73,3.03-3.18-.16-1.17,0-2.38.01-3.57l-.08.08c2.19.01,4.39.02,6.58.03q.21,6.65,6.7,6.48c-.01,1.69-.04,3.37-.02,5.06,0,.66-.1,1.29.88,1.59,3.74,1.15,5.59-.19,5.78-3.92.12-2.34-.7-2.97-2.85-2.71-1.27.16-2.58.05-3.87.06q.2-7.09-6.69-6.47c.06-2.27.12-4.54.18-6.81l-.08.09c4.43-.03,8.85-.06,13.28-.1-.01,1.69-.04,3.37-.02,5.06,0,.66-.1,1.29.88,1.59,3.74,1.15,5.59-.19,5.78-3.92.12-2.34-.7-2.97-2.85-2.71-1.27.16-2.58.05-3.87.06.02-5.57.2-11.14-.02-16.69-.1-2.59,1.12-2.76,3-2.54,1.6.19,4.22-.99,3.64,2.39-.52,3.09.75,4.09,3.69,3.63.97-.15,1.98,0,2.98.02l-.08-.09c.01.2.03.4.03.6q.07,6.05,6.01,6.05,6.5,0,6.64-6.64l-.08.08c2.19.01,4.39.02,6.58.03.02,1.59.02,3.17.07,4.76.02.63-.28,1.61.71,1.67,1.77.12,3.71.43,5.3-.12,1.27-.44.37-2.31.58-3.52.43-2.36-.58-3.21-2.9-2.89-1.27.18-2.56.13-3.84.19.06-2.07.12-4.14.18-6.21,0,0-.08.09-.08.09Z"/>
    <path d="m.05,22.89C.05,16.3.12,9.7.01,3.11-.02,1.17.28.32,2.54.34c13.49.11,26.98.1,40.46,0,2.14-.02,2.66.62,2.64,2.69-.09,13.39-.09,26.78,0,40.16.01,2.13-.66,2.68-2.72,2.67-13.39-.08-26.78-.1-40.16.02-2.35.02-2.8-.77-2.76-2.91.13-6.69.05-13.39.05-20.08ZM22.85,6.89c-4.59,0-9.18.05-13.77-.03-1.66-.03-2.5.2-2.48,2.22.11,9.38.08,18.76.01,28.14-.01,1.67.44,2.22,2.17,2.21,9.38-.08,18.76-.08,28.14,0,1.73.01,2.18-.53,2.17-2.21-.07-9.38-.09-18.76.01-28.14.02-2.02-.82-2.25-2.48-2.22-4.59.08-9.18.03-13.77.03Z"/>
    <path d="m165.66,45.83c-6.5,0-12.99-.06-19.49.04-1.96.03-2.81-.33-2.79-2.58.1-13.49.09-26.98,0-40.48-.01-2.02.65-2.47,2.54-2.46,13.39.07,26.78.08,40.18,0,1.97-.01,2.52.56,2.5,2.51-.08,13.49-.08,26.98,0,40.48.01,2.01-.64,2.55-2.56,2.52-6.79-.09-13.59-.04-20.39-.04Zm.31-6.43c4.7,0,9.4-.08,14.09.04,1.88.05,2.36-.58,2.35-2.39-.08-9.19-.08-18.39,0-27.58.01-1.84-.36-2.64-2.45-2.62-9.29.11-18.59.1-27.88,0-1.9-.02-2.36.65-2.34,2.42.07,9.29.08,18.59,0,27.88-.02,1.95.71,2.32,2.46,2.28,4.59-.11,9.19-.04,13.79-.04Z"/>
    <path d="m45.6,166.61c0,6.6-.07,13.2.04,19.8.03,1.94-.51,2.56-2.5,2.55-13.6-.08-27.19-.08-40.79,0-1.87.01-2.35-.55-2.34-2.38.07-13.5.07-26.99,0-40.49,0-1.79.41-2.41,2.31-2.39,13.6.08,27.19.08,40.79,0,1.96-.01,2.56.56,2.53,2.52-.11,6.8-.04,13.6-.04,20.4Zm-6.55-.12c0-4.69-.05-9.38.03-14.07.02-1.55-.24-2.35-2.08-2.34-9.48.08-18.97.05-28.45.02-1.37,0-1.94.38-1.93,1.87.05,9.58.06,19.17,0,28.75,0,1.59.54,2.04,2.08,2.03,9.38-.05,18.77-.08,28.15.02,2.01.02,2.26-.82,2.23-2.5-.08-4.59-.03-9.18-.03-13.78Z"/>
    <path d="m32.41,59.25c2.22-.03,4.45-.06,6.67-.1-.01,1.49-.04,2.98-.02,4.46,0,.56-.15,1.42.6,1.47,1.77.13,3.68.43,5.31-.07,1.43-.44.46-2.26.68-3.44.38-2.03-.62-2.59-2.48-2.4-1.38.14-2.77.05-4.16.06q.18-6.63,7.01-6.63c7.7,0,15.4.14,23.09-.07,3.19-.08,2.27,1.93,2.34,3.52.07,1.63.54,3.63-2.34,3.16-.78-.13-1.6.05-2.39-.03-1.44-.15-1.92.44-1.87,1.87.09,2.9.09,5.8,0,8.69-.05,1.5.33,2.26,1.98,2.07.89-.11,1.81-.1,2.69,0,1.65.19,2.12-.56,1.97-2.07-.09-.89.06-1.8-.03-2.7-.14-1.44.43-1.92,1.87-1.88,3.1.09,6.2.09,9.29,0,1.5-.05,2.27.33,2.07,1.98-.11.89-.11,1.81,0,2.69.2,1.65-.57,2.11-2.07,1.96-.89-.09-1.8.06-2.7-.03-1.44-.14-1.9.45-1.88,1.87.07,3.8,0,7.59-.01,11.39,0,0,.08-.09.08-.09-2.23.03-4.46.06-6.68.09.01-1.09-.09-2.2.06-3.28.38-2.66-.54-3.49-3.32-3.49-2.79,0-3.71.83-3.32,3.49.16,1.07.05,2.18.06,3.28-4.23-.03-8.46-.06-12.68-.09,0,0,.09.08.09.08-.02-.6-.04-1.2-.04-1.79-.02-4.67-.02-4.77,4.52-4.8,1.79-.01,2.18-.66,2.1-2.27-.11-2.29-.03-4.58-.03-6.88,0-4.35,0-4.33-4.67-4.12-1.03.05-1.95-.08-1.97,1.47-.03,1.65.84,4.01-.46,4.77-1.42.84-3.65.35-5.53.36-5.88.02-11.76-.1-17.64.07-2.26.06-3.06-.58-2.76-2.82.17-1.27.06-2.59.07-3.88l-.09.08q6.56-.14,6.68-6.08l-.08.09Z"/>
    <path d="m91.29,156.46c-.6-.02-1.2-.05-1.8-.05-4.65-.02-4.75-.02-4.79,4.55-.01,1.84-.75,2.07-2.31,2.08-4.34.02-4.34.08-4.34-4.19,0-1.3,0-2.6,0-3.9,0-4.78,0-4.9,4.86-5.09,1.88-.08,1.98-1.1,1.7-2.3-.3-1.29,1.27-3.37-1.4-3.75-1.65-.23-4.03.79-4.79-.51-.84-1.43-.3-3.66-.35-5.55,0-.2.02-.4.04-.6l-.09.08c4.5-.01,8.99-.03,13.49-.04q6.47,0,6.31-6.64c2.03.03,4.06.05,6.09.08l-.08-.08q.14,6.54,6.68,6.68l-.09-.08c.02,12.27-.01,24.53.09,36.8.02,1.93-.64,2.34-2.4,2.28-3.39-.11-6.78,0-10.17.02,0,0,.1.08.1.08-.06-3.69-.23-7.39-.12-11.08.06-1.91-.6-2.53-2.39-2.28-.59.08-1.21-.06-1.8.03-1.94.28-2.71-.46-2.5-2.45.15-1.38,0-2.79-.02-4.19,3.08.01,6.18-.13,9.25.08,2.6.18,3.57-.45,3.52-3.32-.05-2.71-.73-3.79-3.46-3.35-.87.14-1.79.02-2.68.02q-6.67,0-6.54,6.65Z"/>
    <path d="m64.89,182.86c-.4-.02-.8-.05-1.2-.05-4.65-.04-4.75-.04-4.79,4.54-.01,1.82-.72,2.08-2.29,2.09-4.36.02-4.36.09-4.36-4.17,0-8.69.07-17.37-.05-26.06-.03-2.14.37-3,2.74-2.87,3.62.2,5.12-2.22,3.87-5.71-.51-1.43-1.67-.77-2.53-.8-4.03-.12-4.03-.08-4.03-4.19,0-.7,0-1.4,0-2.1q0-6.45,6.64-6.3l-.08-.09q.14,6.56,6.08,6.68l-.09-.08c.01.4.04.8.04,1.2.04,4.66.03,4.76,4.55,4.79,1.83.01,2.08.73,2.08,2.3.01,4.27.08,4.38-4.18,4.3-1.97-.04-2.61.53-2.49,2.5.16,2.69.22,5.41-.01,8.09-.22,2.43.82,2.77,2.9,2.71,4.89-.14,9.8.11,14.69-.11,2.64-.12,2.44,1.43,2.23,2.99-.19,1.44,1.26,3.77-2.1,3.72-4.46-.06-4.46.1-4.46,4.58,0,2.2-.1,4.4.03,6.59.09,1.63-.55,2.05-2.07,2-2.89-.1-5.8-.14-8.69.01-1.94.1-2.71-.48-2.5-2.48.15-1.38,0-2.79-.02-4.19,1.69.01,3.37.04,5.06.02.66,0,1.29.1,1.59-.88,1.15-3.74-.19-5.59-3.92-5.78-2.34-.12-2.97.7-2.71,2.85.16,1.27.05,2.58.06,3.87Z"/>
    <path d="m78.02,26.25c3.6-.02,7.2.08,10.79-.09,1.98-.09,2.53.55,2.49,2.5-.09,4.06,1.49,5.1,5.52,4.16,1.2-.28,1.02-1.03,1.03-1.78.02-3.1.1-6.2-.02-9.29-.07-1.72.5-2.2,2.19-2.18,7.89.09,15.79.07,23.68.08,0,0-.08-.09-.08-.09q.14,6.54,6.68,6.68l-.09-.08c0,2.23,0,4.45,0,6.68l.09-.08c-3.8.01-7.6-.03-11.39.07-1.44.03-1.99-.45-1.87-1.88.09-.99-.04-2,.03-3,.09-1.25-.32-1.8-1.67-1.77-3.3.07-6.6.07-9.89,0-1.36-.03-1.75.53-1.66,1.77.07.89.1,1.81,0,2.7-.2,1.71.46,2.38,2.17,2.17.89-.11,1.8.04,2.7-.03,1.24-.09,1.81.3,1.78,1.66-.07,3.3-.01,6.6-.03,9.89,0,.65.15,1.31-.83,1.64-3.55,1.18-5.71-.26-5.75-3.94,0-.2-.03-.4,0-.6.38-2.55-1.44-2.1-2.85-2.03-1.38.07-3.24-.85-3.22,2.02.04,4.57-.13,4.57-4.78,4.55-.6,0-1.2-.03-1.8-.04,0,0,.08.08.08.08q-.14-6.54-6.68-6.68l.09.08c-.02-.5-.04-.99-.04-1.49-.03-4.84-.02-4.91-4.79-5.11-1.44-.06-1.92-.51-1.83-1.91.1-1.58.05-3.18.07-4.77l-.09.09Z"/>
    <path d="m25.9,65.16c-.7.01-1.4.04-2.1.04-4.24.01-4.39.02-4.5-4.24-.06-2.48-1.7-1.79-2.88-1.7-1.2.09-3.26-1.1-3.19,1.67.07,2.69.16,5.4-.03,8.08-.15,2.18.42,3.1,2.76,2.85,1.03-.11,2.77-.76,3.12.67.42,1.69.22,3.58,0,5.35-.1.79-1.18.5-1.84.5-2.6.03-5.2.15-7.78-.03-2.14-.15-3.07.36-2.87,2.73.23,2.78-.04,5.59.09,8.38.08,1.73-.53,2.34-2.21,2.15-.89-.1-1.8-.08-2.69,0-1.26.1-1.76-.34-1.75-1.68.05-7.69.05-15.37,0-23.06,0-1.33.49-1.8,1.75-1.68.59.06,1.2,0,1.8,0,2.67-.01,4.4-3.04,2.96-5.39-.76-1.23-2.19-.39-3.3-.61-1.03-.2-2.72.58-2.98-.54-.42-1.78-.22-3.76.01-5.62.09-.7,1.22-.42,1.88-.42,9.38-.02,18.77.03,28.15-.05,1.71-.01,2.32.49,2.17,2.19-.14,1.49-.05,2.99-.06,4.49,0,0,.08-.09.08-.09q-6.56.14-6.68,6.08l.09-.08Z"/>
    <path d="m78.11,26.16h-6.69s.08.08.08.08c-.01-1.09-.16-2.21-.01-3.28.38-2.66-.55-3.48-3.33-3.48-2.78,0-3.7.82-3.33,3.48.15,1.07,0,2.18-.01,3.28l.08-.09c-3.49.02-6.99-.05-10.48.08-1.68.06-2.2-.45-2.21-2.17-.02-4.35-.1-4.55,4.36-4.4,2.94.1,2.16-1.73,2.3-3.28.16-1.8,0-3.22-2.42-2.81-.68.11-1.4-.06-2.09.03-1.77.24-2.31-.56-2.12-2.21.09-.79.09-1.6,0-2.39-.18-1.55.4-2.24,2-2.02.49.07,1.01-.07,1.49.02,2.8.56,3.53-.81,3.13-3.28-.02-.1-.02-.2,0-.3.25-.98-.67-2.54.69-2.88,1.5-.38,3.18-.22,4.75,0,.84.11.54,1.16.55,1.81.03,2.99.13,5.99-.03,8.98-.1,1.91.64,2.73,2.36,2.21,1.43-.43,3.79,1.62,4.28-1.47.25-1.63-.8-3.94.56-4.77,1.32-.81,3.47-.28,5.26-.31,1.3-.02,2.62.16,3.89-.04,2.89-.45,3.62.62,3.64,3.52.01,2.82-.97,3.53-3.41,3.1-2.79-.49-3.58.69-3.38,3.38.23,3.08.03,6.18.02,9.28,0,0,.09-.09.09-.09Z"/>
    <path d="m25.99,104.03c-3.49.06-6.99.23-10.48.12-1.92-.06-2.52.6-2.28,2.39.09.69-.06,1.41.03,2.1.22,1.69-.44,2.2-2.15,2.21-4.46.02-4.46.11-4.46,4.6,0,6.5-.13,13,.06,19.49.08,2.63-1.42,2.44-2.99,2.23-1.44-.2-3.74,1.25-3.71-2.1.12-11.59.08-23.19,0-34.79-.01-1.81.69-2.12,2.27-2.1,6.8.07,13.6.18,20.39-.04,2.71-.09,3.6.72,3.2,3.3-.14.87.02,1.79.03,2.7,0,0,.08-.1.08-.1Z"/>
    <path d="m162.71,98.23c-.02-3.79.02-7.59-.07-11.38-.03-1.42.44-1.84,1.87-1.89,4.64-.19,4.83-.25,4.69,4.37-.1,3.28,2.08,2.11,3.6,2.24,1.69.15,3.28.39,3.15-2.4-.2-4.15,1.28-5.07,5.44-4.2,1.63.34,1.03,1.48,1.06,2.33.16,4.21.13,4.34,4.22,4.24,2.04-.05,2.55.65,2.44,2.55-.14,2.69-.11,5.39,0,8.08.06,1.54-.4,2.12-2.01,2.05-2.99-.11-6-.16-8.98.01-1.96.11-2.54-.68-2.23-2.41.56-3.04-.65-3.97-3.67-3.7-3.17.28-6.38.03-9.58.01l.09.09Z"/>
    <path d="m182.5,176.16q-6.63.17-6.63,6.98,0,6.27-6.4,6.27c-3.69,0-7.38-.09-11.07.04-1.79.06-2.41-.39-2.39-2.3.06-4.26-.06-4.37,4.19-4.29,1.93.04,2.55-.49,2.51-2.48-.09-4.12.04-4.32,3.95-4.1,2.53.14,2.9-1,2.59-2.96-.45-2.87.42-4.31,3.59-3.74,1.06.19,2.19.03,3.28.03q6.46,0,6.28,6.63l.09-.09Z"/>
    <path d="m123.7,19.64c-.01-.4-.03-.8-.04-1.2-.03-4.66-.03-4.76,4.55-4.8,1.83-.01,2.08-.73,2.09-2.3.01-4.28.07-4.5-4.18-4.28-3.41.17-2.28-2.07-2.46-3.72-.2-1.89-.06-3.26,2.56-3.01,2.77.26,5.6.19,8.39.02,1.95-.12,2.31.64,2.29,2.4-.09,6.9-.13,13.8.02,20.69.05,2.24-.55,3.09-2.81,2.78-1.28-.17-2.59-.06-3.89-.07,0,0,.09.08.09.08q-.14-6.54-6.68-6.68l.08.09Z"/>
    <path d="m136.82,176.16c0,2.23,0,4.46-.01,6.68l.09-.09c-.5.02-.99.04-1.49.05-4.8.03-4.88.03-5.1,4.82-.07,1.49-.61,1.83-1.95,1.8-3.09-.07-6.18-.09-9.26,0-1.52.05-2.24-.37-2.05-1.99.1-.88.1-1.8,0-2.68-.19-1.64.55-2.12,2.06-1.96.79.08,1.6-.06,2.39.03,1.66.2,2.29-.4,2.21-2.14-.13-2.88.09-5.78-.08-8.66-.11-2,.58-2.66,2.51-2.45,1.38.15,2.78.05,4.18.07,0,0-.09-.08-.09-.08q.14,6.54,6.68,6.68l-.08-.09Z"/>
    <path d="m91.3,52.55c-.6.02-1.2.04-1.8.04-4.66.02-4.76.02-4.79,4.55-.01,1.83-.74,2.08-2.3,2.08-4.35.02-4.35.08-4.35-4.19,0-4.3.13-8.6-.05-12.89-.1-2.25.55-3.09,2.81-2.78,1.28.17,2.59.06,3.89.07,0,0-.09-.08-.09-.08q.14,6.54,6.68,6.68l-.08-.08c0,2.23,0,4.46,0,6.68l.08-.09Z"/>
    <path d="m52.29,123.96c-6.63,0-13.26,0-19.88,0l.08.09q-.14-6.64,6.56-6.64t6.56-6.65c1.4.02,2.81.16,4.19.02,1.98-.21,2.58.53,2.49,2.49-.16,3.59-.07,7.19-.08,10.79,0,0,.08-.09.08-.09Z"/>
    <path d="m78.1,137.16h-6.69s.08.08.08.08c-.01-5.9-.03-11.79-.04-17.69,0-1.09-.22-2.22,1.55-2.18,3.4.09,6.79.03,10.19.03.73,0,1.25.08,1.47,1.04.95,4.04-.09,5.6-4.17,5.51-1.97-.04-2.57.54-2.5,2.5.14,3.59.02,7.19,0,10.79l.09-.08Z"/>
    <path d="m97.9,85.05c-.01-.6-.04-1.2-.04-1.8-.02-4.66-.02-4.77-4.55-4.8-1.83-.01-2.08-.73-2.09-2.3-.02-4.35-.08-4.35,4.19-4.35,4.1,0,8.2.14,12.29-.05,2.25-.1,3.09.54,2.78,2.81-.17,1.28-.06,2.59-.07,3.89,0,0,.08-.09.08-.09q-6.54.14-6.68,6.68l.08-.08h-6.08l.08.09Z"/>
    <path d="m71.41,26.15c.01,5.78-.04,11.57.08,17.35.04,1.88-.4,2.62-2.44,2.54-5.15-.21-4.13.45-4.18-4.03-.06-5.29,0-10.57.02-15.86,0,0-.08.09-.08.09h6.68s-.08-.09-.08-.09Z"/>
    <path d="m130.21,45.96q.16,6.64-6.3,6.64c-2.3,0-4.59-.03-6.89-.04,0,0,.08.09.08.09-.01-3.57.05-7.15-.07-10.72-.07-1.82.3-2.86,2.39-2.54.78.12,1.59.08,2.38,0,1.4-.14,1.84.4,1.9,1.83.2,4.76.27,4.76,5.12,4.78.5,0,.99.03,1.49.04l-.09-.08Z"/>
    <path d="m32.41,123.96c.01,3.69-.04,7.37.07,11.05.05,1.64-.37,2.31-2.14,2.23-2.88-.14-5.78-.16-8.66,0-1.98.11-2.67-.56-2.46-2.5.15-1.38.06-2.79.07-4.18,0,0-.09.08-.09.08q6.54-.14,6.68-6.68l-.08.08h6.68l-.08-.09Z"/>
    <path d="m130.21,104.24c4.39-.03,8.79-.06,13.18-.09,0,0-.1-.08-.1-.08.04,2.26.08,4.53.13,6.79,0,0,.08-.09.08-.09q-6.54.14-6.68,6.68s.09-.08.09-.08q-6.65.14-6.64-6.61c0-2.2.02-4.4.03-6.6,0,0-.09.09-.09.09Z"/>
    <path d="m97.83,7.04c.4-.02.8-.04,1.19-.05,4.66-.04,4.72-.04,4.81-4.54.03-1.46.3-2.07,1.96-2.11,4.68-.11,4.74-.2,4.65,4.75-.05,2.75,1.23,6.41-.56,8-1.53,1.36-5.1.46-7.78.49-4.24.04-4.25,0-4.23-4.23,0-.8.03-1.59.05-2.39l-.09.09Z"/>
    <path d="m136.9,65.25c-.01-3.38.11-6.76-.09-10.12-.13-2.19.74-2.98,2.69-2.48,1.35.34,3.52-1.46,3.97,1.47.26,1.67-1.04,3.93.74,4.89,1.32.71,3.3.19,4.99.22.1,0,.2.01.3.02l-.08-.09v6.08l.08-.08c-4.23,0-8.46,0-12.69,0,0,0,.08.09.08.09Z"/>
    <path d="m162.63,98.15c.11,6.05.11,6.07-5.93,6.05-4.46-.02-8.93-.08-13.4-.13,0,0,.1.08.09.08q.24-5.94,6.18-5.94c4.38,0,8.76.02,13.14.03,0,0-.09-.09-.09-.09Z"/>
    <path d="m58.85,39.4c0,1.1-.14,2.22.03,3.28.45,2.82-.76,3.41-3.41,3.41-2.57,0-3.55-.56-3.28-3.27.27-2.66.15-5.38.03-8.07-.07-1.62.56-1.97,2.07-2,4.57-.09,4.56-.16,4.56,4.25,0,.8,0,1.59,0,2.39Z"/>
    <path d="m130.21,32.84q6.65-.14,6.65,6.56t-6.65,6.56s.09.08.09.08c0-4.43,0-8.86,0-13.29l-.09.08Z"/>
    <path d="m39.09,91.55c-3.68.01-7.37-.04-11.05.08-1.64.05-2.22-.38-2.24-2.13-.03-4.49-.12-4.5,4.33-4.49,2.99,0,5.98.03,8.96.04l-.08-.09v6.68l.08-.09Z"/>
    <path d="m19.3,124.05c-.02-3.6.07-7.2-.09-10.79-.09-1.96.51-2.71,2.49-2.48,1.38.16,2.79.06,4.19.07l-.08-.09c0,4.43,0,8.86,0,13.29l.08-.08h-6.68l.09.08Z"/>
    <path d="m136.81,182.84c3.38-.01,6.76.06,10.14-.07,1.84-.07,2.65.32,2.56,2.4-.22,5.21.52,4.09-4.27,4.23-.6.02-1.19,0-1.79,0q-6.66,0-6.55-6.65s-.09.09-.09.09Z"/>
    <path d="m103.9,59.15c-3.4.02-6.8-.08-10.19.09-1.97.09-2.7-.52-2.48-2.49.15-1.38.05-2.79.07-4.19,0,0-.08.09-.08.09,2.1-.01,4.19-.04,6.29-.04q6.45,0,6.31,6.64s.08-.09.08-.09Z"/>
    <path d="m175.9,65.25c-.01-3.38.06-6.76-.07-10.14-.07-1.84.32-2.65,2.4-2.56,5.21.22,4.09-.52,4.23,4.27.02.6,0,1.19,0,1.79q0,6.66-6.65,6.55s.09.09.09.09Z"/>
    <path d="m97.91,6.96c-1.29.01-2.59-.1-3.86.06-2.14.26-2.97-.37-2.85-2.71.19-3.72,2.04-5.07,5.77-3.91.97.3.87.93.87,1.59.01,1.69-.01,3.37-.02,5.06,0,0,.09-.09.09-.09Z"/>
    <path d="m39.1,98.24c0-2.23,0-4.46,0-6.69,0,0-.08.09-.08.09h6.68l-.08-.08q.14,6.75-6.6,6.6l.09.08Z"/>
    <path d="m25.89,110.85c.03-2.27.06-4.54.1-6.81,0,0-.08.1-.08.09,2.2.04,4.39.08,6.58.12l-.08-.09q.14,6.75-6.6,6.6l.08.09Z"/>
    <path d="m97.89,182.76c-1.5.02-3.01-.07-4.5.07-1.74.17-2.17-.52-2.18-2.19-.02-4.46-.11-4.46,4.41-4.43.8,0,1.59.08,2.39.13,0,0-.1-.08-.09-.08-.04,2.2-.08,4.39-.13,6.58l.09-.09Z"/>
    <path d="m45.61,85.05c2.23,0,4.46,0,6.69,0,0,0-.09-.08-.09-.08.03,2.19.07,4.38.1,6.57,0,0,.08-.1.08-.1-2.26.04-4.52.08-6.78.13l.08.08c0-2.23,0-4.46,0-6.68,0,0-.08.09-.08.09Z"/>
    <path d="m182.5,117.46c-.01-1.29.1-2.59-.06-3.86-.26-2.14.37-2.97,2.71-2.85,3.72.19,5.07,2.04,3.91,5.77-.3.97-.93.87-1.59.87-1.69.01-3.37-.01-5.06-.02,0,0,.09.09.09.09Z"/>
    <path d="m182.41,176.24c1.29-.01,2.59.1,3.86-.06,2.14-.26,2.97.37,2.85,2.71-.19,3.72-2.04,5.07-5.77,3.91-.97-.3-.87-.93-.88-1.59-.01-1.69.01-3.37.02-5.06,0,0-.09.09-.09.09Z"/>
    <path d="m39.09,85.05c-.01-1.09.09-2.2-.06-3.28-.38-2.66.54-3.49,3.32-3.49,2.79,0,3.71.83,3.32,3.49-.15,1.07-.05,2.18-.06,3.28,0,0,.08-.09.08-.09h-6.68l.08.09Z"/>
    <path d="m58.9,130.56q-6.74.16-6.6-6.6s-.08.09-.08.09c2.23,0,4.45,0,6.68.01l-.09-.09c0,2.23,0,4.45,0,6.68l.08-.09Z"/>
    <path d="m45.54,133.91c.9,3.05-.75,3.25-3.25,3.4-2.98.18-3.22-1.07-3.33-3.55-.12-2.73.77-3.3,3.33-3.24,2.53.06,4.16.33,3.26,3.39Z"/>
    <path d="m185.74,71.92c3.01-.89,3.3.68,3.42,3.23.14,2.93-1,3.28-3.53,3.35-2.67.08-3.36-.7-3.26-3.3.09-2.48.27-4.19,3.37-3.28Z"/>
    <path d="m110.41,130.65c.99-.01,2,.07,2.98-.06,2.56-.33,3.91.11,3.8,3.32-.09,2.77-.84,3.7-3.5,3.32-1.07-.15-2.18-.05-3.28-.06,0,0,.09.08.09.08v-6.68l-.09.08Z"/>
    <path d="m71.41,137.16q.14,6.75-6.61,6.61s.09.08.09.08c0-2.23,0-4.46,0-6.68l-.08.08c2.23,0,4.46,0,6.68,0l-.08-.09Z"/>
    <path d="m149.5,59.25c-.01-1.09.09-2.2-.06-3.28-.38-2.66.54-3.49,3.32-3.49,2.79,0,3.71.83,3.32,3.49-.15,1.07-.05,2.18-.06,3.28,0,0,.08-.09.08-.09-2.23,0-4.46,0-6.68,0l.08.09Z"/>
    <path d="m117.02,52.55q.14,6.76-6.6,6.6l.08.09q-.14-6.75,6.6-6.6l-.08-.09Z"/>
    <path d="m32.49,104.25q-.13-6.15,6.61-6.01s-.09-.08-.09-.08c.03,2.03.06,4.06.09,6.08-2.23-.03-4.46-.05-6.69-.08l.08.09Z"/>
    <path d="m19.14,88.29c.69,2.82-.5,3.29-3.07,3.44-3.34.19-2.67-1.74-2.87-3.67-.26-2.5.59-3.13,3.08-3.15,2.83-.02,3.56,1,2.86,3.39Z"/>
    <path d="m19.3,130.56c-.89.01-1.8-.07-2.68.06-2.66.4-3.48-.53-3.48-3.32,0-2.78.83-3.72,3.48-3.32.88.13,1.79.05,2.68.06,0,0-.09-.08-.09-.08,0,2.23,0,4.46,0,6.68,0,0,.09-.08.09-.08Z"/>
    <path d="m97.8,182.84c.79-.01,1.6.07,2.38-.05,2.88-.47,3.96.45,3.79,3.59-.13,2.44-.67,3.11-3.14,3.13-2.56.02-3.34-.78-3-3.19.16-1.17.05-2.38.06-3.57,0,0-.09.09-.09.09Z"/>
    <path d="m58.9,137.25c0-2.23,0-4.46,0-6.69,0,0-.08.09-.08.09q6.11-.13,6.03,6c0,.2-.02.4-.03.6l.08-.08h-6.08l.08.09Z"/>
    <path d="m110.42,59.15c.01.89-.07,1.8.06,2.68.4,2.66-.53,3.48-3.32,3.48-2.78,0-3.72-.83-3.32-3.48.13-.88.05-1.79.06-2.68,0,0-.08.09-.08.09h6.68l-.08-.09Z"/>
    <path d="m146.56,143.89c2.91-.81,2.82.93,2.99,3.08.23,2.86-1.2,2.79-3.32,2.92-2.61.17-2.76-1-2.84-3.1-.09-2.49.61-3.57,3.17-2.9Z"/>
    <path d="m58.82,98.25c3.58-.02,7.16.08,10.72-.08,2.65-.12,1.89,1.72,1.87,3-.03,1.25.89,3.18-1.8,3.06-2.68-.13-5.38-.19-8.04.02-2.29.18-3.05-.61-2.74-2.81.15-1.07.06-2.18.08-3.27l-.09.09Z"/>
    <path d="m45.7,110.84q-6.54-.15-6.68-6.68,6.54.15,6.68,6.68Z"/>
    <path d="m64.81,84.96c2.23,0,4.46,0,6.68,0-.01,1.09-.17,2.2-.02,3.27.37,2.66-.54,3.48-3.33,3.48-2.78,0-3.7-.82-3.33-3.48.15-1.07,0-2.18-.02-3.27Z"/>
    <path d="m97.9,123.96c0,2.23,0,4.46,0,6.68-.99-.01-2-.14-2.98-.02-2.57.32-3.9-.12-3.79-3.33.09-2.76.84-3.7,3.5-3.32,1.07.15,2.18,0,3.27-.02Z"/>
    <path d="m58.91,98.17c-.1,0-.2.01-.3.01q-6.72.09-6.22-6.74s-.08.1-.08.09c.1,0,.2.03.3.03q6.32.19,6.21,6.69s.09-.09.09-.09Z"/>
    <path d="m58.89,124.06c-.01-1.39.08-2.79-.06-4.16-.18-1.86.36-2.87,2.4-2.48,1.18.22,3-.75,3.44.68.5,1.63.2,3.53.07,5.31-.05.74-.91.59-1.47.59-1.49.01-2.97-.01-4.46-.02,0,0,.09.09.09.09Z"/>
    <path d="m32.51,23.68c-.28,2.61,1.37,6.72-.64,8.66-1.84,1.78-5.9.42-8.98.5-2.6.06-5.2-.06-7.8.04-1.59.06-2.07-.53-2.05-2.07.07-5.1.09-10.2,0-15.29-.04-1.82.76-2.15,2.33-2.13,5,.07,10,.09,14.99,0,1.74-.03,2.25.6,2.17,2.26-.11,2.49-.03,5-.03,8.04Z"/>
    <path d="m165.35,32.85c-2.61-.31-6.71,1.39-8.66-.68-1.79-1.89-.41-5.91-.5-8.99-.06-2-.01-4-.01-6q0-3.78,3.93-3.78c4.5,0,9,.06,13.49-.03,1.69-.03,2.26.52,2.23,2.23-.09,4.99-.12,10,0,14.99.05,1.95-.74,2.36-2.46,2.28-2.49-.11-5-.03-8.03-.03Z"/>
    <path d="m32.51,166.32c0,2.7-.04,5.4.02,8.09.03,1.28-.46,1.76-1.75,1.75-5.3-.05-10.59-.06-15.89,0-1.52.02-1.84-.69-1.83-2,.04-5.2.05-10.39,0-15.59-.02-1.55.53-2.09,2.09-2.07,5.1.07,10.19.1,15.29-.01,1.84-.04,2.16.77,2.11,2.33-.09,2.5-.02,5-.03,7.49Z"/>
  </g>
</svg>