<?xml version="1.0" encoding="UTF-8"?>
<svg id="Layer_2" data-name="Layer 2" xmlns="http://www.w3.org/2000/svg" viewBox="0 0 269.17 269.15">
  <defs>
    <style>
      .cls-1 {
        fill: #fff;
      }
    </style>
  </defs>
  <g id="Layer_1-2" data-name="Layer 1">
    <path d="m130.11,223.14h-9.57v8.79h-8.83v-18.36h8.6v-8.93h-8.78v-9.78l-.09.09h27.69v-9.09l-.09.09h9.53v-9.6h9.14l-.08-.09v28.37h-8.81v8.71h36.86v-27.48h-9.44l.09.09c0-3.23,0-6.45,0-9.68l-.08.08h18.69v-9.08l-.08.08c3.19.01,6.39.02,9.58.03v8.88c9.58,0,18.64,0,27.7,0,0,3.15,0,6.3,0,9.45h18.34v-9.37h-18.43v-8.87c-9.44,0-18.57,0-27.69,0,.06-3.27.12-6.54.18-9.81l-.08.09h37.12v9.61h18.76l-.09-.09v8.95h8.88v9.51h-8.71v18.83c-3.45,0-6.6,0-9.75,0,0-3.15,0-6.3,0-9.45h-18.34v9.37h18.43v8.98h18.39v18.43h-27.41v-18.24h-9.54v18.33h-8.94v18.68c-9.68,0-19.04,0-28.4,0,0,0,.08.09.08.09.01-2.99.02-5.99.03-8.98h9.29v-9.51h-9.2c0,3.3,0,6.44,0,9.59-3.07-.06-6.14-.12-9.21-.18,0,0,.08.08.08.08v-9.6c-3.52,0-6.6,0-9.68,0,0-2.95,0-5.9,0-8.84h-8.92v8.84c-3.22,0-6.45,0-9.67,0,0-2.95,0-5.89,0-8.85h-8.75v8.77h8.84v28.28h9.59l-.09-.08v8.84h-28.11v-8.84l-.09.08h9.43v-9.68h-9.43l.09.08v-18.52h-9.1c0-3.26,0-6.21,0-9.16,2.95,0,5.89,0,8.85,0v-9.35h-8.77v9.44Zm92.76-.18v-27.83h-27.83v27.83h27.83Z"/>
    <path d="m120.52,55.72v-8.94h-8.99v-9.74l-.09.09h18.57v9.45h27.52v27.75h9.78s-.08-.09-.08-.09c.03,3.23.06,6.46.09,9.68-3.15,0-6.3,0-9.44,0v8.92h9.44c0,3.03,0,6.06,0,9.09h-9.46v28.26h9.38v8.94l.08-.08h-9.43v9.68h9.43l-.08-.08v9.08l.08-.09h-37.29c0-3.08,0-6.03,0-8.99,2.95,0,5.89,0,8.85,0v-9.35h-8.77v9.44h-9.57v8.79h-8.83v-18.36h8.6v-8.93h-8.78v-9.78l-.09.09c9.22-.03,18.45-.07,27.67-.1,0,3.15,0,6.29,0,9.45h9.35v-9.37h-9.44v-8.95h-8.77v-9.6h8.59v-17.98h-8.72v-9.76l-.09.08h9.12v-8.98h9.29v-9.51h-9.2c0,3.3,0,6.44,0,9.59-3.07-.06-6.14-.12-9.21-.18l.08.08v-9.68h-9.68l.09.08Z"/>
    <path d="m.19.05h64.51v64.49H.19V.05Zm55.46,9.32H9.6v46.12h46.05V9.37Z"/>
    <path d="m64.71,204.66v64.48H.18v-64.48h64.53Zm-55.23,55.45h46.05v-46.13H9.48v46.13Z"/>
    <path d="m204.67,0h64.5v64.58h-64.5V0Zm55.54,9.43h-46.25v46.02h46.25V9.43Z"/>
    <path d="m223.04,83.93h8.97v-9.48h9.53v18.49h9.18l-.09-.09v8.98h-8.87v9.54h-18.65v18.57h-9.54v-9.33h-8.94v-9.17h-9.79l.08.09c-.03-3.23-.05-6.46-.08-9.69h18.68v-9s-.08.08-.08.08c3.23-.03,6.45-.06,9.68-.09,0,2.95,0,5.89,0,8.85h8.75v-8.77h-8.84c.03-3.03.06-6.05.09-9.08l-.08.09Z"/>
    <path d="m111.53,120.45c-3.23,0-6.46,0-9.69-.01l.08.09v-8.83h-9.08v8.83l.08-.09c-2.99.04-5.98.07-8.97.1,0,0,.1.08.1.08-.06-10.39-.11-20.77-.17-31.16,0-1.7,0-3.39,0-5.41h-27.98v-9.59h45.83v9.29h-8.65v17.97h8.68v-8.65h18.57v8.67h-8.87c0,6.48,0,12.63,0,18.79,0,0,.09-.09.09-.09Z"/>
    <path d="m111.53,37.04c-3.23,0-6.46,0-9.69-.01l.08.09v-8.83h-9.08v8.83l.08-.09h-18.45v-8.86h9.18v-9.65h-9.22v-8.94h9.42V.02h8.94v18.28h8.94v-8.62h18.59v8.65h-8.86c0,6.48,0,12.64,0,18.8,0,0,.09-.09.09-.09Z"/>
    <path d="m65.22,148.64v9.1c-15.65,0-31.16,0-46.68,0,0,0,.1.08.1.08l-.12-18.78-.09.08h9.68v-9.08l-.08.08h9.08l-.08-.08v18.46h9.75v-9.37h8.93l-.08-.08v9.68h9.68l-.09-.08Z"/>
    <path d="m167.32,74.33v-18.43h8.92v9.23h9.51v-9.25h9.11v18.32h9.5v9.73h9.17l-.08-.09v9.08l.08-.08c-6.23.03-12.46.06-18.68.09v-9.01h-9.01v-9.68h-18.6l.08.09Z"/>
    <path d="m28.11,120.52v-8.96H.04v-9.54h36.89v9.5c3.47,0,6.63,0,9.78,0,0,0-.08-.09-.08-.09v9.08h9.08l-.09-.08c0,3.23,0,6.45,0,9.68l.09-.08h-18.69l.08.08v-9.68h-9.08l.09.08Z"/>
    <path d="m232.25,139.23v-18.5h9.34v9.18h9.03v-9.21h9.63v9.31h8.82v18.49h-18.27v-9.35c-6.35,0-12.49,0-18.63,0,0,0,.1.08.1.08Z"/>
    <path d="m139.04,9.52h9.58V.03h8.94v9.41h9.65v8.94h8.89v9.54h-8.88v9.19l.09-.09h-9.52v-18.46h-18.66v-9.13l-.09.09Z"/>
    <path d="m55.88,186.02h27.87v18.31h17.9v8.98h-27.27v-18.25h-18.5v-9.03Z"/>
    <path d="m111.53,194.85h-9.56v-18.53h-17.94v-18.41h8.77v9.35h27.53v8.9h-8.89c0,6.47,0,12.62,0,18.77,0,0,.09-.09.09-.09Z"/>
    <path d="m260.32,250.64h-9.58v18.5h-27.43v-8.81h8.71v-9.54h9.54v-8.85h18.68v8.79l.09-.09Z"/>
    <path d="m0,83.98v-9.54h46.51v9.32h-9.38v8.97h-8.91v-8.74H0Z"/>
    <path d="m18.43,167.34h18.52v9h9.75l-.09-.09v18.44h-9.45v-8.66h-18.65v-18.77l-.09.09Z"/>
    <path d="m194.84,111.44v18.54h-9.01v18.75l.09-.08h-18.69l.08.08v-9.68l-.08.08h9.13v-18.75h9.47v-8.93c3.03.03,6.06.05,9.09.08l-.08-.09Z"/>
    <path d="m92.82,260.26v8.84h-18.38v-45.86h9.3v37.11h9.17l-.09-.09Z"/>
    <path d="m18.52,167.25h-8.95v27.45H.02v-36.88c6.29,0,12.45,0,18.61,0,0,0-.1-.08-.09-.08-.03,3.2-.07,6.4-.1,9.59,0,0,.09-.09.09-.09Z"/>
    <path d="m194.91,260.25h-8.97v8.89h-9.53v-8.88h-9.19s.09.08.09.08v-9.75h8.91c0-3.19,0-6.06,0-8.94,3.23.03,6.46.05,9.69.08l-.08-.08v9.08h9.08s-.08-.09-.08-.09c0,3.23,0,6.46-.01,9.68l.09-.09Z"/>
    <path d="m92.91,260.35v-9.54h9.02v-9.15l-.09.09h18.42v8.9h-8.68v18.4h-9.59v-8.79c-3.26,0-6.21,0-9.17,0,0,0,.09.09.09.09Z"/>
    <path d="m130.12,74.24h-9.58v9.48h-8.84v-28c2.9,0,5.86,0,8.81,0,0,0-.09-.08-.09-.08v9.68h9.68s-.08-.08-.08-.08v9.08l.09-.08Z"/>
    <path d="m204.65,148.83v-9.61c9.15,0,18.37,0,27.6,0,0,0-.1-.08-.09-.08,0,3.06,0,6.12,0,9.6-9.4,0-18.5,0-27.61,0,0,0,.1.08.1.08Z"/>
    <path d="m157.72,176.34v-8.94h9.6v-9.75s-.08.09-.08.09h9v18.6l.08-.08h-18.69l.08.09Z"/>
    <path d="m101.83,37.03v28.03h-8.92c0-9.34,0-18.69,0-28.03,0,0-.08.09-.08.09h9.08l-.08-.09Z"/>
    <path d="m185.83,148.73c6.27.03,12.54.06,18.81.1,0,0-.1-.08-.09-.08-.04,3-.07,5.99-.11,8.99,0,0,.08-.09.08-.09h-9.68v9.68l.08-.08h-9v-18.6l-.09.08Z"/>
    <path d="m101.83,120.44v28.03h-8.92c0-9.34,0-18.69,0-28.03,0,0-.08.09-.08.09,3.03,0,6.06,0,9.08,0l-.08-.09Z"/>
    <path d="m250.72,92.93v-18.43h9.36v18.34c-3.15,0-6.3,0-9.45,0,0,0,.09.09.09.09Z"/>
    <path d="m65.23,139.13h18.43v9.51h-18.43s.09.08.09.08c0-3.23,0-6.46,0-9.68l-.08.09Z"/>
    <path d="m74.47,46.82h9.25v18.22h-9.25v-18.22Z"/>
    <path d="m74.3,120.43c-6.23,0-12.45,0-18.68,0,0,0,.09.08.09.08v-9.08l-.08.09h18.59v8.99l.09-.09Z"/>
    <path d="m194.83,260.33h18.43v8.76h-18.34c0-2.95,0-5.9,0-8.85,0,0-.09.09-.09.09Z"/>
    <path d="m46.7,176.34v-8.84h18.37v8.76c-6.17,0-12.31,0-18.45,0,0,0,.09.09.09.09Z"/>
    <path d="m101.92,241.66h-8.84v-18.37h8.76c0,6.17,0,12.31,0,18.45,0,0,.09-.09.09-.09Z"/>
    <path d="m185.85,9.52h8.83v18.35h-8.74V9.44l-.09.09Z"/>
    <path d="m55.72,101.91v-8.83h18.35v8.74h-18.44l.09.09Z"/>
    <path d="m18.51,130.12v-9.6c3.29,0,6.45,0,9.6,0,0,0-.09-.08-.09-.08v9.68l.08-.08h-9.68l.09.08Z"/>
    <path d="m185.93,9.44h-9.43V.07h9.35c0,3.16,0,6.31,0,9.45,0,0,.09-.09.09-.09Z"/>
    <path d="m213.52,83.93v-9.44h9.52c0,3.14,0,6.29,0,9.44,0,0,.08-.09.08-.09h-9.68l.08.09Z"/>
    <path d="m74.22,120.52c3.27.03,6.54.07,9.82.1,0,0-.1-.08-.09-.08,0,3.06,0,6.12,0,9.36h-9.64c0-3.18,0-6.32,0-9.46,0,0-.09.09-.09.09Z"/>
    <path d="m260.23,250.73h8.84v9.37h-8.75c0-3.16,0-6.31,0-9.45,0,0-.09.09-.09.09Z"/>
    <path d="m55.63,101.83c0,3.23,0,6.47,0,9.7,0,0,.08-.09.08-.09h-9.08s.08.09.08.09c0-3.08,0-6.17,0-9.61,3.1,0,6.05,0,9.01,0,0,0-.09-.09-.09-.09Z"/>
    <path d="m269.17,102.13v9.16h-8.72v-9.16h8.72Z"/>
    <path d="m260.32,167.34v-9.43h8.77v9.35c-2.96,0-5.91,0-8.85,0,0,0,.09.09.09.09Z"/>
    <path d="m139.13,185.85h-8.84v-9.37h8.75c0,3.16,0,6.31,0,9.45,0,0,.09-.09.09-.09Z"/>
    <path d="m139.23,28.21h9.23v8.68h-9.23v-8.68Z"/>
    <path d="m167.22,37.11h8.84v9.37h-8.75c0-3.16,0-6.31,0-9.45,0,0-.09.09-.09.09Z"/>
    <path d="m186.05,37.22h8.61v9.26h-8.61v-9.26Z"/>
    <path d="m139.13,9.44h-8.84V.07h8.75c0,3.16,0,6.31,0,9.45,0,0,.09-.09.09-.09Z"/>
    <path d="m55.62,130.12h9.61c0,3.09,0,6.05,0,9.01,0,0,.08-.09.08-.09h-9.68s.08.08.08.08c0-3.03,0-6.06,0-9.08l-.09.08Z"/>
    <path d="m139.12,260.25h-8.84v-9.52c2.94,0,5.89,0,8.84,0,0,0-.09-.08-.09-.08v9.68l.09-.08Z"/>
    <path d="m18.51,139.04h-8.84v-8.92c2.94,0,5.89,0,8.84,0,0,0-.09-.08-.09-.08v9.08l.09-.08Z"/>
    <path class="cls-1" d="m157.63,176.25h18.69c0,3.23,0,6.45,0,9.68-2.95,0-5.89,0-8.85,0v8.75h8.77v-8.83h9.44v27.48h-36.86v-8.71h8.81v-28.37Z"/>
    <path class="cls-1" d="m222.87,222.96h-27.83v-27.83h27.83v27.83Zm-18.25-9.64h8.66v-8.61h-8.66v8.61Z"/>
    <path class="cls-1" d="m185.92,148.64v18.6h9v9.08h-18.69v-18.6h-9v-9.08h18.69Z"/>
    <path class="cls-1" d="m176.23,241.65v8.94h-8.91v9.75h-9.59v-28.28l-.08.08c3.22,0,6.45,0,9.67,0,0,0-.08-.09-.08-.09v9.68h9.08l-.09-.08Z"/>
    <path class="cls-1" d="m204.34,167.45h27.69v8.87l.08-.08h-27.7c0-3,0-5.94,0-8.88,0,0-.08.1-.08.1Z"/>
    <path class="cls-1" d="m250.74,204.46h-18.43v-9.37h18.34c0,3.15,0,6.3,0,9.45,0,0,.08-.08.08-.08Z"/>
    <path class="cls-1" d="m232.03,176.32h18.43v9.37h-18.34c0-3.15,0-6.3,0-9.45,0,0-.08.08-.08.08Z"/>
    <path class="cls-1" d="m185.92,241.74c-3.23-.03-6.46-.05-9.69-.08,0,0,.09.08.09.08v-9.68l-.08.09h9.68v9.6Z"/>
    <path class="cls-1" d="m194.84,167.33v-9.68h9.68c-.06,3.27-.12,6.53-.18,9.81,0,0,.08-.1.08-.09-3.2,0-6.39-.02-9.58-.03Z"/>
    <path class="cls-1" d="m139.03,260.34v-9.68h9.43v9.68h-9.43Z"/>
    <path class="cls-1" d="m195.05,241.83v-9.59h9.2v9.51c-3.02,0-6.15,0-9.29,0,0,0,.1.08.1.08Z"/>
    <path class="cls-1" d="m130.11,223.14v-9.44h8.77v9.35c-2.96,0-5.91,0-8.85,0,0,0,.08.08.08.08Z"/>
    <path class="cls-1" d="m194.92,250.74h-9.08v-9.08c3.07.06,6.13.12,9.21.18,0,0-.1-.08-.09-.08,0,3-.02,5.99-.03,8.98Z"/>
    <path class="cls-1" d="m157.73,232.06h-8.84v-8.77h8.75c0,2.96,0,5.91,0,8.85,0,0,.08-.08.08-.08Z"/>
    <path class="cls-1" d="m167.32,232.14v-8.84h8.92c0,2.94,0,5.89,0,8.84,0,0,.08-.09.08-.09h-9.08l.08.09Z"/>
    <path class="cls-1" d="m185.83,111.44v8.93h-9.47v18.75h-9.13v-8.94h-9.38v-28.26h9.46l-.08-.09v9.68h18.69l-.09-.08Z"/>
    <path class="cls-1" d="m167.23,74.24h18.6v9.68l.09-.08c-6.23,0-12.46,0-18.69,0,0,0,.09.08.09.08-.03-3.23-.06-6.46-.09-9.68Z"/>
    <path class="cls-1" d="m167.32,101.93c0-3.03,0-6.06,0-9.09l-.09.08c6.23,0,12.46,0,18.69,0l-.08-.08v9.08l.08-.08h-18.69l.08.09Z"/>
    <path class="cls-1" d="m139.02,120.52h9.44v9.37h-9.35c0-3.16,0-6.31,0-9.45,0,0-.08.08-.08.08Z"/>
    <path class="cls-1" d="m167.32,139.04v9.68h-9.43v-9.68h9.43Z"/>
    <path class="cls-1" d="m139.24,65.42v-9.59h9.2v9.51c-3.02,0-6.15,0-9.29,0,0,0,.1.08.1.08Z"/>
    <path class="cls-1" d="m130.12,65.32h-9.68v-9.68h9.68v9.68Z"/>
    <path class="cls-1" d="m130.11,148.74v-9.44h8.77v9.35c-2.96,0-5.91,0-8.85,0,0,0,.08.08.08.08Z"/>
    <path class="cls-1" d="m167.32,92.84h-9.44v-8.92c3.14,0,6.29,0,9.44,0,0,0-.09-.08-.09-.08,0,3.03,0,6.06,0,9.08l.09-.08Z"/>
    <path class="cls-1" d="m130.03,74.32v-9.08c3.07.06,6.13.12,9.21.18,0,0-.1-.08-.09-.08,0,2.86,0,5.73,0,8.99h-9.12Z"/>
    <path class="cls-1" d="m55.65,9.37v46.12H9.6V9.37h46.05Zm-9.51,36.83v-27.55h-27.54v27.55h27.54Z"/>
    <path class="cls-1" d="m9.48,260.12v-46.13h46.05v46.13H9.48Zm36.72-36.81h-27.55v27.38h27.55v-27.38Z"/>
    <path class="cls-1" d="m260.21,9.43v46.02h-46.25V9.43h46.25Zm-36.97,9.19v27.63h27.48v-27.63h-27.48Z"/>
    <path class="cls-1" d="m194.84,92.93c6.23-.03,12.46-.06,18.68-.09v9c-6.37,0-12.53,0-18.68,0,0,0,.08.09.08.09v-9.08l-.08.09Z"/>
    <path class="cls-1" d="m194.92,111.52c-3.03-.03-6.06-.05-9.09-.08,0,0,.09.08.09.08v-9.68l-.08.08c3.03,0,6.06,0,9.08,0,0,0-.08-.09-.08-.09.03,3.23.05,6.46.08,9.69Z"/>
    <path class="cls-1" d="m213.44,83.84h9.68c-.03,3.03-.06,6.05-.09,9.08l.08-.08c-3.23.03-6.45.06-9.68.09v-9.08Z"/>
    <path class="cls-1" d="m223.03,92.92h8.84v8.77h-8.75c0-2.96,0-5.91,0-8.85,0,0-.08.08-.08.08Z"/>
    <path class="cls-1" d="m101.91,120.53c-3.03,0-6.06,0-9.08,0v-8.83h9.08v8.83Z"/>
    <path class="cls-1" d="m101.91,37.12h-9.08v-8.83h9.08v8.83Z"/>
    <path class="cls-1" d="m55.71,130.04c0,3.03,0,6.06,0,9.08-2.87,0-5.75,0-8.93,0v9.37h-9.75v-18.46h18.69Z"/>
    <path class="cls-1" d="m55.63,139.04h9.68c0,3.23,0,6.46,0,9.68h-9.68v-9.68Z"/>
    <path class="cls-1" d="m18.42,139.13v-9.08h9.68v9.08h-9.68Z"/>
    <path class="cls-1" d="m28.02,130.13v-9.68h9.08v9.68h-9.08Z"/>
    <path class="cls-1" d="m185.83,83.92h9.01v9.01s.08-.09.08-.09h-9.08l.08.08c0-3.03,0-6.06,0-9.08l-.09.08Z"/>
    <path class="cls-1" d="m46.62,111.44h9.08v9.08h-9.08v-9.08Z"/>
    <path d="m176.24,185.84v8.83h-8.77v-8.75c2.96,0,5.91,0,8.85,0,0,0-.09-.09-.09-.09Z"/>
    <path d="m204.62,213.32v-8.61h8.66v8.61h-8.66Z"/>
    <path d="m167.24,232.05h9.08v9.68h-9.08v-9.68Z"/>
    <path d="m185.92,101.84v9.68h-18.69v-9.68h18.69Z"/>
    <path d="m185.92,83.84c0,3.03,0,6.06,0,9.08-6.23,0-12.46,0-18.69,0,0-3.03,0-6.06,0-9.08,6.23,0,12.46,0,18.69,0Z"/>
    <path d="m185.84,92.84h9.08c0,3.03,0,6.06,0,9.08-3.03,0-6.06,0-9.08,0v-9.08Z"/>
    <path d="m46.14,46.2h-27.54v-27.55h27.54v27.55Z"/>
    <path d="m46.2,223.3v27.38h-27.55v-27.38h27.55Z"/>
    <path d="m223.24,18.62h27.48v27.63h-27.48v-27.63Z"/>
  </g>
</svg>