<?xml version="1.0" encoding="UTF-8"?>
<svg id="Layer_2" data-name="Layer 2" xmlns="http://www.w3.org/2000/svg" viewBox="0 0 243.68 243.65">
  <defs>
    <style>
      .cls-1 {
        fill: #fff;
      }
    </style>
  </defs>
  <g id="Layer_1-2" data-name="Layer 1">
    <g>
      <path d="m226.82,126.24h16.79v8.03h-7.96v25.27l.1-.09h-8.93v17.08l.09-.1h-8.33v-17.14h-7.83v-8.04h15.87v-8.84h-7.71v-8.17h8v-8.11l-.1.09Z"/>
      <path d="m201.79,92.26v-24.94h25.02v7.95l.1-.1h-8.09v16.98h-17.13l.1.1Z"/>
      <path d="m226.81,75.27c2.98,0,5.96.01,8.93.02l-.1-.1v24.94h-8.74c0-8.32,0-16.64,0-24.96,0,0-.1.1-.1.1Z"/>
      <path d="m235.66,176.44v16.99h-8.83s.1.09.1.09v-17.08l-.09.1h8.93l-.1-.09Z"/>
      <path d="m235.66,159.54h7.97v16.9h-7.97s.1.09.1.09v-17.08l-.1.09Z"/>
      <path d="m235.66,218.66h7.97v16.89h-7.97l.09.1v-17.08l-.1.09Z"/>
      <path d="m184.9,243.51v-7.73h16.56v7.73h-16.56Z"/>
      <path d="m235.66,235.55v7.97h-8.74c0-2.65,0-5.31,0-7.97,0,0-.09.1-.09.1h8.93l-.09-.1Z"/>
      <path d="m100.43,235.64h8.65v7.89h-8.55c0-2.67,0-5.33,0-7.99,0,0-.1.1-.1.1Z"/>
      <path d="m109.26,218.65c2.76,0,5.51,0,8.27,0,0,0-.1-.09-.1-.09v8.25s.1-.09.1-.09c-2.59,0-5.18,0-8.17,0,0-2.82,0-5.49,0-8.16,0,0-.1.1-.1.1Z"/>
      <path d="m235.75,75.29v-7.97h7.89v7.87c-2.67,0-5.33,0-7.99,0,0,0,.1.1.1.1Z"/>
      <path class="cls-1" d="m235.76,235.65h-8.93v-17.08h8.93v17.08Z"/>
      <path class="cls-1" d="m218.54,218.46h-7.74v-16.62h7.74v16.62Z"/>
      <path class="cls-1" d="m193.62,218.67v-7.97h7.89v7.87c-2.67,0-5.33,0-7.99,0,0,0,.1.1.1.1Z"/>
      <path class="cls-1" d="m193.73,49.85V8.14h41.71v41.71h-41.71Zm33.13-33.28h-24.77v24.96h24.77v-24.96Z"/>
      <path class="cls-1" d="m117.43,226.81v-8.25h16.8v8.25h-16.8Z"/>
      <path class="cls-1" d="m83.93,226.63h-8.4v-7.74h8.4v7.74Z"/>
      <path class="cls-1" d="m235.76,159.45v17.08h-8.93v-17.08h8.93Z"/>
      <path d="m226.86,16.58v24.96h-24.77v-24.96h24.77Z"/>
      <g>
        <path d="m226.82,193.42v8.12h16.85v8.75h-8.02v8.36l.1-.09h-8.93v17.08l.09-.1h-8.11v8.01h-8.04v-16.65h-17.25c0-3.01,0-5.67,0-8.34,2.66,0,5.32,0,7.99,0v-7.87h-7.89v7.97h-16.91v-8.27h-17.15l.1.1v-8.79h8.59v-25.06h-8.5v16.77h-8.34l.09.1v-17.08h-8.93l.1.09v-8.33h-16.08v-8.82h16.08v-8.15h8.74v-8.78h33.4c0,6.02,0,11.55,0,17.08-2.67,0-5.35,0-8.37,0v-8.01h-16.6v8.13h8.73v8.45h16.15v-8.67h9.01v9.08h16.96v16.16h8.15v8.84h8.1l-.1-.09Zm-25.33,8.05v-24.72h-24.72v24.72h24.72Zm17.05,16.98v-16.62h-7.74v16.62h7.74Z"/>
        <path d="m109.37,41.98v-8.78h16.9v-8.16h16.19v-8.87h9.02l-.1-.1v16.95h8.09v8.75h8.9v8.36l.1-.09h-8.65v8.25h8.65l-.1-.09v8.79h16.22v8.05h8.73v8.98h-8.5v8.06h-8.3v17.18s.1-.09.1-.09c-2.75,0-5.49,0-8.24-.01l.1.1v-25.26h7.85v-8.7c-5.76,0-11.27,0-16.79,0,0-2.67,0-5.34,0-8.25h-8.16l.1.1v-17.08h-8.93l.09.1v-16.77h-8.32v8.65h-8.08v33.26l.1-.1h-16.99v-16.99l-.09.1h7.97v-16.4h-7.97l.1.09Z"/>
        <path d="m0,58.1V0h58.21v58.1H0ZM50.18,8.14H8.4v41.72h41.78V8.14Z"/>
        <path d="m243.64,58.22h-58.11V0h58.11v58.21Zm-49.91-8.37h41.71V8.14h-41.71v41.71Z"/>
        <path d="m58.26,243.65H.11v-58.43h58.15v58.43Zm-8.12-50.09H8.43v41.73h41.71v-41.73Z"/>
        <path d="m84.22,134.3h-8.76v8.15h-8.32l.09.1v-8.15c-3.3,0-6.11,0-8.93,0,.03-2.75.06-5.5.09-8.25l-.1.09h17.11v-9h8.8v-8.08l-.1.09h8.35v-17.23h25.14v-8.05h8.74v-8.79l-.1.1c2.66,0,5.33,0,8.32,0v-25.14h8.08l-.09-.1v17.08h8.93l-.1-.1c.03,2.75.07,5.5.1,8.25-2.9,0-5.79,0-8.84,0v8.84h-8.3v8.24h-8c0,2.92,0,5.49,0,8.06-8.56,0-17.11,0-25.82,0,0,5.93,0,11.46,0,16.99-2.66,0-5.31,0-8.3,0v8.92h-8.1v8.07l.09-.1Z"/>
        <path d="m159.56,210.4v8.13h-7.98v8.07h-8.73v8.81h16.57v-8.4h16.97v16.58h-41.77v-7.77h-8.19v7.67h-8.89c0-5.55,0-11.16,0-16.77,0,0-.1.09-.1.09h16.8v-8.25h-16.8l.1.09v-16.79h16.85v8.63c8.67,0,16.97,0,25.28,0,0,0-.1-.1-.1-.1Z"/>
        <path d="m109.36,218.56h-8.93v17.08l.1-.1h-8.12v8.03h-8.07v-7.75h-8.87v7.66h-8.05v-32.98h7.84v-16.78h8.86v7.8h8.07v8.72h8.19v-8.35h8.89v16.76l.1-.1Zm-25.42,8.07v-7.74h-8.4v7.74h8.4Z"/>
        <path d="m142.66,193.42h-8.11v-8.59h-17v8.4h-25.17v-8.63l-.1.09h7.97v-8.25h-7.97l.1.09v-8.09h7.9v-8.83h-7.68v-8.15h7.94v-9.01l-.1.09h16.79v8.98h-7.73v16.86h8.11v8.13h25.05l-.1-.09c0,5.69,0,11.39,0,17.08l.09-.1Z"/>
        <path d="m42.09,159.44h-8.81v-16.82H.19v-16.2h7.77v7.67h8.2v-24.69h16.9v25.01h9.04l-.09-.1v8.16h8.25c-.03,2.98-.07,5.95-.1,8.93l.1-.1h-8.25v8.25l.09-.1Z"/>
        <path d="m201.69,109.26h25.13v16.98l.1-.09h-8.36v-8.61h-8.06v25.09h-8.86v8.51h-8.18v-16.97h-8.86v-8.07h-7.97v-16.94s-.1.09-.1.09c2.75,0,5.5,0,8.25,0,0,0-.09-.1-.09-.1v8.36h9v8.45h8.08v-16.81l-.09.1Z"/>
        <path d="m117.42,16.08v8.77h-16.98v17.14l.1-.09h-16.3c0,3.07,0,5.66,0,8.25-2.98-.03-5.96-.06-8.93-.09l.1.09v-8.11h-8.01v-25.74h7.81v8.58h8.85v7.96h8.17v-16.66h25.3l-.1-.1Z"/>
        <path d="m50.25,92.27v-8.07h16.83v-17.06h8.31l-.09-.1v8.33h8.6v8.83h-8.35v16.29h8.58v8.77l.1-.09c-5.69.03-11.39.07-17.08.1,0-5.61,0-11.23,0-17.09h-16.99l.1.09Z"/>
        <path d="m42.09,134.41v-33.9h-8.67v-16.26h8.47v8.02c3.02,0,5.69,0,8.36,0,0,0-.1-.09-.1-.09,0,2.66,0,5.32,0,8.32h8.25c0,3.15,0,5.96,0,8.76-2.66,0-5.32,0-7.97,0v8.06h7.97c-.03,2.98-.07,5.95-.1,8.93,0,0,.1-.09.1-.09h-8.15c0,3.08,0,5.66,0,8.25-2.75-.03-5.5-.06-8.25-.09l.09.1Z"/>
        <path d="m.16,67.25h32.89v7.87H8.11v42.08H.16v-49.95Z"/>
        <path d="m67.14,142.45v8.79h16.83v16.92h-8.5v-8.72c-8.68,0-17,0-25.32,0,0,0,.09.1.09.1,0-2.75,0-5.5,0-8.25l-.1.1h8.16v-8.93c2.98.03,5.95.07,8.93.1l-.09-.1Z"/>
        <path d="m151.49,16.18V.04h16.82v15.91h8.05v8.81h-16.6v-8.69c-3.03,0-5.7,0-8.37,0,0,0,.1.1.1.1Z"/>
        <path d="m201.69,92.16c0,5.7,0,11.4,0,17.1,0,0,.09-.1.09-.1-5.69,0-11.39,0-17.08,0,0,0,.09.1.09.1,0-2.8,0-5.6,0-8.75h8.69v-8.26c2.99,0,5.65,0,8.31,0,0,0-.1-.1-.1-.1Z"/>
        <path d="m117.51,16.18V.05h16.74v7.82h-7.8v8.21c-3.25,0-6.14,0-9.03,0,0,0,.1.1.1.1Z"/>
        <path d="m92.38,184.59h-24.95v-8.06h24.95s-.1-.09-.1-.09v8.25l.1-.09Z"/>
        <path d="m100.43,41.98c2.98,0,5.96,0,8.94,0,0,0-.1-.09-.1-.09v16.4l.09-.1c-2.98.03-5.95.07-8.93.1.03-5.47.06-10.94.09-16.41l-.1.09Z"/>
        <path d="m67.26,7.69V.07h16.68v7.62h-16.68Z"/>
        <path d="m100.54,142.46h-16.32c0-2.82,0-5.49,0-8.16,0,0-.09.1-.09.1,5.47-.03,10.94-.06,16.41-.09-.03,2.75-.07,5.5-.1,8.25l.1-.09Z"/>
        <path d="m16.28,168.36v-8.63h8.55v8.53h-8.65l.1.1Z"/>
        <path d="m75.39,67.13c0-2.98,0-5.96,0-8.93l-.1.09c2.98-.03,5.96-.06,8.93-.09v8.83h-8.93l.09.1Z"/>
        <path d="m50.24,168.27h-8.14c0-3.04,0-5.94,0-8.83,0,0-.09.1-.09.1h8.25s-.09-.1-.09-.1c0,2.98,0,5.95-.01,8.93l.1-.1Z"/>
        <path d="m151.4,193.42v7.97h-8.74c0-2.65,0-5.31,0-7.97,0,0-.09.1-.09.1,2.98,0,5.95,0,8.93,0l-.09-.1Z"/>
        <path d="m24.99,84.28v7.66h-8.52v-7.66h8.52Z"/>
        <path d="m58.07,75.16h-7.61v-7.85h7.61v7.85Z"/>
        <path d="m75.4,58.2h-7.97v-8.06c2.65,0,5.31,0,7.97,0,0,0-.1-.09-.1-.09v8.25l.1-.09Z"/>
        <path d="m7.84,159.34H.09v-7.73h7.75v7.73Z"/>
        <path d="m50.14,168.37h7.97v7.89h-7.87c0-2.67,0-5.33,0-7.99,0,0-.1.1-.1.1Z"/>
        <path d="m168.38,50.14h7.97v8.06c-2.65,0-5.31,0-7.97,0,0,0,.1.09.1.09v-8.25l-.1.09Z"/>
        <path d="m16.19,168.27v7.97h-7.89v-7.87c2.67,0,5.33,0,7.99,0,0,0-.1-.1-.1-.1Z"/>
        <path class="cls-1" d="m226.92,176.43v17.08h-8.1v-8.84h-8.15v-16.16h-16.96v-9.08h-9.01l.1.1v-17.08c-11.31,0-22.36,0-33.4,0,0,0,.09.1.09.1v-33.1h-8.95v7.72h-8.17v-16.84h-8.11l.1.09v-8.06h8v-8.24h8.3l-.09-.1v8.36h9.01v7.76h8.08v-24.96l-.09.1h16.79v8.7h-7.85c0,8.66,0,16.96,0,25.26-2.88,0-5.77,0-8.66,0v7.87h8.57v-7.97c2.75,0,5.49,0,8.24.01v16.94h7.97v8.07h8.86v16.97h8.18v-8.51h8.86v-25.09h8.06v8.61h8.36v8.11h-8v8.17h7.71v8.84h-15.87v8.04h7.83v17.14h8.33Zm-67.03-50.16v7.85h8.29v-7.85h-8.29Z"/>
        <path class="cls-1" d="m100.44,142.55c.03-2.75.07-5.5.1-8.25l-.1.09h16.99v-8.25h8.98v8.34h8.11c0,2.92,0,5.49,0,8.06-2.66,0-5.32,0-7.99,0v8.55h7.89v-8.65c5.69.04,11.38.07,17.08.11,0,0-.09-.1-.09-.1,0,2.81,0,5.61,0,8.78h-8.74v8.15h-16.08v8.82h16.08v8.33h-25.05v-8.13h-8.11v-16.86h7.73v-8.98h-16.79Z"/>
        <path class="cls-1" d="m201.49,201.48h-24.72v-24.72h24.72v24.72Zm-7.98-16.62h-8.52v8.34h8.52v-8.34Z"/>
        <path class="cls-1" d="m184.71,159.44v8.67h-16.15v-8.45h-8.73v-8.13h16.6v8.01c3.03,0,5.7,0,8.37,0,0,0-.1-.1-.1-.1Z"/>
        <path class="cls-1" d="m151.5,193.52c-2.98,0-5.95,0-8.93,0,0-5.69,0-11.39,0-17.08h8.93v17.08Z"/>
        <path class="cls-1" d="m75.3,67.03h8.93v-8.83s-.1.09-.1.09c2.75,0,5.5,0,8.25,0l-.09-.09v8.64h8.25v-8.64l-.09.1c2.98-.03,5.95-.07,8.93-.1v16.99h16.99v8.79h-8.74v8.05h-25.14v17.23h-8.35v-8.77h-8.58v-16.29h8.35v-8.83h-8.6v-8.33Z"/>
        <path class="cls-1" d="m142.66,50.14h-8.08v25.14c-2.99,0-5.65,0-8.32,0v-33.26h8.08v-8.65h8.32v16.77Z"/>
        <path class="cls-1" d="m151.5,67.13h-8.93v-17.08h8.93v17.08Z"/>
        <path class="cls-1" d="m109.27,58.29v-16.4h7.97v16.4h-7.97Z"/>
        <path class="cls-1" d="m168.48,50.05v8.25h-8.65v-8.25h8.65Z"/>
        <path class="cls-1" d="m151.5,75.28c-.03-2.75-.07-5.5-.1-8.25h8.16c0,2.91,0,5.58,0,8.25,0,0,.09-.1.09-.1-2.75,0-5.5,0-8.25,0l.1.09Z"/>
        <path class="cls-1" d="m50.18,8.14v41.72H8.4V8.14h41.78ZM16.61,41.54h24.94v-24.92h-24.94v24.92Z"/>
        <path class="cls-1" d="m50.14,193.56v41.73H8.43v-41.73h41.71Zm-33.51,33.14h24.95v-24.78h-24.95v24.78Z"/>
        <path class="cls-1" d="m100.54,117.41v-16.99c8.71,0,17.27,0,25.82,0,0,0-.1-.09-.1-.09v17.09c-3.21,0-6.02,0-8.83,0,0-2.66,0-5.32,0-7.97h-8.06v7.97c-2.98-.03-5.95-.07-8.93-.1l.1.09Z"/>
        <path class="cls-1" d="m58.31,126.25c.03-2.98.07-5.95.1-8.93l-.1.09h8.93v-8.25s-.09.1-.09.1c5.69-.03,11.39-.07,17.08-.1v8.08h-8.8v9h-17.11Z"/>
        <path class="cls-1" d="m100.54,134.31c-5.47.03-10.94.06-16.41.09v-8.07h8.1v-8.92c2.99,0,5.65,0,8.3,0,0,0-.1-.09-.1-.09,0,5.69,0,11.39,0,17.08,0,0,.1-.09.1-.09Z"/>
        <path class="cls-1" d="m142.66,84.12v-8.84c3.05,0,5.94,0,8.84,0,0,0-.1-.09-.1-.09v8.83h-8.83l.09.1Z"/>
        <path class="cls-1" d="m67.24,142.55c-2.98-.03-5.95-.07-8.93-.1l.09.1v-8.25l-.09.1h8.93v8.15Z"/>
        <path class="cls-1" d="m50.25,134.4v-8.25h8.15c-.03,2.75-.06,5.5-.09,8.25,0,0,.09-.1.09-.1h-8.25l.1.09Z"/>
        <path class="cls-1" d="m92.28,184.68v-8.25h7.97v8.25h-7.97Z"/>
        <path class="cls-1" d="m58.31,142.45v8.93h-8.16c.03-2.98.07-5.95.1-8.93,0,0-.1.09-.1.09h8.25l-.09-.1Z"/>
        <path class="cls-1" d="m50.25,159.54h-8.25v-8.25h8.25c0,2.75,0,5.5,0,8.25Z"/>
        <path class="cls-1" d="m42,134.3c2.75.03,5.5.06,8.25.09,0,0-.1-.09-.1-.09v8.25s.1-.09.1-.09c-2.59,0-5.17,0-8.25,0v-8.16Z"/>
        <path class="cls-1" d="m184.7,109.16c5.69,0,11.39,0,17.08,0v16.81h-8.08v-8.45h-9v-8.36Z"/>
        <path class="cls-1" d="m100.53,41.89c-.03,5.47-.06,10.94-.09,16.41,0,0,.09-.1.09-.1h-8.25l.09.09v-8.25h-8.25l.1.09v-8.25h16.3Z"/>
        <path class="cls-1" d="m75.3,58.29v-8.25c2.98.03,5.96.06,8.93.09,0,0-.1-.09-.1-.09v8.25s.1-.09.1-.09c-2.98.03-5.96.06-8.93.09Z"/>
        <path class="cls-1" d="m58.41,109.26v-8.76h-8.25c0-3,0-5.66,0-8.32h16.99c0,5.86,0,11.47,0,17.09,0,0,.09-.1.09-.1h-8.93l.1.09Z"/>
        <path class="cls-1" d="m58.41,117.32h-7.97v-8.06c2.65,0,5.31,0,7.97,0,0,0-.1-.09-.1-.09,0,2.75,0,5.5,0,8.25l.1-.09Z"/>
        <path d="m117.43,117.42h8.83v-17.09h8.11v16.84h8.17v-7.72h8.95v33.1c-5.69-.04-11.38-.07-17.08-.11l.1.1v-8.06h-8.11v-8.34c-3.22,0-6.1,0-8.98,0,0,0,.09.1.09.1v-8.93l-.09.1Z"/>
        <path d="m142.57,84.02h8.83v-8.83c2.75,0,5.5,0,8.25,0v24.96h-8.08v-7.76h-9.01v-8.36Z"/>
        <path d="m168.4,109.15v7.97h-8.57v-7.87c2.9,0,5.78,0,8.66,0,0,0-.1-.1-.1-.1Z"/>
        <path d="m159.89,126.27h8.29v7.85h-8.29v-7.85Z"/>
        <path d="m100.44,134.4c0-5.69,0-11.39,0-17.08,2.98.03,5.95.07,8.93.1l-.09-.1v8.93h8.25s-.09-.1-.09-.1c0,2.59,0,5.17,0,8.25h-16.99Z"/>
        <path d="m134.42,142.45v8.65h-7.89v-8.55c2.67,0,5.33,0,7.99,0,0,0-.1-.1-.1-.1Z"/>
        <path d="m193.51,184.85v8.34h-8.52v-8.34h8.52Z"/>
        <path d="m92.28,58.2h8.25v8.64h-8.25v-8.64Z"/>
        <path d="m84.13,58.29v-8.25h8.25v8.25c-2.75,0-5.5,0-8.25,0Z"/>
        <path d="m16.61,41.54v-24.92h24.94v24.92h-24.94Z"/>
        <path d="m16.63,226.7v-24.78h24.95v24.78h-24.95Z"/>
        <path d="m109.37,117.42v-7.97h8.06c0,2.65,0,5.31,0,7.97,0,0,.09-.1.09-.1h-8.25l.09.1Z"/>
        <path d="m58.31,117.41c0-2.75,0-5.5,0-8.25h8.93v8.25h-8.93Z"/>
        <path d="m50.15,142.55v-8.25h8.25v8.25h-8.25Z"/>
        <path class="cls-1" d="m109.27,117.32h8.25v8.93h-8.25v-8.93Z"/>
      </g>
    </g>
  </g>
</svg>