<?xml version="1.0" encoding="UTF-8"?>
<svg id="Layer_2" data-name="Layer 2" xmlns="http://www.w3.org/2000/svg" viewBox="0 0 194.13 194.1">
  <defs>
    <style>
      .cls-1 {
        fill: #fff;
      }
    </style>
  </defs>
  <g id="Layer_1-2" data-name="Layer 1">
    <g>
      <path d="m94.7,146.81h-10.89v5.49l.09-.08h-21.09l.09.08c-.03-1.82-.06-3.65-.1-5.47,3.55,0,7.09,0,10.65,0v-4.57h-10.57v4.65h-10.19v-4.89l-.09.08h5.4v-10.89h4.98v5.3h10.49v-5.36h-5.27v-15.55c1.83,0,3.65,0,5.48,0,0,3.35,0,6.7,0,10.04h5.31c0-3.48,0-6.76,0-10.03,1.55,0,3.11,0,4.64,0v-5.32h-4.64v-5.59h-5.19v-10.13h5v-10.83h-16.03v-15.54h-4.78l.08.08v-5.24h-5.48v5.24l.08-.08h-10.94v-5.31c-1.78,0-3.27,0-4.75,0,.03-1.63.05-3.26.08-4.89l-.08.08h10.01v-10.68h-5.24v5.2h-4.77l.08.08v-5.48h-5.48l.09.08v-5.25h26.2v5.07h-5.05v10.78h5.07v-5.05h10.18v5.06h-5.05v4.83h5.06v16.11h5.44v-10.45h5.46c0-2.07,0-3.83,0-5.59,1.55,0,3.1,0,4.66,0v-4.56h-4.57v4.64h-5.24v-15.61h5.24l-.08-.09v5.48h15.69l-.08-.08c0,1.83,0,3.66,0,5.48l.08-.08h-5.24v4.88h5.24l-.08-.08v5.54h-10.71c0,1.98,0,3.66,0,5.34-1.55,0-3.1,0-4.66,0v5.15h4.57v-5.24c8.83,0,17.65,0,26.48,0,0,1.83,0,3.66,0,5.49-1.72,0-3.45,0-5.41,0v4.81l-4.88-.1.09.09v-4.63h-10.72c-.11,1.65-.21,3.08-.33,4.7h-5.03v10.78h10.67c0,1.99,0,3.67,0,5.35-1.75,0-3.5,0-5.25,0v4.56h5.17v-4.64c7.03,0,14.05,0,21.08,0,0,1.63,0,3.27,0,4.9h-5.24v5.14h5.16c0-1.88,0-3.55,0-5.23,1.83,0,3.66,0,5.5,0v16.39h-5.36c-.08,1.68-.14,3.05-.21,4.72h-5.23c0,2,0,3.69,0,5.37-1.76,0-3.52,0-5.58,0v-5.55h-4.51c-.12-1.64-.22-3.08-.32-4.47h-10.48v15.43h10.69v5.38c-1.76,0-3.53,0-5.49,0v4.8l.08-.09Zm10.19-31.2v5.26h5.16v-5.17h-5.24v-10.62h-4.83v5.21h-10.51v5.32c5.28,0,10.35,0,15.43,0Zm-25.69,15.77v10.51h4.46v-10.51h-4.46Z"/>
      <path d="m152.21,142.02v4.76h26.27v5.4h-5v5.3h15.81v-5.05h-5.02v-5.39h9.84v15.89h-10.1v10.37l.09-.08h-5.58v-10h-5.34v15.38h-10.23v-5.15h-5.08v10.38h15.22c0-1.93,0-3.62,0-5.3,3.67.06,7.34.12,11.01.18l-.08-.08v5.48l.08-.08h-5.48v5.48l.08-.09h-10.66c-.12,1.66-.22,3.1-.33,4.69h-4.5c-.08-1.36-.17-2.81-.28-4.69h-10.7l.09.09v-10.64h-5.34v5.03c-1.63.1-3.07.19-4.82.3v5.1h-5.35v-10.52h5.11c.1-1.95.19-3.59.28-5.42h4.45v-21.14h-4.63l.08.09v-5.33c1.75-.1,3.19-.18,4.71-.26,0-1.74,0-3.22,0-4.7,1.83.03,3.66.05,5.49.08l-.09-.08Zm15.41,25.74v-15.34h-15.18v15.34h15.18Z"/>
      <path d="m136.72,52.58v-10.57h20.8v10.69h5.58l-.08-.09.08,5.49h-10.65v4.87h5.26v5.33c-1.76,0-3.52,0-5.41,0v5.41c-5.23,0-10.46,0-15.69,0v-5.39c-3.83,0-7.31,0-10.8,0,0-1.75,0-3.51,0-5.24h-4.72v5.24c-1.83,0-3.65,0-5.48,0,0-1.76,0-3.52,0-5.4-2.03,0-3.72,0-5.4,0,0-1.55,0-3.11,0-4.64h-5.32v4.64c-3.43-.03-6.86-.06-10.28-.09l.08.08v-4.88l-.08.08h5.48v-5.48l-.08.08h10.04v-5.6h-5.24c0-7.17,0-14.03,0-20.89,1.83.03,3.66.05,5.49.08l-.09-.08v10.65h5.34v-4.97h5.46v15.41l.09-.08h-5.24v5.48h5.24l-.09-.08v5.24h10.1c.09-1.64.18-3.28.28-5.06,1.88-.11,3.64-.21,5.4-.3,0,3.43,0,6.85,0,10.21h9.89v-4.54c-1.6-.09-3.04-.18-4.68-.27,0-1.92,0-3.6,0-5.27,3.34,0,6.69,0,10.05,0v-5.16h-9.97v5.25c-1.79-.04-3.58-.08-5.38-.13Z"/>
      <path d="m16.1,83.9v-10.03h4.63c.08,1.62.16,3.25.24,5.09h5.1c.11,1.62.2,3.06.31,4.7h10.72v-4.64l-.09.08h15.69v-10.88l-.08.08c1.83,0,3.66,0,5.48,0l-.08-.08v26.58h10.08v5.33h-5.19c0,1.8,0,3.29,0,4.77-1.53,0-3.05,0-4.81,0v5.41h-5.4v5.4h-5.54v-5.4h-5.34c0-1.74,0-3.47,0-5.28-1.82,0-3.36,0-4.9,0,.04-1.67.07-3.34.1-5.02h4.94v-5.4c1.98,0,3.65,0,5.33,0,0,1.75,0,3.5,0,5.26h5.16v-5.17h-5.24v-10.63h-5.4v5.18h-9.98v5.5h5.28c0,1.99,0,3.67,0,5.35-1.75,0-3.49,0-5.27,0v4.84h5.16c.03,1.79.07,3.58.1,5.37h-10.95v-5.49h-10.13l.09.08c0-5.23,0-10.46,0-15.68,0,0-.09.08-.09.08h4.64v-5.48h-4.64l.09.08Z"/>
      <path d="m189.41,58.02v4.67c1.65.11,3.1.2,4.69.31v15.92c-1.39.08-2.83.17-4.45.26v4.58c1.41.07,2.78.13,4.38.2v15.94c-1.38.1-2.82.2-4.41.31v4.51c1.36.08,2.81.17,4.45.27v10.52h-4.46v-5.28c-3.87,0-7.43,0-10.99,0,0,0,.08.09.08.09v-10.2c-3.92,0-7.4,0-10.88,0,0-1.75,0-3.51,0-5.24h-4.72v5.24h-5.54v-5.4c-1.98,0-3.66,0-5.34,0,0-3.63,0-7.26,0-10.89,3.56,0,7.13,0,10.8,0,0-1.83,0-3.31,0-4.8,1.63,0,3.26,0,4.89,0v4.64h5.31v-4.64h5.4v-5.4h10.63v-5.31c-3.68,0-7.16,0-10.63,0,.03-1.83.06-3.66.08-5.49l-.08.08h5.48v-4.88l-.08.09c1.83,0,3.65,0,5.48,0l-.09-.09Zm-.06,31.38h-10.51v5.06h10.51v-5.06Z"/>
      <path d="m62.9,163.09c0-1.82,0-3.65,0-5.47l-.09.08h21.09l-.09-.08v5.37h5.28v10.22h-5.04v10.68h15.94v-5.02h4.73c.08,1.63.17,3.27.27,5.11h5.05v5.43h-9.88v4.63h-26.3v-4.46h4.96v-5.43h-10.39v-5.42h5.12v-5.31c1.94-.1,3.58-.19,5.36-.28v-9.85h-5.09c-.1,1.39-.2,2.84-.31,4.42h-5.11v-4.7h-5.58l.09.09Z"/>
      <path d="m194.03,36.63h-36.12V.36h36.12v36.28Zm-5.04-31.2h-25.8v26.09h25.8V5.43Z"/>
      <path d="m.54,157.8h36v36.24H.54v-36.24Zm30.99,5.33H5.54v25.86h25.98v-25.86Z"/>
      <path d="m.57.27h35.87v36.26H.57V.27Zm5,5.07v26.14h25.88V5.34H5.57Z"/>
      <path d="m131.21,20.88c.03-5.22.07-10.45.1-15.67,0,0-.09.09-.09.09h5.33v10.55h10.36v-5.24l-.09.09h5.24v15.38h-5.04v-5.02h-4.92v15.83h-5.3v-5.04h-5.41c-.09,1.65-.18,3.29-.27,5.06h-5.16v-10.7c-5.46,0-10.61,0-15.76,0,0,0,.09.08.09.08v-5.58h5.2v-4.73h-5.2v-5.37l-.08.09h10.73v10.1c3.65,0,7,0,10.34,0,0,1.75,0,3.5,0,5.26h5.16v-5.17h-5.24Z"/>
      <path d="m131.3,157.61h-10.17v5.34h-5.24v10.24h5.06v5.34h10.11v5.37h-15.25v-5.17h-5.44v-10.73h-5.46v-4.99l-.09.08h5.52v-10.95h5.27c0-1.98,0-3.65,0-5.33,1.83,0,3.66,0,5.49,0v5.54h10.11v5.34l.08-.09Z"/>
      <path d="m52.7,142.02h-20.85v4.73h4.96v5.31h-10.45v-15.26h-10.27v-5.59l-.09.08h4.95v-5.49c1.98,0,3.66,0,5.34,0,0,1.76,0,3.52,0,5.4,2.03,0,3.71,0,5.39,0,0,1.75,0,3.5,0,5.25h5.16v-5.17h-5.24c0-1.83,0-3.65.01-5.48,3.43,0,6.86,0,10.29,0v10.93h10.71v5.35l.09-.08Z"/>
      <path d="m73.7,16.09V.07h5.29v10.63h25.9l-.08-.09v5.33c-1.76.1-3.19.18-4.72.26v4.7c-3.62,0-7.25,0-10.87,0,0-1.55,0-3.1,0-4.66h-5.15v4.57h5.24c0,1.83,0,3.65,0,5.48-1.76,0-3.52,0-5.49,0v5.4l.08-.08h-4.88l.08.08v-5.48h-5.48l.08.08v-5.48l-.08.08h5.24v-4.88h-5.24l.09.08Z"/>
      <path d="m63,20.68c-1.66.04-3.32.08-4.98.12l.08.09v-4.64h-5.48v4.64l.08-.09h-10.65v-4.65h4.98v-5.43h-5.01v-5.32h5.16V.01h5.33v10.43h5.43v-4.96h10.11v5.04h-5.13c0,3.55,0,6.9,0,10.25,0,0,.08-.1.08-.1Z"/>
      <path d="m79.1,47.3v-5.49s-.08.08-.08.08h4.88v-10.28l-.08.08c1.83-.03,3.66-.06,5.48-.09,0,1.75,0,3.51,0,5.24h5.32v-5.24h5.4v21.09l.08-.08h-5.48l.08.08v-5.48h-15.69l.08.09Z"/>
      <path d="m26.28,47.2h-15.44v5.33h4.96v5.31H.03v-5.12h5.01v-5.34c-1.61-.08-3.25-.16-5.04-.25v-5.06h26.2v5.21l.09-.09Z"/>
      <path d="m52.6,178.63v5.36h10.08v5.4h-15.27c-.09,1.62-.18,3.06-.27,4.68h-5.12v-26.06h5.11v10.71h5.56l-.09-.09Z"/>
      <path d="m189.5,136.61c-1.82,0-3.65,0-5.47,0l.08.09v-5.55h-5.58v-10.05c-3.77,0-7.24,0-10.71,0,0-1.83,0-3.66,0-5.49h5.4v-5.4c1.83.03,3.66.06,5.48.09,0,0-.08-.09-.08-.09,0,1.68,0,3.36,0,5.35h5.39v10.29h10.11v5.27c-1.42.08-2.86.16-4.72.26v5.32l.09-.09Z"/>
      <path d="m16.1,131.22h-5.37v5.32h-5.32v15.51H.03v-26.09h5.08v-4.85h5.58l-.08-.09v4.95h5.4v5.34l.09-.08Z"/>
      <path d="m10.79,83.69H.09v-20.63h10.4v10.45h-5.04v5.43c1.68.08,3.32.15,5.27.24,0,1.65,0,3.12,0,4.6,0,0,.08-.1.08-.1Z"/>
      <path d="m184.02,136.61v5.24h-16.05v-5.24h-4.95s.08.09.08.09c-.03-1.83-.06-3.66-.09-5.48,1.53,0,3.05,0,4.81,0v-5.41h5.55v10.89h10.73l-.08-.09Z"/>
      <path d="m26.2,47.29c1.83,0,3.67,0,5.5,0,0,0-.09-.08-.09-.08v5.48h5.48s-.08-.08-.08-.08c0,1.83,0,3.66,0,5.48l.08-.08h-5.4c0,1.91,0,3.4,0,4.88-1.76,0-3.52,0-5.49,0v5.4l.08-.09h-5.24v-10.07h5.23c0-3.85,0-7.39,0-10.93,0,0-.09.09-.09.09Z"/>
      <path d="m79.1,41.81h-10.77v5.28h-5.24v-15.39h5.21l-.08-.09v5.24h5.48v-5.24l-.08.08c1.83,0,3.66,0,5.48,0l-.08-.08c0,3.43,0,6.86,0,10.28l.09-.08Z"/>
      <path d="m10.69,121.1v-5.34h-5.39v-5.54l-.09.09h5.33v-5.41c2.04,0,3.79,0,5.55,0,0,0-.09-.08-.09-.08v10.71c1.81.11,3.24.2,4.62.29v5.21h-10.02l.08.09Z"/>
      <path d="m163.02,136.61v5.41c-3.68,0-7.24,0-10.81,0,0,0,.09.08.09.08v-5.4c-2.11,0-3.8,0-5.48,0,0-1.83,0-3.66,0-5.49,3.63,0,7.26,0,10.89,0v5.48h5.4l-.08-.09Z"/>
      <path d="m104.9,10.7v-5.29c-1.62-.09-3.06-.18-4.66-.27V0h15.29v5.13h-5.3c0,2.05,0,3.81,0,5.56,0,0,.08-.09.08-.09-1.83,0-3.66,0-5.48,0l.08.09Z"/>
      <path d="m142.02,152.21v15.45h-5.25v-4.47h-5.47c0-2.06,0-3.82,0-5.58,0,0-.08.09-.08.09h5.55v-5.4h5.34l-.08-.09Z"/>
      <path d="m104.9,163.02h-4.74v-5.29h-5.47c0-3.84,0-7.38,0-10.92,0,0-.08.09-.08.09,1.83-.03,3.66-.06,5.48-.09v5.33c1.75.1,3.19.19,4.72.28v10.69l.09-.08Z"/>
      <path d="m189.42,184.02v5.27c1.65.11,3.09.2,4.69.31v4.43h-15.4v-4.62s-.08.09-.08.09h5.48v-5.48l-.08.08h5.48l-.09-.08Z"/>
      <path d="m58.01,20.8v16.03h-5.32c0-5.33,0-10.68,0-16.03,0,0-.08.09-.08.09h5.48l-.08-.09Z"/>
      <path d="m146.91,10.61h-4.66V.03h9.86v5.1h-5.29c0,2.06,0,3.81,0,5.57,0,0,.09-.09.09-.09Z"/>
      <path d="m184.02,173.3h10.03v10.72h-4.63s.09.08.09.08v-5.48h-5.48l.08.08v-5.48l-.09.08Z"/>
      <path d="m10.6,89.22v5.23H.05v-5.15h10.64l-.09-.09Z"/>
      <path d="m47.11,152.46v10.46h-5.04v-10.46h5.04Z"/>
      <path d="m42.06,26.38h5.04v10.54h-5.04v-10.54Z"/>
      <path d="m5.3,110.22H.06v-9.97h5.16c0,3.36,0,6.71,0,10.05,0,0,.09-.09.09-.09Z"/>
      <path d="m52.69,178.72v-5.25h9.97v5.16c-3.36,0-6.71,0-10.05,0,0,0,.09.09.09.09Z"/>
      <path d="m163.1,52.7v-10.63h4.71v10.63l.09-.08h-4.88l.08.09Z"/>
      <path d="m189.5,58.11c0-3.63.01-7.26.02-10.89l-.09.09h4.64v10.72c-1.55,0-3.1,0-4.65,0,0,0,.09.09.09.09Z"/>
      <path d="m62.82,163.01v4.65h-9.97v-4.56c3.36,0,6.71,0,10.05,0,0,0-.09-.09-.09-.09Z"/>
      <path d="m10.68,89.31c.03-1.87.07-3.74.1-5.62,0,0-.08.1-.08.09,1.8.04,3.59.07,5.39.11,0,0-.09-.08-.09-.08v5.48s.09-.08.09-.08c-1.83,0-3.66,0-5.5,0,0,0,.09.09.09.09Z"/>
      <path d="m131.31,5.21h-5.24V.04h5.15c0,1.76,0,3.5,0,5.25,0,0,.09-.09.09-.09Z"/>
      <path d="m68.3,26.2h-5.31c0-1.88,0-3.7,0-5.52,0,0-.08.1-.08.09,1.8.04,3.59.08,5.38.12l-.08-.09v5.48l.08-.09Z"/>
      <path d="m68.3,31.7c0-1.83,0-3.66,0-5.49,0,0-.08.09-.08.09,1.83,0,3.66,0,5.48,0l-.08-.08v5.48l.08-.08h-5.48l.08.09Z"/>
      <path d="m152.08,37h-4.99v-5.14h4.99v5.14Z"/>
      <path d="m126.03,47.39v-5.39h5v5.31c-1.62,0-3.35,0-5.09,0,0,0,.1.08.1.08Z"/>
      <path d="m173.43,41.99h5.02v5.07h-5.02v-5.07Z"/>
      <path d="m189.52,47.22h-5.24v-5.17h5.15c0,1.76,0,3.5,0,5.25,0,0,.09-.09.09-.09Z"/>
      <path d="m16,146.83v5.22h-5.15v-5.14h5.24l-.09-.09Z"/>
      <path d="m167.82,52.69h5.4v5.4l.09-.08c-1.83.03-3.66.05-5.49.08.03-1.83.06-3.66.09-5.48l-.09.08Z"/>
      <path d="m83.81,152.3h5.24v5.32c-1.73,0-3.49,0-5.24,0,0,0,.09.08.09.08,0-1.83,0-3.66,0-5.48l-.09.08Z"/>
      <path d="m178.71,58.09v-5.24h5.31v5.24s.08-.09.08-.09c-1.83,0-3.66,0-5.48,0l.09.08Z"/>
      <path d="m31.69,73.61h-5.4c0-1.88,0-3.64,0-5.4,0,0-.08.09-.08.09,1.83-.03,3.66-.05,5.49-.08-.03,1.83-.06,3.66-.09,5.48,0,0,.08-.09.08-.09Z"/>
      <path d="m94.87,167.99h5.03v5.03h-5.03v-5.03Z"/>
      <path d="m126.02,168h5.02v5.07h-5.02v-5.07Z"/>
      <path d="m37.1,79.01h-5.41c0-1.88,0-3.65,0-5.41,0,0-.08.09-.08.09h5.4v5.4l.09-.08Z"/>
      <path d="m173.22,58.09c1.83,0,3.66,0,5.49,0,0,0-.09-.08-.09-.08v4.88s.08-.08.08-.08c-1.83.03-3.66.06-5.48.09.03-1.63.05-3.26.08-4.89l-.09.08Z"/>
      <path d="m189.41,136.69h4.64v5.17h-4.56c0-1.75,0-3.5,0-5.25,0,0-.09.09-.09.09Z"/>
      <path d="m152.23,189.41v4.64h-5.17v-4.56c1.75,0,3.5,0,5.25,0,0,0-.09-.09-.09-.09Z"/>
      <path d="m121.01,47.29c1.67.03,3.34.06,5.01.1,0,0-.1-.08-.09-.08,0,1.67,0,3.33,0,5.3-1.83,0-3.37,0-4.92,0,0,0,.09.08.09.08v-5.48l-.09.08Z"/>
      <path d="m62.9,157.62h-4.64v-5.32c1.54,0,3.09,0,4.64,0,0,0-.09-.08-.09-.08,0,1.83,0,3.66,0,5.48l.09-.08Z"/>
      <path d="m68.29,20.9v-4.81c1.88,0,3.64,0,5.41,0,0,0-.09-.08-.09-.08v4.88l.08-.08c-1.83,0-3.66,0-5.48,0l.08.09Z"/>
      <path d="m16.09,146.91v-4.64h4.57v4.56c-1.56,0-3.11,0-4.66,0,0,0,.09.09.09.09Z"/>
      <path class="cls-1" d="m110.3,131.3v-5.37h5.23c.08-1.67.14-3.04.21-4.72h5.36c0-5.67,0-11.03,0-16.39,0,0-.09.08-.09.08,3.43-.03,6.86-.06,10.29-.08,0,1.82,0,3.65,0,5.47-1.75,0-3.5,0-5.25,0v5.15h5.17v-5.24h15.73v5.5h5.35l-.08-.08v5.48l.08-.08h-5.48v4.88l.08-.08h-4.88v5.48l.08-.08h-5.48v10.88l.08-.08h-5.48l.08.08v-5.4c-2.11,0-3.8,0-5.48,0,0-1.83,0-3.67,0-5.5h5.24v-5.14h-5.15c0,1.88,0,3.55,0,5.22-1.53,0-3.05,0-4.81,0v5.41h-5.55v-5.49h-5.34l.09.08Zm31.61-10.36v-5.1h-5.05v5.1h5.05Z"/>
      <path class="cls-1" d="m62.9,104.9v-4.77h5.19v-5.33h-10.08v-26.58h4.78v15.54h16.03v10.83h-5v10.13h5.19v5.59l.09-.08h-5.48v5.48l.08-.09c-1.83,0-3.65,0-5.48,0l.08.09v-10.88h-5.48l.09.08Z"/>
      <path class="cls-1" d="m115.7,100.01c-7.03,0-14.05,0-21.08,0l.08.08v-5.35h-10.67v-10.78h5.03c.11-1.62.21-3.06.33-4.7h10.72c0,1.52,0,3.08,0,4.63-1.75,0-3.5,0-5.25,0v5.15h5.17v-5.24l4.88.1-.08-.09v5.4h5.49v5.55h5.31v5.34l.08-.09Z"/>
      <path class="cls-1" d="m100.1,142.1v-5.38h-10.69v-15.43h10.48c.1,1.39.2,2.83.32,4.47h4.51v5.55c2.06,0,3.82,0,5.58,0,0,0-.09-.08-.09-.08v10.8h-10.2l.09.08Z"/>
      <path class="cls-1" d="m37.01,79.1v-5.4h-5.4l.09-5.48s-.09.08-.09.08h5.48v-5.48l-.08.09h4.75v5.31h10.94v10.88h-15.69Z"/>
      <path class="cls-1" d="m94.61,62.81c3.43.03,6.86.06,10.28.09l-.08-.09v5.48h5.48l-.08-.08v5.48l.08-.09c-8.83,0-17.65,0-26.48,0l.08.08v-5.34h10.71v-5.54Z"/>
      <path class="cls-1" d="m68.21,115.61v15.55h5.27v5.36h-10.49v-5.3c-1.86,0-3.42,0-4.98,0,0,0,.08.09.08.09v-5.31c1.72-.11,3.15-.2,4.56-.29v-4.54c-1.63-.09-3.06-.17-4.56-.26v-5.3l-.08.08c3.43,0,6.86,0,10.28,0l-.08-.09Z"/>
      <path class="cls-1" d="m52.61,142.1v-5.35h-10.71v-10.93l-.09.08h5.48l-.08-.08v5.48h10.88s-.08-.09-.08-.09c0,3.48,0,6.97,0,10.89h-5.4Z"/>
      <path class="cls-1" d="m62.81,157.7c0-1.83,0-3.66,0-5.48,7.03,0,14.06,0,21.09,0,0,1.83,0,3.66,0,5.48-7.03,0-14.06,0-21.09,0Z"/>
      <path class="cls-1" d="m104.89,115.61h-15.43v-5.32h10.51v-5.21h4.83v10.62l.08-.08Z"/>
      <path class="cls-1" d="m37.01,58.09c0-1.83,0-3.66,0-5.48,1.49,0,2.97,0,4.77,0v-5.2h5.24v10.68h-10.01Z"/>
      <path class="cls-1" d="m79.01,47.21h15.69v5.48h-15.69v-5.48Z"/>
      <path class="cls-1" d="m79.01,115.62v10.03h-5.31c0-3.34,0-6.69,0-10.04,0,0-.08.09-.08.09h5.48l-.09-.08Z"/>
      <path class="cls-1" d="m79.2,131.37h4.46v10.51h-4.46v-10.51Z"/>
      <path class="cls-1" d="m62.89,146.91v-4.65h10.57v4.57c-3.56,0-7.11,0-10.65,0,0,0,.08.08.08.08Z"/>
      <path class="cls-1" d="m115.61,104.82v5.23h-5.16v-5.14h5.24l-.08-.08Z"/>
      <path class="cls-1" d="m104.81,115.69h5.24v5.17h-5.16c0-1.76,0-3.51,0-5.26,0,0-.08.08-.08.08Z"/>
      <path class="cls-1" d="m37.09,52.69h-5.48v-5.48h5.48v5.48Z"/>
      <path class="cls-1" d="m94.61,52.61h5.48v5.48h-5.48c0-1.83,0-3.66,0-5.48Z"/>
      <path class="cls-1" d="m58.1,68.3c-1.83,0-3.66,0-5.48,0v-5.24h5.48v5.24Z"/>
      <path class="cls-1" d="m110.3,79.09c0-1.83,0-3.66,0-5.49,0,0-.08.09-.08.09h5.48l-.08-.08v5.4h-5.4l.09.08Z"/>
      <path class="cls-1" d="m94.7,58.01v4.88h-5.24v-4.88h5.24Z"/>
      <path class="cls-1" d="m100.1,146.81l-5.48.09v-4.8c1.96,0,3.73,0,5.49,0,0,0-.09-.08-.09-.08v4.88l.08-.09Z"/>
      <path class="cls-1" d="m79.01,110.3h4.64v5.32c-1.54,0-3.09,0-4.64,0,0,0,.09.08.09.08,0-1.83,0-3.66,0-5.48l-.09.08Z"/>
      <path class="cls-1" d="m31.7,62.89v-4.88h5.4c-.03,1.63-.05,3.26-.08,4.89,0,0,.08-.09.08-.09h-5.48l.09.08Z"/>
      <path class="cls-1" d="m104.9,83.9v-4.81c1.96,0,3.68,0,5.41,0,0,0-.09-.08-.09-.08.03,1.63.06,3.26.08,4.89-1.83-.03-3.66-.06-5.48-.09l.08.09Z"/>
      <path class="cls-1" d="m94.62,100v4.64h-5.17v-4.56c1.75,0,3.5,0,5.25,0,0,0-.08-.08-.08-.08Z"/>
      <path class="cls-1" d="m115.69,104.91c0-1.63,0-3.27,0-4.9,0,0-.08.09-.08.09,1.83-.03,3.66-.06,5.49-.08-.03,1.63-.06,3.26-.09,4.88,0,0,.09-.08.09-.08-1.83,0-3.66,0-5.5,0,0,0,.08.08.08.08Z"/>
      <path class="cls-1" d="m83.82,73.6v5.24h-4.57v-5.15c1.56,0,3.11,0,4.66,0,0,0-.08-.08-.08-.08Z"/>
      <path class="cls-1" d="m79.09,62.9v-4.64h4.57v4.56c-1.56,0-3.11,0-4.66,0,0,0,.08.08.08.08Z"/>
      <path class="cls-1" d="m142.1,152.3h-5.34v5.4h-5.55v-5.34h-10.11v-5.54l-.09.08h4.8v-4.89c1.83.03,3.66.06,5.48.09l-.08-.08v4.64h5.48v-4.64l-.08.08c3.43,0,6.86,0,10.28,0l-.09-.08v4.7c-1.52.08-2.96.16-4.71.26v5.33Z"/>
      <path class="cls-1" d="m167.63,167.75h-15.18v-15.34h15.18v15.34Zm-4.74-4.75v-5.14h-4.99v5.14h4.99Z"/>
      <path class="cls-1" d="m173.1,178.52v5.3h-15.22v-10.38h5.08v5.15c3.54,0,6.88,0,10.24,0,0,0-.1-.08-.1-.08Z"/>
      <path class="cls-1" d="m184.11,173.22v5.48c-3.67-.06-7.33-.12-11.01-.18,0,0,.1.08.09.08,0-5.08,0-10.15,0-15.38h5.34v10h5.58Z"/>
      <path class="cls-1" d="m146.82,136.7h5.48v5.4c-1.83-.03-3.66-.05-5.49-.08,0,0,.09.08.09.08,0-1.83,0-3.66,0-5.48l-.08.09Z"/>
      <path class="cls-1" d="m184.02,178.62h5.48v5.48h-5.48v-5.48Z"/>
      <path class="cls-1" d="m184.11,184.02v5.48h-5.48v-5.48h5.48Z"/>
      <path class="cls-1" d="m100.01,52.69v-21.09h-5.4l.08.09v-5.48h-5.48s.09.08.09.08c0-1.83,0-3.65,0-5.48,0,0-.08.08-.08.08,3.62,0,7.25,0,10.87,0,0,0-.08-.09-.08-.09v5.48h4.88l-.09-.08v20.89h5.24v5.6h-10.04Z"/>
      <path class="cls-1" d="m104.82,10.61c1.83,0,3.66,0,5.48,0v5.37h5.2v4.73h-5.2v5.58c-1.83-.03-3.66-.05-5.49-.08,0,0,.09.08.09.08v-5.48h-4.88s.08.09.08.09c0-1.48,0-2.96,0-4.7,1.53-.08,2.96-.16,4.72-.26v-5.33Z"/>
      <path class="cls-1" d="m125.82,68.3h10.8v5.39l.09-.08h-5.4v5.49h-10.2v-5.49l-.08.08h4.88v-5.48l-.08.09Z"/>
      <path class="cls-1" d="m136.61,73.69c5.23,0,10.46,0,15.69,0l-.08-.09c0,1.83,0,3.66,0,5.48l.08-.08h-5.48v4.88l.08-.08c-1.63.03-3.26.06-4.88.09,0-1.56,0-3.12,0-4.81h-5.41c.03-1.83.06-3.66.09-5.48l-.09.08Z"/>
      <path class="cls-1" d="m157.71,68.29v-5.33h-5.26v-4.87c3.58,0,7.11,0,10.65,0,0,0-.08-.09-.08-.09v10.2h-5.4l.09.08Z"/>
      <path class="cls-1" d="m142.01,52.62v5.27c1.64.1,3.07.18,4.68.27v4.54h-9.89c0-3.36,0-6.78,0-10.21,0,0-.08.09-.08.09,1.8.04,3.59.08,5.38.12l-.08-.08Z"/>
      <path class="cls-1" d="m142.1,52.7v-5.25h9.97v5.16c-3.36,0-6.71,0-10.05,0,0,0,.08.08.08.08Z"/>
      <path class="cls-1" d="m115.62,68.3c1.83,0,3.65,0,5.48,0l-.08-.09v5.48l.08-.08h-5.48l.08.08v-5.48l-.08.09Z"/>
      <path class="cls-1" d="m121.1,47.21v5.48h-5.24v-5.48h5.24Z"/>
      <path class="cls-1" d="m110.22,62.9h5.4c0,1.88,0,3.64,0,5.4,0,0,.08-.09.08-.09-1.83,0-3.66,0-5.48,0l.08.08v-5.48l-.08.09Z"/>
      <path class="cls-1" d="m152.3,73.7v-5.41c1.88,0,3.64,0,5.41,0,0,0-.09-.08-.09-.08v5.4h-5.4l.08.09Z"/>
      <path class="cls-1" d="m104.9,62.9v-4.64h5.32c0,1.54,0,3.09,0,4.64,0,0,.08-.09.08-.09-1.83,0-3.66,0-5.48,0l.08.09Z"/>
      <path class="cls-1" d="m167.9,52.61c-.03,1.83-.06,3.66-.09,5.48,0,0,.09-.08.09-.08-1.63,0-3.26,0-4.88,0,0,0,.08.09.08.09-.03-1.83-.05-3.66-.08-5.49h4.88Z"/>
      <path class="cls-1" d="m121.1,68.3v-5.24h4.72c0,1.73,0,3.49,0,5.24,0,0,.08-.09.08-.09-1.63,0-3.26,0-4.88,0l.08.09Z"/>
      <path class="cls-1" d="m10.61,121.02h10.02v-5.21c-1.38-.09-2.81-.18-4.62-.29v-10.71h10.13v5.49c3.86,0,7.4,0,10.95,0,0,0-.08-.09-.08-.09v5.55h-5.4v5.34l.08-.08h-5.48v4.88l.08-.09h-5.34v5.49h-4.95v-5.34h-5.4v-4.95Z"/>
      <path class="cls-1" d="m47.29,94.61h-5.33v5.4h-4.94l.08.08v-5.35h-5.28v-5.5h9.98v-5.18h5.4v10.63l.08-.08Z"/>
      <path class="cls-1" d="m41.81,110.3h5.34v5.4h5.54l-.08-.09v10.2h-5.4l.08.08v-4.88h-5.48l.08.08c0-3.63,0-7.26,0-10.88l-.08.09Z"/>
      <path class="cls-1" d="m47.2,94.69h5.24v5.17h-5.16c0-1.76,0-3.51,0-5.26,0,0-.08.08-.08.08Z"/>
      <path class="cls-1" d="m52.69,115.7v-5.4h5.4l-.08-.09c0,1.83,0,3.66,0,5.48l.08-.08c-1.83,0-3.66,0-5.48,0l.08.09Z"/>
      <path class="cls-1" d="m36.91,105.02h4.9c0,1.81,0,3.54,0,5.28,0,0,.08-.09.08-.09-1.63,0-3.26,0-4.88,0,0,0,.08.09.08.09-.03-1.79-.07-3.58-.1-5.37,0,0-.08.1-.08.1Z"/>
      <path class="cls-1" d="m58.09,110.3v-5.41c1.76,0,3.28,0,4.81,0,0,0-.09-.08-.09-.08v5.4h-4.8l.08.09Z"/>
      <path class="cls-1" d="m16.01,89.3v-5.48h4.64v5.48h-4.64Z"/>
      <path class="cls-1" d="m37.02,100c-.03,1.67-.07,3.34-.1,5.02,0,0,.08-.09.08-.09-1.66,0-3.33,0-5.16,0v-4.84c1.78,0,3.52,0,5.27,0,0,0-.08-.08-.08-.08Z"/>
      <path class="cls-1" d="m152.22,94.7h5.34v5.4h5.54l-.08-.09v15.68l.08-.08h-10.88l.08.08v-5.58h5.2v-5.33h-5.2v-10.17l-.08.09Z"/>
      <path class="cls-1" d="m152.22,83.81c0,3.63,0,7.26,0,10.89,0,0,.08-.09.08-.09h-10.29c0-2.03,0-3.71,0-5.4,1.56,0,3.12,0,4.89,0v-5.4l-.08.08h5.48l-.09-.08Z"/>
      <path class="cls-1" d="m178.71,110.3c-1.83-.03-3.66-.06-5.48-.09l.08.09v-5.54h-5.4v-4.74l-.08.09h10.88v10.2Z"/>
      <path class="cls-1" d="m178.62,68.3h10.63v5.31h-10.63l.08.09c0-1.83,0-3.66,0-5.48l-.08.09Z"/>
      <path class="cls-1" d="m189.35,89.4v5.06h-10.51v-5.06h10.51Z"/>
      <path class="cls-1" d="m163.02,79.01v4.8c-3.67,0-7.24,0-10.8,0,0,0,.09.08.09.08,0-1.63,0-3.26,0-4.88l-.08.08h10.88l-.09-.08Z"/>
      <path class="cls-1" d="m173.22,62.9c1.83-.03,3.66-.06,5.48-.09-.03,1.83-.06,3.66-.08,5.49,0,0,.08-.09.08-.09h-5.4v-5.4s-.08.09-.08.09Z"/>
      <path class="cls-1" d="m178.62,73.61v5.4h-5.4l.08.09v-5.4h5.4l-.08-.09Z"/>
      <path class="cls-1" d="m178.62,62.89v-4.88c1.83,0,3.66,0,5.48,0v4.88h-5.48Z"/>
      <path class="cls-1" d="m173.22,79.01v4.64h-5.31v-4.64l-.09.08h5.48l-.08-.09Z"/>
      <path class="cls-1" d="m163.1,100.1v-5.24h4.72c0,1.73,0,3.49,0,5.24,0,0,.08-.09.08-.09-1.63,0-3.26,0-4.88,0l.08.09Z"/>
      <path class="cls-1" d="m167.91,79.01c-1.63,0-3.26,0-4.89,0,0,0,.09.08.09.08v-5.24h4.72v5.24l.09-.08Z"/>
      <path class="cls-1" d="m188.99,5.43v26.09h-25.8V5.43h25.8Zm-5.16,5.36h-15.46v15.29h15.46v-15.29Z"/>
      <path class="cls-1" d="m31.53,163.14v25.86H5.54v-25.86h25.98Zm-20.75,20.64h15.35v-15.43h-15.35v15.43Z"/>
      <path class="cls-1" d="m5.57,5.34h25.88v26.14H5.57V5.34Zm5.22,5.39v15.38h15.31v-15.38h-15.31Z"/>
      <path class="cls-1" d="m131.21,20.88h5.24v5.17h-5.16c0-1.76,0-3.51,0-5.26,0,0-.08.08-.08.08Z"/>
      <path class="cls-1" d="m104.82,163.1v-10.69c-1.53-.09-2.96-.17-4.72-.28v-5.33s-.08.09-.08.09c5.23,0,10.46,0,15.68,0l-.09-.08v5.33h-5.27v10.95h-5.52Z"/>
      <path class="cls-1" d="m121.1,146.82c-1.83,0-3.66,0-5.49,0,0,0,.09.08.09.08v-4.89c2.03,0,3.71,0,5.4,0-.03,1.63-.06,3.26-.08,4.89l.09-.08Z"/>
      <path class="cls-1" d="m41.9,125.82c-3.43,0-6.86,0-10.29,0,0,0,.08.09.08.09,0-1.63,0-3.26,0-4.88,0,0-.08.08-.08.08,3.43,0,6.86,0,10.28,0l-.08-.08c0,1.63,0,3.26,0,4.88,0,0,.09-.08.09-.08Z"/>
      <path class="cls-1" d="m31.61,125.81v5.48s.07-.08.07-.08h-5.39c0-1.88,0-3.64,0-5.4,0,0-.08.09-.08.09h5.48l-.08-.09Z"/>
      <path class="cls-1" d="m31.6,131.29h5.24v5.17h-5.16c0-1.76,0-3.51,0-5.25,0,0-.08.08-.08.08Z"/>
      <path class="cls-1" d="m79.01,41.89c0-3.43,0-6.86,0-10.28h4.88v10.28h-4.88Z"/>
      <path class="cls-1" d="m73.61,31.69v-5.48h5.48v5.48c-1.83,0-3.66,0-5.48,0Z"/>
      <path class="cls-1" d="m68.21,20.81c1.83,0,3.66,0,5.48,0v5.48c-1.83,0-3.66,0-5.48,0v-5.48Z"/>
      <path class="cls-1" d="m89.3,31.6c-1.83.03-3.66.06-5.48.09v-5.4c1.97,0,3.73,0,5.49,0,0,0-.09-.08-.09-.08v5.48l.08-.09Z"/>
      <path class="cls-1" d="m89.31,20.81h-5.24v-4.57h5.15c0,1.56,0,3.11,0,4.66,0,0,.08-.08.08-.08Z"/>
      <path class="cls-1" d="m73.61,20.89v-4.88c1.68,0,3.36,0,5.24,0v4.88h-5.24Z"/>
      <path class="cls-1" d="m58.1,20.89h-5.48v-4.64h5.48v4.64Z"/>
      <path class="cls-1" d="m94.62,31.6v5.24h-5.32c0-1.74,0-3.49,0-5.24,0,0-.08.09-.08.09,1.83,0,3.66,0,5.48,0l-.08-.09Z"/>
      <path class="cls-1" d="m184.11,136.7h-10.73v-10.89h-5.55l.08.09v-4.88l-.08.09h10.71v10.05h5.58v5.55Z"/>
      <path class="cls-1" d="m173.22,110.21v5.4h-5.4l.08.09v-5.4h5.4l-.08-.09Z"/>
      <path class="cls-1" d="m167.82,115.61c0,1.83,0,3.66,0,5.49,0,0,.08-.09.08-.09h-4.88l.08.08v-5.48l-.08.08c1.63,0,3.26,0,4.88,0l-.08-.09Z"/>
      <path class="cls-1" d="m163.1,136.7h-5.4v-5.48l-.09.08h5.48s-.09-.08-.09-.08c.03,1.83.06,3.66.09,5.48Z"/>
      <path class="cls-1" d="m167.82,125.81v5.41c-1.76,0-3.28,0-4.81,0,0,0,.09.08.09.08,0-1.83,0-3.66,0-5.48l-.08.08h4.88l-.08-.09Z"/>
      <path class="cls-1" d="m31.7,68.21c-1.83.03-3.66.05-5.49.08v-5.4c1.97,0,3.73,0,5.49,0,0,0-.09-.08-.09-.08,0,1.83,0,3.66,0,5.48,0,0,.09-.08.09-.08Z"/>
      <path class="cls-1" d="m68.21,31.61h5.48v5.24h-5.48v-5.24Z"/>
      <path class="cls-1" d="m157.71,131.22c-3.63,0-7.26,0-10.89,0l.08.09v-5.48l-.08.08h5.48v-4.88l-.08.08h10.88l-.08-.08v4.88l.08-.08h-5.48v5.48s.09-.08.09-.08Z"/>
      <path class="cls-1" d="m146.82,131.21c0,1.83,0,3.66,0,5.49,0,0,.08-.09.08-.09h-4.8v-5.4l-.08.08h4.88l-.08-.09Z"/>
      <path class="cls-1" d="m173.31,58.01c-.03,1.63-.05,3.26-.08,4.89,0,0,.08-.09.08-.09h-5.4v-4.8s-.09.08-.09.08c1.83-.03,3.66-.05,5.49-.08Z"/>
      <path d="m142.01,89.21v5.4h10.29v10.17h5.2v5.33h-5.2v5.58h-5.35v-5.5h-15.73l.09.09c0-1.82,0-3.65,0-5.47,0,0-.09.08-.09.08h15.41v-4.94h-9.78v-10.66h5.25l-.09-.08Z"/>
      <path d="m121.1,142.01h-5.4v4.89c-5.23,0-10.46,0-15.68,0v-4.88h10.2v-10.8h5.34v5.49c2.04,0,3.79,0,5.55,0,0,0-.08-.09-.08-.09v5.48l.08-.09Z"/>
      <path d="m142.1,131.22v5.4h4.8c0,1.83,0,3.66,0,5.48-3.43,0-6.86,0-10.28,0v-10.88h5.48Z"/>
      <path d="m163.1,121.1h-10.88v-5.48h10.88v5.48Z"/>
      <path d="m121.02,104.9c.03-1.63.06-3.26.09-4.88l-.09.08h10.2v4.8s.09-.08.09-.08c-3.43.03-6.86.06-10.29.08Z"/>
      <path d="m131.22,110.2v5.24h-5.17v-5.15c1.76,0,3.5,0,5.25,0,0,0-.09-.09-.09-.09Z"/>
      <path d="m141.91,120.94h-5.05v-5.1h5.05v5.1Z"/>
      <path d="m131.3,142.1c-1.83-.03-3.66-.06-5.48-.09,0,0,.08.09.08.09v-5.48l-.08.09h5.48v5.4Z"/>
      <path d="m125.91,131.29v-5.22h5.15v5.14h-5.24l.09.09Z"/>
      <path d="m125.82,131.21c0,1.83,0,3.67,0,5.5,0,0,.08-.09.08-.09h-4.88s.08.09.08.09v-5.41c1.76,0,3.28,0,4.81,0,0,0-.09-.09-.09-.09Z"/>
      <path d="m136.7,142.02v4.64h-5.48v-4.64h5.48Z"/>
      <path d="m152.3,121.02v4.88h-5.48v-4.88h5.48Z"/>
      <path d="m146.9,131.3h-4.88v-5.48h4.88v5.48Z"/>
      <path d="m58.01,110.22h4.8v-5.4h5.48v10.88c-3.43,0-6.86,0-10.28,0,0-1.83,0-3.66,0-5.48Z"/>
      <path d="m79.1,110.22c0,1.83,0,3.66,0,5.48h-5.48v-5.48h5.48Z"/>
      <path d="m121.11,100.02c-1.83.03-3.66.06-5.49.08v-5.34h-5.31c0-2.04,0-3.79,0-5.55,0,0-.09.08-.09.08h10.8v10.8s.09-.08.09-.08Z"/>
      <path d="m100.02,83.8v5.24h-5.17v-5.15c1.76,0,3.5,0,5.25,0,0,0-.09-.09-.09-.09Z"/>
      <path d="m104.82,83.81c1.83.03,3.66.06,5.48.09,0,0-.08-.09-.08-.09,0,1.83,0,3.66,0,5.48,0,0,.09-.08.09-.08-1.69,0-3.37,0-5.49,0v-5.4Z"/>
      <path d="m31.61,68.3c0-1.83,0-3.66,0-5.48h5.48v5.48h-5.48Z"/>
      <path d="m104.82,62.81c1.83,0,3.66,0,5.48,0v5.48h-5.48v-5.48Z"/>
      <path d="m110.22,68.21c1.83,0,3.66,0,5.48,0v5.48h-5.48v-5.48Z"/>
      <path d="m52.61,115.62c1.83,0,3.66,0,5.48,0v5.3c1.5.08,2.93.16,4.56.26v4.54c-1.4.09-2.83.18-4.56.29v5.31h-10.88v-5.48h5.4v-10.2Z"/>
      <path d="m41.81,125.9c0-1.63,0-3.26,0-4.88h5.48v4.88h-5.48Z"/>
      <path d="m115.62,73.61h5.48v5.49c3.48,0,6.84,0,10.2,0,0,0-.08-.09-.08-.09v10.04h-5.5v-5.24h-15.5s.08.09.08.09c-.03-1.63-.06-3.26-.08-4.89h5.4v-5.4Z"/>
      <path d="m121.02,146.9c.03-1.63.06-3.26.08-4.89,0,0-.08.09-.08.09h4.88s-.08-.09-.08-.09c0,1.49,0,2.97,0,4.89h-4.8Z"/>
      <path d="m162.88,163.01h-4.99v-5.14h4.99v5.14Z"/>
      <path d="m94.7,31.69c-1.83,0-3.66,0-5.48,0v-5.48h5.48v5.48Z"/>
      <path d="m100.01,20.81h4.88v5.48c-1.49,0-2.97,0-4.88,0v-5.48Z"/>
      <path d="m136.7,73.61c-.03,1.83-.06,3.66-.09,5.48l.09-.08c-1.83,0-3.66,0-5.48,0,0,0,.08.09.08.09,0-1.69,0-3.37,0-5.49h5.4Z"/>
      <path d="m121.02,68.21c1.63,0,3.26,0,4.88,0v5.48h-4.88v-5.48Z"/>
      <path d="m167.9,58.01v4.8h5.4v5.4h5.4c0,1.83,0,3.66,0,5.48h-5.4v5.4h-5.48v-5.24h-4.72v5.24h-10.88c0-1.83,0-3.66,0-5.48h5.4v-5.4h5.4v-10.2c1.63,0,3.26,0,4.88,0Z"/>
      <path d="m152.3,79.01c0,1.63,0,3.26,0,4.88h-5.48v-4.88h5.48Z"/>
      <path d="m146.9,83.81v5.4c-1.77,0-3.33,0-4.89,0,0,0,.09.08.09.08v-5.48l-.08.09c1.63-.03,3.26-.06,4.88-.09Z"/>
      <path d="m136.61,79.1h5.41c0,1.69,0,3.25,0,4.81,0,0,.08-.09.08-.09h-5.4v-4.8l-.09.08Z"/>
      <path d="m41.89,121.1c-3.43,0-6.86,0-10.28,0,0-1.68,0-3.36,0-5.34h5.4v-5.55c1.63,0,3.26,0,4.88,0,0,3.63,0,7.26,0,10.88Z"/>
      <path d="m31.69,125.9h-5.48c0-1.49,0-2.97,0-4.88h5.48c0,1.63,0,3.26,0,4.88Z"/>
      <path d="m167.9,115.7c-1.63,0-3.26,0-4.88,0v-15.68c1.63,0,3.26,0,4.88,0v4.74h5.4v5.54h-5.4v5.4Z"/>
      <path d="m183.84,10.8v15.29h-15.46v-15.29h15.46Z"/>
      <path d="m10.78,183.77v-15.43h15.35v15.43h-15.35Z"/>
      <path d="m10.79,10.72h15.31v15.38h-15.31v-15.38Z"/>
      <path d="m163.02,125.9v-4.88h4.88v4.88h-4.88Z"/>
      <path d="m157.62,131.3v-5.48h5.48c0,1.83,0,3.66,0,5.48h-5.48Z"/>
      <path class="cls-1" d="m136.7,79.01v4.8h5.4v5.48h-5.25v10.66h9.78v4.94h-15.41v-4.8h-10.2v-10.8h-10.8c0-1.83,0-3.66,0-5.48h15.5v5.24h5.5v-10.04c1.83,0,3.66,0,5.48,0Z"/>
      <path class="cls-1" d="m125.9,142.1h-4.88v-5.48h4.88v5.48Z"/>
    </g>
  </g>
</svg>