<?xml version="1.0" encoding="UTF-8"?>
<svg id="Layer_2" data-name="Layer 2" xmlns="http://www.w3.org/2000/svg" viewBox="0 0 276.99 277.05">
  <defs>
    <style>
      .cls-1 {
        fill: #fff;
      }
    </style>
  </defs>
  <g id="Layer_1-2" data-name="Layer 1">
    <path d="m82.07,239.95v7.13h7.66v7.96c-4.98,0-9.91,0-14.84,0,0-2.55,0-5.09,0-7.65h-7.55v7.57h7.64v7.17h14.78v7.72h-7.56v7.18h-7.12v-6.83h-7.83v6.75h-7.12v-36.91h6.84v-7.73h-6.86v-15.03h6.87v-22.35c2.86,0,5.42,0,7.97,0,0,2.35,0,4.7,0,7.05h6.95v-6.97h-7.04c.03-7.63.07-15.25.1-22.88l-.09.08h14.82v7.83h-7.41v7.22h7.78v7.55h14.67v-7.76h-7.66v-22.14c2.63,0,5.25,0,7.88,0,0,4.96,0,9.91,0,15.01h15.01c0,2.43,0,4.85,0,7.28-2.55,0-5.11,0-7.63,0v22.52h7.71v-7.64h7.04v-7.17h7.97v7.1h14.7v-7.14h-7.59v-7.76l-.08.08h22.89v-7.28l-.08.08c2.43-.03,4.86-.05,7.29-.08v15.13h-14.82v7.07c7.69,0,15.15,0,22.62,0v7.95h-22.88v7.14l.08-.09h-7.17v-6.99h-7.72v6.83h-7.23v-6.76h-7.72v14.73h7.45v7.12h-29.79v7.76h-7.72v-7.69h-7.38l.08.09c.01-2.39.02-4.79.03-7.18h21.98v-7.7c-7.5,0-14.85,0-22.19,0,.04-2.47.07-4.94.1-7.41h14.84v-7.54h-14.75c0,2.68,0,5.15,0,7.63-2.54,0-5.08,0-7.67,0v7.24h7.56c.08,2.62.15,5.24.22,7.86-5.01,0-10.02,0-14.95,0v14.91h7.03l-.09-.08Z"/>
    <path d="m7.15,179.94H.11v-14.88h14.84v-15.12l-.09.08h7.39v7h14.66v-7.18h-7.11v-22.73h-7.66v-14.97l-.08.08h7.64v-15.09h-7.64l.09.08v-7.15h7.81v-15.13l-.09.09h7.12v14.86h15.16c0,2.63,0,4.98,0,7.33-2.35,0-4.7,0-7.05,0v7.55h6.97v-7.64c10.03.03,20.05.07,30.08.1,0,0-.08-.09-.08-.09v7.96h-7.11c0,5.19,0,10.06,0,14.92-2.6-.04-5.19-.08-7.79-.11v-7.49h-22.1v7.4c7.5,0,14.84,0,22.18,0-.06,5.07-.12,10.14-.18,15.21l.08-.08h-7.37v-7.62h-14.7v7.74h6.99v7.16l.08-.08h-7.04v7.88h7.04l-.08-.08v7.35h-7.12v7.74h-7.88v37.2l.08-.08h-7.28l.08.08v-7.28h-7.88l.08.08c0-2.63,0-5.26,0-7.88l-.08.08h7.63v-22.1h-7.61v7.14H7.07v7.76l.08-.09Z"/>
    <path d="m217.08,202.15v7.78h37.69v7.14h-7.46v7.77h22.4v-7.61h-7.44v-7.02h14.68v21.84h-14.87v15.2l.09-.08h-7.34v-14.73h-7.65c0,7.69,0,15.15,0,22.61-4.95,0-9.91,0-15.17,0v-7.69h-6.9v14.65h21.99v-7.05c5.03.03,10.05.06,15.08.09l-.08-.08v7.28l.08-.08h-7.28v7.88l.08-.09h-14.97v7.08h-7.73v-7.09h-15.18l.09.09v-14.83h-7.14v6.85h-7.83v7.78h-7.04v-14.72h6.92v-7.83h7.62v-30.13h-7.62l.08.09v-7.35h7.71v-7.74c2.43.03,4.86.05,7.29.08l-.09-.08Zm.2,15.17v22.5h22.45v-22.5h-22.45Z"/>
    <path d="m149.89,37.23c2.42,0,4.85,0,7.27,0,0,0-.08-.09-.08-.09v15.09h7.88l-.08-.08v7.88h7.28l-.09-.08v7.15h-6.98v7.85c10.01,0,19.93,0,29.86,0,0,4.96,0,9.91,0,14.82h14.81v-7.63h-7.69c0-2.61,0-4.89,0-7.17,4.94,0,9.88,0,14.85,0v-7.56h-14.77v7.64c-2.43,0-4.86-.01-7.29-.02v-14.82h29.94v14.84h7.35l-.08-.09c.03,2.43.05,4.86.08,7.29h-14.85v7.86h7.66c0,2.58,0,4.86,0,7.13-2.56,0-5.11,0-7.81,0v7.81c-7.43,0-14.85,0-22.28,0,0-2.55,0-5.09,0-7.65h-7.55v7.57h7.64c0,2.43,0,4.85-.01,7.28-7.63,0-15.25,0-22.88,0v-7.37h7.91v-14.9h6.93v-7.57h-29.76c0,5.08,0,9.96,0,14.83-2.43-.03-4.86-.05-7.29-.08,0,0,.09.08.09.08v-15.1h-7.88l.09.09v-7.13h-7.2v-7.94l-.09.09h14.95v7.58h7.04v-14.72h-6.9v-22.95s-.09.09-.09.09Z"/>
    <path d="m262.09,82.23c2.59-.04,5.18-.07,7.77-.1,0,0-.1-.08-.1-.08v7.78h7.16v22.31h-6.84v7.72h6.85v22.21h-6.76v7.82h6.78v14.95h-6.89v-7.7h-15.17l.08.09v-15c-5.32,0-10.2,0-15.08,0v-7.04h-7.72v7.04h-7.35v-7.2c-2.79,0-5.26,0-7.73,0,0-5.03,0-10.06,0-15.09,4.96,0,9.91,0,15,0,0-2.83,0-5.32,0-7.8,2.63,0,5.26,0,7.89,0v7.63h7.11v-7.64h7.8v-7.2h14.83v-7.71c-5.08,0-9.96,0-14.83,0,.03-2.43.05-4.86.08-7.29l-.08.08h7.28v-7.88l-.08.09Zm-6.99,45.1v7.47h14.61v-7.47h-14.61Z"/>
    <path d="m59.88,75.03h7.16v6.98h15.01v-6.82h44.85v14.74h-7.02l.08.09v-7.63h-7.88v7.63s.08-.08.08-.08c-2.39-.01-4.79-.02-7.18-.03v-7.49h-14.91v7.4c5.1,0,10.04,0,14.98,0-.07,2.44-.14,4.87-.21,7.3h-7.49v7.71h7.4c0-2.7,0-5.24,0-7.79,2.47.06,4.94.12,7.41.18l-.08-.08v7.63h7.88v-7.63l-.08.09h7.15v7.71h7.8v7.09h7.19v15.19h7.95l-.08-.09v7.88l.08-.08h-15.14v-15.01h-7.74l.09.09v-7.62h-30.12v7.41h-7.21v-22.67h-7.76s.08.09.08.09c0-2.28,0-4.56,0-7.15h-22.19v-15.14l-.09.09Z"/>
    <path d="m149.96,127.23c0-7.43,0-14.86,0-22.29l-.09.08,7.29-.08v15h7.8v14.98c2.55,0,4.81,0,7.08,0,0,0-.1-.08-.1-.08v22.3h8.01c0,2.63,0,5.25,0,7.88h-7.81v7.21h-7.28v7.8l.08-.08h-22.89v7.28l.08-.08h-7.01v-15.07h7.04v-6.86h7.83v6.77h7.05c0-5.08,0-9.96,0-14.84,2.55,0,5.09,0,7.65,0v-6.95h-7.57v7.04h-7.36v-7.33h-7.5v-7.81h7.67v-7.16l-.08.08h7.04v-7.88h-7.04l.08.09Z"/>
    <path d="m.08,0h51.82v51.96H.08V0Zm7.26,44.43h37.29V7.36H7.34v37.07Z"/>
    <path d="m225,51.97V.1h51.95v51.87h-51.95Zm44.67-44.63h-37.23v37.13h37.23V7.34Z"/>
    <path d="m0,277v-51.86h51.87v51.86H0Zm7.34-7.34h37.23v-37.13H7.34v37.13Z"/>
    <path d="m149.97,255.04v-14.96h-7.67v-14.94h7.52v6.88h14.96v-6.89h-7.61v-7.98s-.08.09-.08.09h30v7.8l.08-.09h-14.96v14.92h-14.84v7.23h14.72v7.82h14.82v7.23h-29.82l.08.09v-7.28h-7.28l.09.08Z"/>
    <path d="m120.09,22.32v-7.18h-7.75v-7.91h22.62l-.09-.09v7.64h15.03V.12h22v14.9c-2.3,0-4.65,0-7,0,0-2.55,0-5.09,0-7.65h-7.55v7.57h7.64v7.3c-15.15,0-30.06,0-44.98,0,0,0,.1.08.1.08Z"/>
    <path d="m89.96,29.93h-7.88s.08.09.08.09v-7.63h-7.28v7.63l.08-.09h-14.84v-7.65h6.77v-7.24h-6.81v-7.73h6.97V.14h7.73v14.64h7.23v-7.37h22.86c0,4.9,0,9.85,0,14.81,0,0,.09-.08.09-.08-2.55,0-5.09,0-7.94,0v-6.93h-7.14v14.82l.08-.09Z"/>
    <path d="m74.96,172.15c-2.63,0-5.26,0-7.89,0l.08.09v-7.2h-7.29v-7.94h7.02v-7.14h-14.82l.08.08v-7.88l-.08.08h15.09v-7.28l-.08.08c2.63-.03,5.26-.06,7.88-.09,0,2.35,0,4.7,0,7.04h7.12v-7.04h14.85v7.36h-6.96v7.73c-2.56,0-5.12,0-7.81,0v7.21h-7.28v15l.09-.08Z"/>
    <path d="m187.17,45.01v-7.77h7.59v-7.13h-7.59V7.14l-.09.09h7.72v14.75h15.17v-7.04l-.09.09h7.04v21.98h-6.84v-6.82h-7.92v21.83h-7.11v-7.09h-7.98l.09.09Z"/>
    <path d="m14.95,134.94h-7.76v-7.73H.05v-7.11h6.87v-7.82H.14v-7.22h6.94v-14.94h7.7v7.09c2.66,0,5.02,0,7.37,0,0,0-.09-.08-.09-.08v15.09l.08-.08h-7.28v22.89l.08-.09Z"/>
    <path d="m254.89,157.14v7.75h7.19v15.08h14.91v7.09h-7.11v7.96l.09-.09c-2.62,0-5.25,0-7.87,0l.08.09v-7.95h-7.38v-14.85c-5.17,0-10.03,0-14.9,0,0-2.43,0-4.86,0-7.29h7.2v-7.8c2.63.03,5.26.06,7.88.09l-.08-.09Z"/>
    <path d="m134.97,67.14h-30.12c0-2.41,0-4.75,0-7.09,0,0-.08.1-.08.1h14.98v-14.95h7.33v6.84h7.72v-6.87h7.16v14.68h-7.08c0,2.67,0,5.03,0,7.39,0,0,.09-.09.09-.09Z"/>
    <path d="m52.06,209.95v7.05H15.08v-6.86h7.08v-7.99l-.09.08h7.88l-.08-.08v7.63h7.28v-7.63l-.08.08c2.63,0,5.26,0,7.88,0l-.08-.08v7.88h7.28l-.09-.08Z"/>
    <path d="m14.95,194.94h-7.76v22.07H.05v-29.69h7.1c0-2.67,0-5.02,0-7.38,0,0-.08.09-.08.09h15v7.2l.08-.08h-7.28v7.88l.08-.09Z"/>
    <path d="m119.88,247.24h7.14v7.8h7.95l-.08-.09v7.28l.08-.09h-37.64v-7.04h7.45v-7.87h7.39l-.08-.09v7.63h7.88v-7.63l-.08.09Z"/>
    <path d="m119.95,29.93h-7.73v22.21h-7.34l.08.09v-7.28h-7.88l.09.08v-7.88l-.09.08h7.88v-15.09s-.09.08-.09.08c5.07.03,10.14.06,15.21.1,0,0-.1-.08-.09-.08-.04,2.6-.08,5.19-.13,7.78l.09-.09Z"/>
    <path d="m29.96,74.95h-7.78v-7.66H.14v-7.11h36.8v6.86h-7.07c0,2.87,0,5.43,0,7.99,0,0,.09-.09.09-.09Z"/>
    <path d="m59.97,74.95c-2.63,0-5.26-.01-7.89-.02,0,0,.09.09.09.09v-7.76h-7.08v-7.03h36.79v6.85h-21.99c0,2.85,0,5.4,0,7.96,0,0,.09-.09.09-.09Z"/>
    <path d="m262.09,194.94v7.04h-22.05v-7.04h-7.95l.08.09c-.03-2.63-.05-5.26-.08-7.89h7.8v-7.2h7.36v15.09h14.93l-.08-.09Z"/>
    <path d="m59.87,187.15v22.8c-2.69,0-5.24,0-7.8,0,0,0,.09.08.09.08v-7.88h-7.28l.08.08v-7.35h7.21v-7.73l-.09.09c2.63,0,5.25,0,7.88,0l-.09-.08Z"/>
    <path d="m232.09,194.94v7.21c-5.09,0-10.05,0-15.01,0,0,0,.09.08.09.08v-7.2c-2.72,0-5,0-7.28,0,0-2.63,0-5.26,0-7.89,5.03,0,10.06,0,15.09,0v7.88h7.2l-.08-.09Z"/>
    <path d="m269.88,262.16v7.77h7.09v7.04h-22v-7.02s-.08.09-.08.09h7.28v-7.88l-.08.08h7.88l-.09-.08Z"/>
    <path d="m104.88,52.13c-.03,2.67-.06,5.34-.1,8.01,0,0,.08-.1.08-.09-2.47,0-4.94,0-7.62,0v6.88h-7.11v-21.92c2.33,0,4.68,0,7.04,0,0,0-.09-.08-.09-.08v7.28h7.88l-.08-.09Z"/>
    <path d="m202.08,217.15v22.65h-7.05v-7.46h-7.87v-7.39s-.08.09-.08.09h7.95v-7.8h7.14l-.08-.09Z"/>
    <path d="m262.08,247.24h14.83v14.92h-7.03s.09.08.09.08v-7.28h-7.88l.08.08v-7.88l-.09.08Z"/>
    <path d="m209.98,14.94h-7.65V.15h14.64v6.89h-7.08c0,2.86,0,5.42,0,7.98,0,0,.09-.09.09-.09Z"/>
    <path d="m126.94,277.05h-21.8v-6.86h21.8v6.86Z"/>
    <path d="m82.07,29.93v22.03h-7.12c0-7.34,0-14.69,0-22.03,0,0-.08.09-.08.09h7.28l-.08-.09Z"/>
    <path d="m232.17,75.03v-14.83h7.71v14.83l.09-.08h-7.88l.08.09Z"/>
    <path d="m14.96,149.95H.12v-7.71h14.83l-.08-.09c0,2.63,0,5.26,0,7.88l.09-.08Z"/>
    <path d="m157.08,262.15v14.83h-7.11c0-4.93,0-9.88,0-14.83l-.09.08c2.43,0,4.86,0,7.28,0l-.08-.09Z"/>
    <path d="m142.07,262.16v14.83h-7.11c0-4.94,0-9.89,0-14.83,0,0-.08.09-.08.09h7.28l-.09-.08Z"/>
    <path d="m149.97,37.14h-14.83v-6.97h14.74c0,2.35,0,4.7,0,7.05,0,0,.09-.09.09-.09Z"/>
    <path d="m60.12,37.31h6.84v14.62h-6.84v-14.62Z"/>
    <path d="m164.88,37.22c2.43,0,4.85,0,7.28,0l-.09-.09c0,5.02,0,10.05,0,15.07,0,0,.09-.08.09-.08h-7.28s.08.08.08.08v-15.09l-.08.09Z"/>
    <path d="m269.9,67.23h7.04v14.82c-2.44,0-4.8,0-7.17,0,0,0,.1.08.09.08.04-5,.08-9.99.13-14.98l-.09.09Z"/>
    <path d="m14.75,82.05H.12v-6.89h14.63v6.89Z"/>
    <path d="m67.07,172.14v15.01h-7.21s.09.08.09.08c-.03-5.03-.06-10.06-.09-15.08,2.43.03,4.86.05,7.29.08l-.08-.09Z"/>
    <path d="m179.75,52.04v7.9c-2.61,0-5.15,0-7.68,0,0,0,.09.08.09.08v-7.88s-.09.08-.09.08c2.59-.03,5.18-.07,7.78-.1,0,0-.1-.08-.1-.08Z"/>
    <path d="m149.97,104.94h-7.64v-7.72c2.54,0,5.09,0,7.64,0,0,0-.09-.08-.09-.08v7.88l.09-.08Z"/>
    <path d="m247.09,82.23c2.63,0,5.25,0,7.88,0l-.08-.09v7.88l.08-.08c-2.63.03-5.26.06-7.88.09.03-2.63.05-5.26.08-7.89l-.08.09Z"/>
    <path d="m89.87,232.15v7.81c-2.69,0-5.25,0-7.81,0,0,0,.09.08.09.08v-7.8h7.8l-.08-.09Z"/>
    <path d="m157.16,37.22v-7.04h7.72c0,2.34,0,4.69,0,7.04,0,0,.08-.09.08-.09-2.63,0-5.26,0-7.88,0l.08.09Z"/>
    <path d="m172.16,37.23v-7.04h7.57v6.95c-2.56,0-5.1,0-7.65,0,0,0,.09.09.09.09Z"/>
    <path d="m119.88,89.94c0,2.43,0,4.86,0,7.29,0,0,.08-.09.08-.09h-7.88l.08.08v-7.28l-.08.08h7.88l-.08-.09Z"/>
    <path d="m142.08,82.13v7.63h-6.97v-7.55c2.36,0,4.7,0,7.05,0,0,0-.09-.09-.09-.09Z"/>
    <path d="m112.16,247.24v-7.04h7.72c0,2.34,0,4.69,0,7.04,0,0,.08-.09.08-.09h-7.88l.08.09Z"/>
    <path d="m269.98,67.14h-7.63v-6.97h7.55c0,2.36,0,4.7,0,7.05,0,0,.09-.09.09-.09Z"/>
    <path d="m134.96,255.04v-7.64h7.11v7.63l.09-.08h-7.28l.08.09Z"/>
    <path d="m254.87,60.17v6.77h-7.52v-6.77h7.52Z"/>
    <path d="m142.07,255.04h7.89s-.09-.08-.09-.08c0,2.43,0,4.86,0,7.28l.09-.08c-2.63,0-5.26,0-7.89,0,0,0,.09.08.09.08v-7.28l-.09.08Z"/>
    <path d="m254.97,82.23v-7.04h7.12c0,2.34,0,4.69,0,7.04,0,0,.08-.09.08-.09h-7.28l.08.09Z"/>
    <path d="m239.88,75.02h7.21c0,2.49,0,4.85,0,7.21,0,0,.08-.09.08-.09l-7.29.08c.03-2.43.06-4.86.09-7.28l-.09.08Z"/>
    <path d="m269.88,195.03h7.04v6.97h-6.95c0-2.36,0-4.7,0-7.05,0,0-.09.09-.09.09Z"/>
    <path d="m134.95,7.23V.19h6.97v6.95c-2.36,0-4.7,0-7.05,0,0,0,.09.09.09.09Z"/>
    <path d="m180.04,246.97v-6.8h6.94v6.8h-6.94Z"/>
    <path d="m119.86,30.01h7.04v6.97h-6.95c0-2.36,0-4.7,0-7.05,0,0-.09.09-.09.09Z"/>
    <path d="m22.16,202.15h-7.21c0-2.49,0-4.85,0-7.21,0,0-.08.09-.08.09h7.28l-.08-.08v7.28l.09-.08Z"/>
    <path d="m97.16,37.14h-7.21c0-2.49,0-4.85,0-7.21,0,0-.08.09-.08.09h7.2v7.2l.09-.08Z"/>
    <path d="m187.18,7.14h-7.04V.17h6.95c0,2.36,0,4.7,0,7.05,0,0,.09-.09.09-.09Z"/>
    <path d="m14.95,142.23c0-2.43,0-4.86,0-7.29,0,0-.08.09-.08.09h7.03v7.12h-7.03l.08.09Z"/>
    <path d="m217.01,45.21v6.8h-6.94v-6.8h6.94Z"/>
    <path d="m187.09,44.93v7.12c-2.49,0-4.91,0-7.33,0,0,0,.1.08.09.08,0-2.27,0-4.53,0-7.11,2.63,0,4.98,0,7.33,0,0,0-.09-.09-.09-.09Z"/>
    <path d="m164.98,277.02v-6.78h6.94v6.78h-6.94Z"/>
    <path d="m217.09,269.94v7.04h-6.97v-6.95c2.36,0,4.7,0,7.05,0,0,0-.09-.09-.09-.09Z"/>
    <path d="m52.08,74.93v7.04h-6.97v-6.95c2.36,0,4.7,0,7.05,0,0,0-.09-.09-.09-.09Z"/>
    <path class="cls-1" d="m89.96,150.03v-7.73h6.96v-7.36h-14.85l.08.09v-15.08h-7.28l.09.08v-14.92h7.11v-7.96h7.76v22.67h7.21v-7.41h30.12c0,2.51,0,5.06,0,7.62-7.34,0-14.68,0-22.05,0v6.96h21.97v-7.05h7.74v15.01h15.14v7.16h-7.67v7.81h7.5v7.33h7.36l-.08-.08v14.84h-7.05v-6.77h-7.83v6.86h-7.04v15.07h7.01v7.76h7.59v7.14h-14.7v-7.1h-7.97l.08.09v-7.88h-7.28l.09.08v-7.28l-.09.08h7.03v-7.88h-7.03l.08.08v-7.39h7v-22.72h-7.18v-6.97h-14.66v14.98h6.84v7.13h-7.08v7.77l.08-.09c-2.63,0-5.25,0-7.88,0l.08.09v-15.08h-7.28l.09.08Z"/>
    <path class="cls-1" d="m179.97,165.03v-7.88s-.09.08-.09.08h30.13v7.8h7.16l-.08-.08v7.28l.08-.08h-7.28v7.88l.08-.08h-7.88v7.28l.08-.08h-7.28v15.08l.08-.08h-7.88l.08.08v-7.03h-7.28v7.03l.08-.09h-22.62v-7.07h14.82c0-5.24,0-10.19,0-15.13l-.09.08h7.88v-7.88l-.08.08h7.03v-7.28h-7.03l.09.08Zm15.08,6.94h6.83v-6.82h-6.83v6.82Z"/>
    <path class="cls-1" d="m202.17,217.24h-7.14v7.8h-7.95v-7.8h-30v-7.14h22.88v-7.95s-.08.09-.08.09h7.28l-.08-.08v7.63h7.88v-7.63l-.08.08h15.08l-.09-.08v7.74h-7.71v7.35Z"/>
    <path class="cls-1" d="m74.87,172.23v-15h7.28l-.08-.09v7.88h15.08l-.08-.09c0,7.27,0,14.54,0,22.14h7.66v7.76h-14.67v-7.55h-7.78v-7.22h7.41v-7.83h-14.82Z"/>
    <path class="cls-1" d="m127.08,194.95v7.17h-7.04v7.64h-7.71v-22.52c2.53,0,5.08,0,7.63,0,0,0-.09-.08-.09-.08v7.88h7.28l-.08-.09Z"/>
    <path class="cls-1" d="m90.08,225.13c-.08-2.62-.15-5.24-.22-7.87,0,0-.08.1-.08.1h22.2v7.7c-7.31,0-14.65,0-21.98,0,0,0,.1.08.1.08Z"/>
    <path class="cls-1" d="m119.96,179.95h-15.01c0-5.09,0-10.05,0-15.01,0,0-.08.09-.08.09h7.35v7.2h7.74l-.08-.08v7.88l.09-.08Z"/>
    <path class="cls-1" d="m142.08,187.23v-7.28h22.89v7.28h-22.89Z"/>
    <path class="cls-1" d="m89.96,232.24h-7.8v7.8h-7.03v-14.91c4.93,0,9.94,0,14.95,0,0,0-.09-.08-.09-.08,0,2.4-.02,4.79-.03,7.19Z"/>
    <path class="cls-1" d="m89.96,210.03v-7.63h14.75v7.54h-14.84l.08.08Z"/>
    <path class="cls-1" d="m74.97,254.96h-7.64v-7.57h7.55c0,2.56,0,5.11,0,7.65,0,0,.08-.08.08-.08Z"/>
    <path class="cls-1" d="m164.88,180.03v-7.8h7.28l-.08-.09v7.88l.09-.08c-2.43.03-4.86.05-7.29.08Z"/>
    <path class="cls-1" d="m89.88,209.94c-.03,2.47-.07,4.94-.1,7.41,0,0,.08-.1.08-.09-2.46,0-4.92,0-7.56,0v-7.24c2.58,0,5.12,0,7.67,0,0,0-.08-.08-.08-.08Z"/>
    <path class="cls-1" d="m74.86,195.03h7.04v6.97h-6.95c0-2.36,0-4.71,0-7.05,0,0-.08.08-.08.08Z"/>
    <path class="cls-1" d="m59.87,172.15c.03,5.03.06,10.06.09,15.08-2.63,0-5.25,0-7.88,0,0-2.35,0-4.69,0-7.05h-6.95v6.97h7.04v7.73h-7.21v7.35c-2.63,0-5.26,0-7.88,0v-37.2c2.77,0,5.33,0,7.88,0,0,0-.08-.09-.08-.09v7.28h15.08l-.09-.08Z"/>
    <path class="cls-1" d="m14.87,142.14h7.03v-7.12h-7.03v-22.89h7.28v14.97h7.66v22.73h7.11v7.18h-14.66v-7h-7.39c0-2.63,0-5.26,0-7.88Z"/>
    <path class="cls-1" d="m22.07,187.23v-7.2H7.07c0-2.48,0-4.96,0-7.76h15.02v-7.14h7.61v22.1h-7.63Z"/>
    <path class="cls-1" d="m67.15,134.94v7.28h-15.09v-7.16h-6.99v-7.74h14.7v7.62h7.37Z"/>
    <path class="cls-1" d="m52.07,149.95h14.82v7.14h-7.02c0,2.85,0,5.39,0,7.94,0,0,.09-.08.09-.08h-15.08s.08.09.08.09c0-2.48,0-4.95,0-7.74h7.12v-7.35Z"/>
    <path class="cls-1" d="m67.25,119.82h-22.18v-7.4h22.1c0,2.41,0,4.95,0,7.49,0,0,.08-.1.08-.1Z"/>
    <path class="cls-1" d="m22.07,112.23v-15.09h7.64v15.09h-7.64Z"/>
    <path class="cls-1" d="m74.95,134.94c-2.63.03-5.26.06-7.88.09.06-5.07.12-10.13.18-15.21,0,0-.08.09-.08.09,2.6.03,5.19.07,7.79.11,0,0-.09-.08-.09-.08v15.08l.08-.09Z"/>
    <path class="cls-1" d="m52.15,142.14v7.88h-7.04v-7.88h7.04Z"/>
    <path class="cls-1" d="m52.08,97.13v7.64h-6.97v-7.55c2.36,0,4.71,0,7.05,0,0,0-.08-.08-.08-.08Z"/>
    <path class="cls-1" d="m22.15,195.03h-7.28v-7.88h7.28c0,2.63,0,5.26,0,7.88Z"/>
    <path class="cls-1" d="m22.07,202.23v-7.28h7.88v7.28h-7.88Z"/>
    <path class="cls-1" d="m37.15,202.15v7.63h-7.28v-7.63h7.28Z"/>
    <path class="cls-1" d="m217.28,217.32h22.45v22.5h-22.45v-22.5Zm14.69,14.74v-6.88h-6.83v6.88h6.83Z"/>
    <path class="cls-1" d="m262.17,247.15v7.88c-5.03-.03-10.05-.06-15.08-.09l.08.08v-22.61h7.65v14.73h7.34Z"/>
    <path class="cls-1" d="m247.09,254.95v7.05h-21.99v-14.65h6.9v7.69c5.27,0,10.22,0,15.17,0,0,0-.08-.08-.08-.08Z"/>
    <path class="cls-1" d="m262.09,254.95h7.88v7.28h-7.88v-7.28Z"/>
    <path class="cls-1" d="m262.17,262.16v7.88h-7.28v-7.88h7.28Z"/>
    <path class="cls-1" d="m209.88,195.04h7.28v7.2c-2.43-.03-4.86-.05-7.29-.08l.09.08v-7.28l-.08.09Z"/>
    <path class="cls-1" d="m172.05,134.93h-7.08v-14.98l-.09.08h7.28v-7.88l-.08.09c7.63,0,15.25,0,22.88,0,0,0-.08-.09-.08-.09v7.88h7.28l-.08-.08v7.28l.08-.08h-7.01v15.13h14.59v7.81h-29.86v7.15s.09-.08.09-.08h-8.01c0-7.5,0-14.9,0-22.3,2.67.03,5.33.06,8,.09,0,2.35,0,4.69,0,7.05h6.95v-6.97h-7.04c0-2.62,0-5.25,0-7.87,2.35,0,4.69,0,7.05,0v-6.95h-6.97v7.04h-7.91v7.69Z"/>
    <path class="cls-1" d="m164.97,119.94h-7.8v-15s-.09.08-.09.08h7.63v-7.88h-7.63l.09.08v-14.83h29.76v7.57h-6.93v14.9h-7.91v7.37s.08-.09.08-.09h-7.28v7.88l.09-.08Z"/>
    <path class="cls-1" d="m194.89,105.03c7.43,0,14.85,0,22.28,0l-.08-.09v7.28l.08-.08h-7.28v7.88l.08-.08h-7.88s.08.08.08.08v-7.88h-7.28s.08.09.08.09c0-2.43,0-4.85.01-7.28l-.08.08Z"/>
    <path class="cls-1" d="m194.87,75.02c2.43,0,4.86.01,7.29.02,0,0-.08-.08-.08-.08v7.17h7.69v7.63h-14.81c0-4.91,0-9.87,0-14.82,0,0-.08.08-.08.08Z"/>
    <path class="cls-1" d="m224.97,97.22v-7.13h-7.66v-7.86c4.98,0,9.92,0,14.85,0,0,0-.08-.09-.08-.09v15h-7.2l.09.08Z"/>
    <path class="cls-1" d="m202.16,75.03v-7.64h14.77v7.56c-4.97,0-9.91,0-14.85,0,0,0,.08.08.08.08Z"/>
    <path class="cls-1" d="m157.08,37.14c2.63,0,5.26,0,7.88,0v15.09c-2.48,0-4.97,0-7.88,0v-15.09Z"/>
    <path class="cls-1" d="m194.98,104.95h-7.64v-7.57h7.55c0,2.56,0,5.11,0,7.65,0,0,.08-.08.08-.08Z"/>
    <path class="cls-1" d="m217.17,105.03v-7.81c2.69,0,5.25,0,7.81,0,0,0-.09-.08-.09-.08v7.8h-7.8l.08.09Z"/>
    <path class="cls-1" d="m149.88,105.03v-7.88c2.43.03,4.86.05,7.29.08,0,0-.09-.08-.09-.08v7.88s.09-.08.09-.08c-2.43.03-4.86.05-7.29.08Z"/>
    <path class="cls-1" d="m239.97,74.94c-.03,2.43-.06,4.86-.09,7.28l.09-.08c-2.63,0-5.26,0-7.88,0,0,0,.08.09.08.09-.03-2.43-.05-4.86-.08-7.29h7.88Z"/>
    <path class="cls-1" d="m172.16,52.14v7.88h-7.28v-7.88h7.28Z"/>
    <path class="cls-1" d="m217.09,135.03h7.73v7.2h7.35l-.08-.09v22.89l.08-.08h-15.08l.08.08v-7.99h7.59v-7.13h-7.59v-14.97l-.08.09Z"/>
    <path class="cls-1" d="m254.97,157.23c-2.63-.03-5.26-.06-7.88-.09l.08.09v-7.35h-7.2v-7.74l-.08.09h15.08v15Z"/>
    <path class="cls-1" d="m217.08,119.94c0,5.03,0,10.06,0,15.09,0,0,.08-.09.08-.09h-15v-7.8l-.08.08h7.88v-7.28l-.08.08h7.28l-.09-.08Z"/>
    <path class="cls-1" d="m254.89,97.23h14.83v7.71h-14.83l.08.09v-7.88l-.08.09Z"/>
    <path class="cls-1" d="m232.08,112.14v7.8c-5.09,0-10.04,0-15,0,0,0,.09.08.09.08,0-2.63,0-5.26,0-7.88l-.08.08h15.08l-.09-.08Z"/>
    <path class="cls-1" d="m255.1,127.33h14.61v7.47h-14.61v-7.47Z"/>
    <path class="cls-1" d="m254.89,104.94v7.2h-7.8l.08.09v-7.2h7.8l-.08-.09Z"/>
    <path class="cls-1" d="m232.17,142.23v-7.04h7.72v7.04s.08-.09.08-.09c-2.63,0-5.26,0-7.88,0l.08.09Z"/>
    <path class="cls-1" d="m247.09,112.14v7.64h-7.11v-7.63l-.09.08h7.28l-.08-.09Z"/>
    <path class="cls-1" d="m239.97,112.14c-2.63,0-5.26,0-7.89,0,0,0,.09.08.09.08v-7.04h7.72v7.04l.09-.08Z"/>
    <path class="cls-1" d="m247.09,90.03c2.63-.03,5.26-.06,7.88-.09-.03,2.43-.05,4.86-.08,7.29,0,0,.08-.09.08-.09h-7.8v-7.2l-.08.09Z"/>
    <path class="cls-1" d="m254.89,82.14h7.28v7.88h-7.28v-7.88Z"/>
    <path class="cls-1" d="m105.06,89.82h-14.99v-7.4h14.91c0,2.42,0,4.95,0,7.49,0,0,.08-.1.08-.1Z"/>
    <path class="cls-1" d="m119.96,90.02h-7.88v-7.63h7.88v7.63Z"/>
    <path class="cls-1" d="m112.07,97.14h7.88v7.63h-7.88v-7.63Z"/>
    <path class="cls-1" d="m104.75,97.04v7.79h-7.4v-7.71c2.42,0,4.96,0,7.49,0,0,0-.1-.08-.1-.08Z"/>
    <path class="cls-1" d="m149.88,127.14h7.04v7.88h-7.04v-7.88Z"/>
    <path class="cls-1" d="m112.16,89.94v7.28c-2.47-.06-4.93-.12-7.41-.18,0,0,.09.08.09.08.07-2.44.14-4.87.21-7.31,0,0-.08.09-.08.09,2.4,0,4.79.02,7.18.03Z"/>
    <path class="cls-1" d="m157.16,157.24v-7.04h7.57v6.95c-2.56,0-5.11,0-7.65,0,0,0,.08.08.08.08Z"/>
    <path class="cls-1" d="m172.16,172.24v-7.21h7.81s-.09-.08-.09-.08v7.28l.08-.08h-7.88l.08.09Z"/>
    <path class="cls-1" d="m7.34,44.43V7.36h37.29v37.07H7.34Zm29.64-29.53H14.88v22.14h22.1V14.9Z"/>
    <path class="cls-1" d="m269.67,7.34v37.13h-37.23V7.34h37.23Zm-29.69,29.66h22.06V14.88h-22.06v22.12Z"/>
    <path class="cls-1" d="m7.34,269.66v-37.13h37.23v37.13H7.34Zm7.54-29.63v22.08h22.08v-22.08H14.88Z"/>
    <path class="cls-1" d="m149.88,262.24c0-2.43,0-4.86,0-7.28h7.28v7.28c-2.43,0-4.86,0-7.28,0Z"/>
    <path class="cls-1" d="m164.97,14.94h-7.64v-7.57h7.55c0,2.56,0,5.11,0,7.65,0,0,.08-.08.08-.08Z"/>
    <path class="cls-1" d="m97.07,37.22v-7.2h-7.2v-14.82h7.14v6.93c2.85,0,5.39,0,7.94,0v15.09h-7.88Z"/>
    <path class="cls-1" d="m82.16,30.02h-7.28v-7.63h7.28v7.63Z"/>
    <path class="cls-1" d="m82.15,157.23v-7.21c2.69,0,5.25,0,7.81,0l-.09-.08v7.2h-7.8l.08.09Z"/>
    <path class="cls-1" d="m67.15,172.23c-2.43-.03-4.86-.05-7.29-.08,0,0,.09.08.09.08v-7.28s-.09.08-.09.08h7.29v7.2Z"/>
    <path class="cls-1" d="m82.07,134.94v7.04h-7.12c0-2.34,0-4.69,0-7.04,0,0-.08.09-.08.09h7.28l-.08-.09Z"/>
    <path class="cls-1" d="m262.17,195.03h-14.93v-15.09h-7.36l.08.09v-7.88l-.08.09h14.9v14.85h7.38v7.95Z"/>
    <path class="cls-1" d="m247.09,157.14v7.8h-7.2l.08.09v-7.8h7.2l-.08-.09Z"/>
    <path class="cls-1" d="m239.89,164.94c0,2.43,0,4.86,0,7.29,0,0,.08-.09.08-.09h-7.88l.08.08v-7.28l-.08.08h7.88l-.08-.09Z"/>
    <path class="cls-1" d="m44.87,202.15h7.28v7.88h-7.28v-7.88Z"/>
    <path class="cls-1" d="m112.07,247.15h7.88v7.63h-7.88v-7.63Z"/>
    <path class="cls-1" d="m142.16,254.95v7.28h-7.28v-7.28h7.28Z"/>
    <path class="cls-1" d="m104.96,52.22h-7.88v-7.28h7.88v7.28Z"/>
    <path class="cls-1" d="m239.89,179.94v7.2h-7.8s.08.09.08.09v-7.28l-.08.08h7.88l-.08-.09Z"/>
    <path class="cls-1" d="m232.17,195.03h-7.2v-7.88l-.09.08h7.28s-.08-.09-.08-.09c.03,2.63.05,5.26.08,7.89Z"/>
    <path class="cls-1" d="m224.97,187.15c-5.03,0-10.06,0-15.09,0l.08.09v-7.28l-.08.08h7.28v-7.88l-.08.08h15.08l-.08-.08v7.88l.08-.08h-7.28v7.28l.09-.08Z"/>
    <path class="cls-1" d="m209.88,187.15c0,2.63,0,5.26,0,7.89,0,0,.08-.09.08-.09h-7.8v-7.8l-.08.08c2.63,0,5.26,0,7.88,0l-.08-.09Z"/>
    <path class="cls-1" d="m239.88,82.22l7.29-.08c-.03,2.63-.05,5.26-.08,7.89,0,0,.08-.09.08-.09h-7.2v-7.8l-.09.08Z"/>
    <path d="m119.96,172.23h-7.74v-7.2h-7.35v-7.77h7.08v-7.13h-6.84v-14.98h14.66v6.97h7.18v22.72h-7v7.39Z"/>
    <path d="m82.07,157.15h7.8v-7.2h7.28v15.08h-15.08v-7.88Z"/>
    <path d="m127.08,119.93v7.05h-21.97v-6.96c7.37,0,14.71,0,22.05,0,0,0-.09-.09-.09-.09Z"/>
    <path d="m82.16,135.03h-7.28v-15.08h7.28v15.08Z"/>
    <path d="m119.88,180.03v-7.88h7.03v7.88h-7.03Z"/>
    <path d="m127.16,195.03h-7.28v-7.88h7.28v7.88Z"/>
    <path d="m202.17,127.14v7.8h15v14.97h7.59v7.13h-7.59v7.99h-7.16v-7.8h-30.13v-7.15h29.86v-7.81h-14.59v-15.13h7.01Z"/>
    <path d="m202.17,187.15v7.8h7.8v7.28h-15.08v-15.08h7.28Z"/>
    <path d="m232.17,172.23h-15.08v-7.28h15.08v7.28Z"/>
    <path d="m194.97,202.15v7.63h-7.88v-7.63h7.88Z"/>
    <path d="m172.08,172.15h7.88v7.88h-7.88v-7.88Z"/>
    <path d="m217.17,172.15v7.88h-7.28v-7.88h7.28Z"/>
    <path d="m209.97,187.23c-2.63,0-5.26,0-7.88,0v-7.28h7.88v7.28Z"/>
    <path d="m195.05,171.97v-6.82h6.83v6.82h-6.83Z"/>
    <path d="m179.88,172.23v-7.28h7.03v7.28h-7.03Z"/>
    <path d="m187.16,202.23h-7.28v-7.03h7.28v7.03Z"/>
    <path d="m59.95,164.95v7.28h-15.08v-7.28h15.08Z"/>
    <path d="m52.16,187.16h-7.04v-6.97h6.95c0,2.36,0,4.7,0,7.05,0,0,.09-.09.09-.09Z"/>
    <path d="m231.97,232.06h-6.83v-6.88h6.83v6.88Z"/>
    <path d="m179.96,134.94c-2.66-.03-5.33-.06-8-.09,0,0,.1.08.09.08,0-2.46,0-4.92,0-7.69h7.91l-.09-.09c0,2.62,0,5.25,0,7.87,0,0,.09-.09.09-.09Z"/>
    <path d="m209.97,119.94v7.28h-7.88v-7.28h7.88Z"/>
    <path d="m194.88,112.14h7.28v7.88h-7.28v-7.88Z"/>
    <path d="m164.88,120.03v-7.88h7.28v7.88h-7.28Z"/>
    <path d="m179.96,127.24v-7.04h6.97v6.95c-2.36,0-4.7,0-7.05,0,0,0,.09.09.09.09Z"/>
    <path d="m179.87,135.02h7.04v6.97h-6.95c0-2.36,0-4.7,0-7.05,0,0-.09.09-.09.09Z"/>
    <path d="m157.08,105.03v-7.88h7.63v7.88h-7.63Z"/>
    <path d="m239.97,82.14v7.8h7.2v7.2h7.8v7.88h-7.8v7.2h-7.28v-7.04h-7.72v7.04h-15.08v-7.28h7.8v-7.8h7.2v-15c2.63,0,5.26,0,7.88,0Z"/>
    <path d="m217.17,112.14c0,2.63,0,5.26,0,7.88h-7.28v-7.88h7.28Z"/>
    <path d="m239.97,165.03h-7.88v-22.89c2.63,0,5.26,0,7.88,0v7.74h7.2v7.35h-7.2v7.8Z"/>
    <path d="m36.98,14.9v22.14H14.88V14.9h22.1Z"/>
    <path d="m239.98,37V14.88h22.06v22.12h-22.06Z"/>
    <path d="m14.88,240.03h22.08v22.08H14.88v-22.08Z"/>
    <path d="m232.09,180.03v-7.88h7.88v7.88h-7.88Z"/>
    <path d="m224.88,187.23v-7.28h7.28v7.28h-7.28Z"/>
  </g>
</svg>