<?xml version="1.0" encoding="UTF-8"?>
<svg id="Layer_2" data-name="Layer 2" xmlns="http://www.w3.org/2000/svg" viewBox="0 0 215.18 215.17">
  <defs>
    <style>
      .cls-1 {
        fill: #fff;
      }
    </style>
  </defs>
  <g id="Layer_1-2" data-name="Layer 1">
    <g>
      <path d="m103.78,193.1v-14.96h7.59v-14.84h-7.54v7.38h-22.15v-7.5h6.86v-7.23h-6.79v-7.23h6.82v-7.72h-7v-7.38l-.09.08h7.2v-7.89h14.8v7.97h-6.76v15.04h7.12v7.13h14.94v7.14h7.24v14.82h7.74v-6.83h7.24v6.79h7.5v-22.1h-22.63v-7.24h-6.99v-7.73h7c0-2.61,0-4.89,0-7.18,2.63,0,5.26,0,7.89,0v7.38h15.06v7.46h14.25v-7.65h7.96v8.01h14.98v14.27h7.2v7.8h7.15l-.09-.08v7.17h14.88v7.72h-7.08v7.39l.09-.08h-7.88v15.09l.08-.09h-7.16v7.08h-7.1v-14.7h-15.23c0-2.66,0-5.01,0-7.36,2.35,0,4.7,0,7.05,0v-6.95h-6.97v7.04h-14.92v-7.06h-22.37v7.05l.09-.08h-7.88l.08.08v-7.04h-14.49v7.04l.08-.08h-7.88l.09.08Zm74.15-15.17v-21.83h-21.83v21.83h21.83Zm15.06,15v-14.69h-6.84v14.69h6.84Z"/>
      <path d="m74.29,96.5h7.15v-14.98h22.27v-7.12h7.7v7.11h7.36l-.09-.09v14.89h14.94v7.39h7.35l-.08-.09c0,2.63,0,5.25-.01,7.88l.09-.09h-7.19c0,5.13,0,9.81,0,14.49-2.63,0-5.26,0-7.89,0v-7.37h-7.01v-7.11h6.84v-7.72h-14.23c0-4.95,0-9.9,0-14.84h-22.72c0,5.08,0,9.96,0,14.84-2.36,0-4.71,0-7.2,0,0,5.24,0,10.12,0,15-2.36,0-4.72,0-7.29,0v7.2l.08-.09h-7.89v15.09l.09-.08h-7.28l.09.08v-22.12h7.2v-7.37l-.09.08h7.88v-15.09l-.08.09Z"/>
      <path d="m0,51.31V.01h51.4v51.3H0Zm7.39-7.27h36.81V7.2H7.39v36.84Z"/>
      <path d="m51.45,215.17H.1v-51.6h51.35v51.6Zm-44.07-7.42h36.9v-36.77H7.38v36.77Z"/>
      <path d="m163.76,51.27V.05h51.35v51.22h-51.35Zm44.17-7.16V7.28h-36.84v36.83h36.84Z"/>
      <path d="m29.3,66.39h7.73v15.1h7.34l-.08-.09v7.28h7.28l-.09-.08v7.64h-14.25v-7.37h-7.84v7.41H7.27v-7.57H.09v-29.23h29.29c0,2.28,0,4.64,0,7-2.36,0-4.72,0-7.39,0v7.6h-7.73v-7.4h-6.96v14.56h22v-14.85Z"/>
      <path d="m155.9,96.5c2.43,0,4.85,0,7.28,0,0,0-.08-.09-.08-.09v7.39h7.95v7.46h7.14v-14.84l-.08.09h22.2v15l.09-.08h-7.38v-7.6h-7.12v22.15h-7.82v7.51h-7.22v-14.98h-7.83v-7.12h-7.04v-14.96l-.08.09Z"/>
      <path d="m111.5,14.29h7.18V0h7.13v6.85h7.84V.06h22.1v21.83h-6.91v-7.48h-7.84v7.41h-7.14v-7.35h-7.84v7.44h-7.14v7.27c-2.67,0-5.03,0-7.39,0,0,0,.08.09.08.09,0-5.03,0-10.06,0-15.09l-.08.09Z"/>
      <path d="m88.77,208.01h-7.18v7.09h-7.13v-6.86h-7.84v6.79h-7.1v-29.03h6.91v14.07h7.84v-6.92h7.24v-7.24h7.14v-7.69h7.95c0,4.86,0,9.8,0,14.75,0,0,.08-.1.08-.1h-8v15.21l.09-.09Z"/>
      <path d="m66.58,44.29v-7.16h-7.08V14.39h6.9v7.58h7.82v7.03h7.22v-14.72h22.34l-.08-.09v7.96h-15v14.93l.08-.08h-14.49v7.28l.08-.08c-2.63,0-5.26,0-7.88,0l.09.08Z"/>
      <path d="m118.69,51.4v7.77h-7.05v7.04h-15.06v-14.81l-.09.08h7.04v-14.49h-7.04l.08.08v-7.8h15s-.08-.09-.08-.09c0,2.48,0,4.95,0,7.74h7.19c0,2.65,0,5,0,7.35,0,0,.09-.08.09-.08h-7.04v7.28h7.04l-.09-.08Z"/>
      <path d="m133.69,193.1h7.17v7.04h14.83v14.9h-14.71v-6.9h-22.11v-7.93h-7.38l.08.09v-7.28l-.08.08h14.49l-.08-.08v7.04h7.88v-7.04l-.09.08Z"/>
      <path d="m200.3,111.49h14.83v7.09h-7.03v22.31l.09-.08h-7.88v15.09l.08-.08h-7.36v-15.13h-6.91v-7.1h14.01v-7.81h-6.81v-7.21h7.07v-7.16l-.09.08Z"/>
      <path d="m140.97,59.2h-7.09v7.31c-2.81,0-5.34,0-7.87,0,0,0,.1.08.1.08-.04-5.06-.08-10.12-.11-15.18l-.09.09h7.64v-14.35h-7.38v-7.71h29.61v7.47h-14.89v22.38l.09-.09Z"/>
      <path d="m200.38,66.4h-7.14v15h-15.13l.09.09v-22.02h22.1v7.02l.09-.09Z"/>
      <path d="m22.17,118.6h-7.77v7.08h-7.04v-14.16h6.86v-7.64h15.06v7.61l.09-.08h-7.28v7.28l.08-.09Z"/>
      <path d="m22.1,140.9c4.99-.04,9.97-.07,14.96-.11,0,0-.1-.08-.1-.08v7.78h-7.54v7.18H7.28v-6.89h14.9v-7.97l-.09.09Z"/>
      <path d="m66.49,148.61v7.16h7.67v22.12h-7.46v-14.73h-7.31c0-5.06,0-9.81,0-14.55,0,0-.09.08-.09.08h7.28l-.09-.08Z"/>
      <path d="m66.58,111.41h-22.05v-7.65h14.65v-7.26h7.39l-.08-.09c0,5.03,0,10.06,0,15.09l.09-.08Z"/>
      <path d="m156.11,81.59v-22.1h6.95v6.84h7.64v7.83h-7.44v7.35c-2.55,0-4.9,0-7.25,0,0,0,.1.08.1.08Z"/>
      <path d="m200.29,66.48c2.63,0,5.26.01,7.89.02l-.09-.09v22.02h-7.72c0-7.35,0-14.69,0-22.04,0,0-.09.09-.09.09Z"/>
      <path d="m66.48,59.21v7.16h7.68v7.63h-14.61v-14.7h7.01l-.09-.09Z"/>
      <path d="m178.11,81.39c0,5.03,0,10.07,0,15.1,0,0,.08-.09.08-.09-5.03,0-10.06,0-15.09,0,0,0,.08.09.08.09,0-2.47,0-4.94,0-7.72h7.67v-7.29c2.64,0,4.99,0,7.34,0,0,0-.09-.09-.09-.09Z"/>
      <path d="m208.1,155.81v15h-7.8s.09.08.09.08v-15.09l-.08.08h7.88l-.09-.08Z"/>
      <path d="m111.5,200.21v14.83h-7.71v-14.83l-.09.08h7.88l-.08-.09Z"/>
      <path d="m96.58,51.4c-2.63,0-5.26,0-7.89,0,0,0,.08.09.08.09,0-4.83,0-9.66,0-14.49l-.08.08c2.63,0,5.26,0,7.88,0l-.08-.08v14.49s.09-.08.09-.08Z"/>
      <path d="m103.78,14.29V.06h7.72c0,4.74,0,9.49,0,14.23,0,0,.08-.09.08-.09-2.63,0-5.26,0-7.88,0l.08.09Z"/>
      <path d="m118.77,81.5v-14.92c2.48,0,4.9,0,7.33,0,0,0-.1-.08-.09-.08,0,4.86,0,9.72,0,14.91-2.62,0-4.98,0-7.33,0,0,0,.09.09.09.09Z"/>
      <path d="m208.1,140.89h7.04v14.92h-7.04s.09.08.09.08v-15.09l-.09.08Z"/>
      <path d="m74.13,6.9h-14.64V.07h14.64v6.83Z"/>
      <path d="m148.79,96.49v-14.91c2.47,0,4.89,0,7.32,0,0,0-.1-.08-.09-.08-.04,5-.07,10-.11,14.99,0,0,.08-.09.08-.09h-7.28l.09.08Z"/>
      <path d="m208.1,193.1h7.04v14.91h-7.03l.08.09v-15.09l-.09.08Z"/>
      <path d="m163.28,215.06v-6.85h14.62v6.85h-14.62Z"/>
      <path d="m37.09,118.7h14.23v7.11c-4.74,0-9.48,0-14.23,0,0,0,.08.09.08.09v-7.28l-.08.09Z"/>
      <path d="m37.1,133.7h14.38v7.19l.09-.09c-4.87-.03-9.73-.06-14.6-.09,0,0,.1.08.09.08.04-2.4.08-4.79.13-7.18l-.09.09Z"/>
      <path d="m66.49,140.89h7.64v7.72c-2.54,0-5.09,0-7.64,0,0,0,.09.08.09.08,0-2.63,0-5.26,0-7.88l-.09.08Z"/>
      <path d="m51.48,140.89c2.63,0,5.27,0,7.9,0,0,0-.09-.08-.09-.08v7.88s.09-.08.09-.08c-2.63,0-5.26,0-7.88-.01l.09.09c0-2.63,0-5.25-.02-7.88,0,0-.09.09-.09.09Z"/>
      <path d="m66.57,59.3c0-2.63,0-5.26.01-7.89l-.09.08h7.88l-.09-.08v7.81c-2.69,0-5.25,0-7.8,0,0,0,.09.09.09.09Z"/>
      <path d="m66.57,96.5v-7.64h7.72c0,2.54,0,5.09,0,7.64,0,0,.08-.09.08-.09h-7.88l.08.09Z"/>
      <path d="m37.18,133.62h-7.81v-7.81l-.09.08h7.88s-.08-.09-.08-.09c0,2.63,0,5.27,0,7.9,0,0,.09-.09.09-.09Z"/>
      <path d="m140.98,103.7v-7.21c2.69,0,5.25,0,7.81,0,0,0-.09-.08-.09-.08v7.2h-7.8l.08.09Z"/>
      <path d="m208.11,208.01v7.04h-7.72c0-2.34,0-4.69,0-7.04,0,0-.08.09-.08.09h7.88l-.08-.09Z"/>
      <path d="m29.28,111.49h7.81c0,2.49,0,4.85,0,7.21,0,0,.08-.09.08-.09h-7.88l.08.08c0-2.43,0-4.86,0-7.28l-.09.08Z"/>
      <path d="m22.18,140.82h-7.63v-6.97h7.55c0,2.36,0,4.7,0,7.05,0,0,.09-.09.09-.09Z"/>
      <path d="m51.49,81.49h7.63v7.11c-2.54,0-5.09,0-7.64,0,0,0,.09.08.09.08v-7.28l-.08.09Z"/>
      <path d="m140.89,59.28h7.63v6.97h-7.55c0-2.36,0-4.7,0-7.05,0,0-.09.09-.09.09Z"/>
      <path d="m88.7,51.4v7.64h-7.11v-7.63l-.09.08c2.43,0,4.86,0,7.28,0l-.08-.09Z"/>
      <path d="m88.68,208.09h7.63v6.97h-7.55c0-2.36,0-4.7,0-7.05,0,0-.09.09-.09.09Z"/>
      <path d="m81.58,133.61h-7.21c0-2.69,0-5.25,0-7.81,0,0-.08.09-.08.09,2.43-.03,4.86-.05,7.29-.08-.03,2.63-.06,5.26-.09,7.88l.09-.08Z"/>
      <path d="m140.72,81.32h-6.82v-6.83h6.82v6.83Z"/>
      <path d="m6.99,133.81v6.83H.12v-6.83h6.88Z"/>
      <path d="m44.37,81.49v-7.04h7.12c0,2.34,0,4.69,0,7.04,0,0,.08-.09.08-.09h-7.28l.08.09Z"/>
      <path d="m208.18,66.5v-7.04h6.97v6.95c-2.36,0-4.7,0-7.05,0,0,0,.09.09.09.09Z"/>
      <path d="m51.28,66.38h-6.72v-6.94h6.72v6.94Z"/>
      <path d="m148.95,44.38h6.84v6.83h-6.84v-6.83Z"/>
      <path d="m125.99,51.41c-2.43,0-4.87,0-7.3,0,0,0,.09.08.09.08v-7.28s-.09.08-.09.08c2.29,0,4.57,0,7.21,0,0,2.49,0,4.85,0,7.21,0,0,.09-.09.09-.09Z"/>
      <path d="m51.5,148.6v7.04h-6.97v-6.95c2.36,0,4.7,0,7.05,0,0,0-.09-.09-.09-.09Z"/>
      <path d="m81.58,51.4c-2.43,0-4.86,0-7.29,0,0,0,.09.08.09.08v-7.28l-.08.08h7.2v7.2l.09-.08Z"/>
      <path d="m103.78,200.22h-7.11c0-2.49,0-4.91,0-7.32,0,0-.08.1-.08.09,2.4.04,4.79.07,7.19.11,0,0-.09-.08-.09-.08v7.28l.09-.08Z"/>
      <path d="m29.38,125.81h-7.21c0-2.49,0-4.85,0-7.21,0,0-.08.09-.08.09h7.28l-.08-.08v7.28l.09-.08Z"/>
      <path d="m66.58,51.4h-7.04v-7.12c2.34,0,4.69,0,7.04,0,0,0-.09-.08-.09-.08v7.28l.09-.08Z"/>
      <path class="cls-1" d="m111.5,103.7h14.23v7.72h-6.84v7.11h7.01v7.37l.09-.08h-7.03v7.88h7.03l-.09-.08v7.18h-7v7.73h6.99v7.24h22.63v22.1h-7.5v-6.79h-7.24v6.83h-7.74v-14.82h-7.24v-7.14h-14.94v-7.13h-7.12v-15.04h6.76v-7.97c-4.89,0-9.84,0-14.8,0,0,0,.08.09.08.09,0-2.43,0-4.86,0-7.28l-.08.08h15c0-2.72,0-5,0-7.28,2.56,0,5.11,0,7.89,0v-7.8l-.08.09Z"/>
      <path class="cls-1" d="m140.9,103.61h7.8v-7.2h7.28v14.96h7.04v7.12h7.83v14.98h7.22v-7.51h7.82v-22.15h7.12v7.6h7.38v7.16h-7.07v7.21h6.81v7.81h-14.01v7.1h6.91v15.13h7.36v15.09h-7.15v-7.8h-7.2v-14.27h-14.98v-8.01h-7.96l.08.09v-15.08h-29.49l.09.08v-14.49c2.48,0,4.83,0,7.19,0,0,2.35,0,4.69,0,7.05h7.55v-6.97h-7.63c0-2.63,0-5.25.01-7.88Z"/>
      <path class="cls-1" d="m177.93,177.92h-21.83v-21.83h21.83v21.83Zm-14.63-14.74v7.48h7.43v-7.48h-7.43Z"/>
      <path class="cls-1" d="m163.1,140.81v7.65h-14.25v-7.46h-15.06c0-2.67,0-5.03,0-7.38,0,0-.09.08-.09.08h22.33v7.2h7.15l-.08-.09Z"/>
      <path class="cls-1" d="m208.19,208.1h-7.88v-15.09h7.88v15.09Z"/>
      <path class="cls-1" d="m192.99,192.93h-6.84v-14.69h6.84v14.69Z"/>
      <path class="cls-1" d="m125.98,193.1h-14.49v-7.04h14.49v7.04Z"/>
      <path class="cls-1" d="m125.89,125.89c2.63,0,5.26,0,7.89,0,0,0-.09-.08-.09-.08v7.88s.09-.08.09-.08c-2.63,0-5.26,0-7.89,0,0,0,.09.08.09.08v-7.88l-.09.08Z"/>
      <path class="cls-1" d="m103.7,200.3v-7.28h7.88v7.28h-7.88Z"/>
      <path class="cls-1" d="m133.78,193.02v7.04h-7.88v-7.04h7.88Z"/>
      <path class="cls-1" d="m81.49,133.69c.03-2.63.06-5.26.09-7.88,0,0-.09.08-.09.08h7.28s-.08-.09-.08-.09c0,2.48,0,4.97,0,7.89h-7.2Z"/>
      <path class="cls-1" d="m170.98,193.11v-7.04h6.97v6.95c-2.36,0-4.71,0-7.05,0,0,0,.08.08.08.08Z"/>
      <path class="cls-1" d="m88.78,103.69v-14.84h22.72c0,4.94,0,9.89,0,14.84,0,0,.08-.09.08-.09-2.63.03-5.26.06-7.88.09,0-2.35,0-4.7,0-7.04h-7.12v7.04c-2.63-.03-5.26-.06-7.88-.09l.09.08Z"/>
      <path class="cls-1" d="m66.49,96.41h7.88v15.09h-7.88c0-5.03,0-10.06,0-15.09Z"/>
      <path class="cls-1" d="m81.58,118.69v-15c2.49,0,4.84,0,7.2,0,0,0-.09-.08-.09-.08,0,5.03,0,10.06,0,15.08l.08-.08c-2.43,0-4.86,0-7.28,0l.09.08Z"/>
      <path class="cls-1" d="m59.29,148.7v-7.88h7.28c0,2.63,0,5.26,0,7.88h-7.28Z"/>
      <path class="cls-1" d="m81.58,125.81c-2.43.03-4.86.05-7.29.08v-7.2c2.57,0,4.93,0,7.29,0,0,0-.09-.08-.09-.08,0,2.43,0,4.86,0,7.28l.09-.08Z"/>
      <path class="cls-1" d="m7.39,44.04V7.2h36.81v36.84H7.39Zm29.37-7.29V14.73H14.79v22.03h21.97Z"/>
      <path class="cls-1" d="m7.38,207.75v-36.77h36.9v36.77H7.38Zm29.42-29.41H14.8v21.84h22.01v-21.84Z"/>
      <path class="cls-1" d="m207.94,44.11h-36.84V7.28h36.84v36.83Zm-7.61-29.38h-21.87v21.96h21.87V14.73Z"/>
      <path class="cls-1" d="m29.3,66.39v14.85H7.29v-14.56h6.96v7.4h7.73v-7.6c2.67,0,5.03,0,7.39,0,0,0-.08-.08-.08-.08Z"/>
      <path class="cls-1" d="m44.29,81.41h7.28v7.28h-7.28v-7.28Z"/>
      <path class="cls-1" d="m163.1,96.41c5.03,0,10.06,0,15.09,0v14.84h-7.14v-7.46h-7.95v-7.39Z"/>
      <path class="cls-1" d="m103.7,14.2c2.63,0,5.26,0,7.88,0,0,5.03,0,10.06,0,15.09-4.88,0-9.76,0-15,0v7.8c-2.63,0-5.26,0-7.88,0v-14.93h15v-7.96Z"/>
      <path class="cls-1" d="m81.49,51.49v-7.2h-7.2v-7.28h14.49c0,4.83,0,9.66,0,14.49-2.43,0-4.86,0-7.28,0Z"/>
      <path class="cls-1" d="m66.49,51.49v-7.28c2.63,0,5.26,0,7.88,0v7.28h-7.88Z"/>
      <path class="cls-1" d="m96.49,51.49v-14.49h7.04v14.49h-7.04Z"/>
      <path class="cls-1" d="m118.78,44.2v7.28h-7.04v-7.28h7.04Z"/>
      <path class="cls-1" d="m208.19,140.81v15.09h-7.88v-15.09h7.88Z"/>
      <path class="cls-1" d="m29.37,118.69h-7.28v-7.28h7.28c0,2.43,0,4.86,0,7.28Z"/>
      <path class="cls-1" d="m29.29,125.89v-7.28h7.88v7.28h-7.88Z"/>
      <path d="m88.69,118.69c0-5.03,0-10.06,0-15.08,2.63.03,5.26.06,7.88.09,0,0-.08-.09-.08-.09v7.88h7.28l-.09-.08v7.28h-15Z"/>
      <path d="m103.7,103.7l7.88-.09v7.8c-2.78,0-5.33,0-7.89,0,0,0,.09.08.09.08v-7.88s-.08.09-.08.09Z"/>
      <path d="m125.98,125.81v7.88h-7.03v-7.88h7.03Z"/>
      <path d="m81.49,125.89c0-2.43,0-4.86,0-7.28,2.43,0,4.86,0,7.28,0,0,2.43,0,4.86,0,7.28h-7.28Z"/>
      <path d="m133.7,133.69v-7.88h29.49v15.08h-7.15v-7.2h-22.33Z"/>
      <path d="m140.89,111.49h7.63v6.97h-7.55c0-2.36,0-4.7,0-7.05,0,0-.09.09-.09.09Z"/>
      <path d="m163.3,163.19h7.43v7.48h-7.43v-7.48Z"/>
      <path d="m96.58,103.7v-7.04h7.12c0,2.34,0,4.69,0,7.04,0,0,.08-.09.08-.09h-7.28l.08.09Z"/>
      <path d="m36.76,36.75H14.79V14.73h21.97v22.03Z"/>
      <path d="m36.8,178.34v21.84H14.8v-21.84h22.01Z"/>
      <path d="m200.32,14.73v21.96h-21.87V14.73h21.87Z"/>
      <path class="cls-1" d="m96.49,103.61h7.28v7.88h-7.28v-7.88Z"/>
    </g>
  </g>
</svg>