<?xml version="1.0" encoding="UTF-8"?>
<svg id="Layer_2" data-name="Layer 2" xmlns="http://www.w3.org/2000/svg" viewBox="0 0 222.31 222.29">
  <defs>
    <style>
      .cls-1 {
        fill: #fff;
      }
    </style>
  </defs>
  <g id="Layer_1-2" data-name="Layer 1">
    <g>
      <path d="m95.87,150.4h-5.84v17.88h5.73v-5.61h5.89v11.68h-5.75c0,4.14,0,8.09,0,12.03,0,0,.08-.1.08-.1h-12.04v5.93h-5.99v-5.81h-6.15l.08.09c-.03-2.03-.05-4.06-.08-6.09h17.83v-5.91c-6.08,0-11.96,0-17.83,0,.04-1.99.08-3.99.12-5.98h11.69v-5.92h-11.6c0,2.09,0,4.05,0,6-2.07-.03-4.14-.07-6.21-.1v-11.83h-18v17.83l.08-.09h-12.09c0-2.07,0-4.03,0-5.99,1.95,0,3.9,0,5.85,0v-5.75h-5.77v5.84c-2.02,0-4.05,0-6.07,0,0-1.95,0-3.9,0-5.85h-5.75v5.77h5.84v5.84H11.99v-11.69h5.8v-6.04h5.83v-11.9h-5.71v5.72H5.86v23.96H.04v-29.74h11.64v-24.08h6.19l-.08-.09v6.12h5.98c.04,1.99.07,3.97.11,5.96-1.95,0-3.9,0-5.85,0v5.75h5.77v-5.84h5.8v-5.78c-2.13,0-4.02,0-5.9,0,.06-2.07.12-4.14.18-6.21l-.08.08h17.83v6.02h-5.62v6.02h5.88c0,2.2,0,4.08,0,5.96-3.95,0-7.9,0-11.84,0v5.91c4.08,0,7.96,0,11.83,0-.04,1.99-.08,3.99-.12,5.98h-11.69v5.92h11.6c0-2.09,0-4.05,0-6,2.02,0,4.04,0,6.12,0v-5.91c2.02,0,4.05,0,6.07,0,0,1.95,0,3.9,0,5.85h5.75v-5.77h-5.84v-6h-5.99v-18.09c2.32,0,4.2,0,6.09,0,0,3.96,0,7.92,0,11.82h6.07v-5.84h11.85v-5.98h6.09c0,4.32,0,8.2,0,12.08-3.96,0-7.92,0-11.83,0v6.06h5.59v6.03h-5.67v5.92h5.96v5.82h11.73v-5.95h-5.87v-17.96c2.03,0,4.05,0,6.08,0,0,3.95,0,7.9,0,11.84h5.91v-11.83c1.96,0,3.92,0,6.01,0v-6.01h6.14v6c2.18,0,4.06,0,5.93,0,0,1.95,0,3.9,0,5.85h12.34v-5.77h-12.43v-12.09c2.52,0,4.6,0,6.69,0,0,1.95,0,3.9,0,5.85h5.75v-5.77h-5.84v-6.18h11.89v-6.53h-5.6v-6.03h5.57v-5.93h-18.45l.08.08v-6.15h6.52v-5.94c4.03,0,8.05,0,12.08,0,0,1.95,0,3.9,0,5.84h5.92v-5.84c2.03.03,4.06.06,6.08.09,0,0-.08-.08-.08-.08v18.14h-5.72v5.99h17.59v6.6h-5.78c0,2.19,0,4.07,0,5.96-3.96,0-7.91,0-12.01,0v12.01h-5.99c0,4.23,0,8.11,0,12h-12.09v12l.08-.09h-6.53v-11.76h-12.17v5.84l.09-.09Z"/>
      <path d="m77.89,23.88v-5.94h12v-6.14l-.09.08h6.08v-6.08l-.08.09h11.97V0h6.53v5.89h6.19l-.08-.09v6.15h6.09c0,2.18,0,4.06,0,5.94-4.03,0-8.06,0-12.09,0v-5.82h-12.66v5.84h-5.68v12.03h5.82v11.7h6.03v-5.61h6.31v11.88h-12.21v18.01h24.47v5.97h-18.6c0,2.22,0,4.11,0,5.99-1.95,0-3.91,0-5.85,0v18h5.84s-.08-.08-.08-.08v6.08h-18.01v-11.83h-12.03v5.61h-6v-17.6h-6v17.6h-6.01v-5.78h-11.95c0-1.96,0-3.92,0-6.19h5.88v-5.93h-5.8v-5.97l-.08.09h5.98v-11.88h5.92v5.64h6.03v-5.57h12.16c0,1.88,0,3.84,0,5.8-1.95,0-3.9,0-5.85,0v5.75h5.77v-5.84h6.08v-11.99l-.09.08h5.84v-6.08h-5.84l.08.08v-12.09h-6.08l.09.08c0-2.03,0-4.05,0-6.08,0,0-.09.08-.09.08h5.84v-6.08h-5.84l.09.08Zm.01,59.72h5.74v-5.53h-5.74v5.53Zm12.05-41.99h5.74v-5.6h-5.74v5.6Z"/>
      <path d="m174.5,216.49v-11.84h-5.94v5.65h-6.03v5.98h-5.95v-11.72h5.82v-6.03h5.82v-24.13h-5.82l.08.09v-6.15h5.91v-5.94c2.03.03,4.06.05,6.09.08l-.09-.08v5.96h29.87v6h-5.6v5.9h17.62v-5.65h-5.63v-5.98h11.64v17.7h-11.9v12.17l.09-.08h-6.18v-11.8h-5.94v17.78h-12.03v-5.75h-5.68v11.57h17.62c0-2.13,0-4.02,0-5.9,4.07.06,8.14.12,12.21.18l-.08-.08v6.08l.08-.08h-6.08v6.08l.08-.09h-11.97v5.88h-5.93v-5.89h-12.18l.09.09Zm.12-41.89v17.65h17.6v-17.65h-17.6Z"/>
      <path d="m210.41,65.89c2.03,0,4.05,0,6.08,0l-.09-.09v5.97h5.89v17.92h-5.65v6.04h5.58v18.63h-5.61v5.93h5.64v11.98h-5.66v-5.88c-4.27,0-8.23,0-12.19,0,0,0,.08.09.08.09v-12c-4.32,0-8.2,0-12.08,0v-6.44h-5.92v6.44h-6.14v-6.6c-2.18,0-4.06,0-5.94,0,0-4.03,0-8.06,0-12.09,3.96,0,7.92,0,12,0v-6c2.03,0,4.06,0,6.09,0v5.84h5.91v-5.84c1.96,0,3.92,0,6.01,0v-6.01h11.83v-5.91c-4.08,0-7.96,0-11.83,0,.03-2.03.05-4.06.08-6.09l-.08.08h6.08v-6.08l-.08.09Zm5.88,41.82v-5.69h-11.63v5.69h11.63Z"/>
      <path d="m156.39,59.88v-11.82h23.94v11.84h6.15l-.08-.09c.03,2.03.05,4.06.08,6.09h-11.85v6.06h5.86v5.93c-1.96,0-3.92,0-6.01,0v6.01c-6.03,0-12.05,0-18.08,0,0-1.95,0-3.9,0-5.84h-5.92v5.84c-4.03-.03-8.06-.06-12.08-.09l.08.08v-6.15h6.12v-5.99h5.66v-5.99h-5.78v-5.94l-.08.09c4.02-.03,8.05-.06,12.07-.1,0,3.96,0,7.91,0,11.82h11.81v-5.84h-5.89c0-2.2,0-4.09,0-5.97,3.94,0,7.89,0,11.85,0v-5.76h-11.77v5.85c-2.03,0-4.06-.01-6.09-.02Z"/>
      <path d="m180.6.42h41.22v41.35h-41.22V.42Zm35.61,5.92h-29.72v29.61h29.72V6.33Z"/>
      <path d="m41.8,180.57v41.16H.48v-41.16h41.32Zm-5.8,5.86H6.38v29.52h29.62v-29.52Z"/>
      <path d="m.5.43h41.18v41.34H.5V.43Zm5.77,35.44h29.62V6.36H6.27v29.51Z"/>
      <path d="m168.41,11.89h5.84v17.78h-5.64v-5.62h-6.13v17.64h-5.91v-5.89h-6.18l.08.09v-6.19h5.8v-5.93h-5.98v-11.77h-5.94v5.88h-11.97c.03-4.03.06-8.06.09-12.08l-.08.09h5.97V0h5.92v5.77h12.04v11.83h12.16v-5.8l-.09.09Z"/>
      <path d="m132.4,192.41v5.95h6.02v6.01h11.8v5.98h-23.82v6.14l.09-.09h-5.97v-29.84h-5.83v-6.06h11.81l-.08-.09v12.09h6.08l-.09-.08Z"/>
      <path d="m59.88,23.79h-11.84v-5.93h5.66v-5.91h-5.68v-6.02h5.68V.03h6.12v11.67h5.91v-5.69h11.95v5.69h-5.9v12.17s.09-.09.09-.09c-2.02,0-4.05,0-6.07,0l.08.09v-5.84h-6.08v5.84l.08-.09Z"/>
      <path d="m138.4,47.8c0,2.03,0,4.05,0,6.08l.09-.08h-6v6.09h-24.43v-6.19h12.48v-17.69h6v5.78c2.2,0,4.08,0,5.96,0,0,1.96,0,3.92,0,6.09h6l-.09-.08Z"/>
      <path d="m29.98,53.67h-11.97v11.95h-6.12v-5.63h-5.91v5.65H0v-17.65h29.9c0,2.02,0,3.9,0,5.77,0,0,.08-.1.08-.1Z"/>
      <path d="m107.87,192.4h-5.92v11.95h-6.17v6.14l.09-.09h-17.82v-5.9h5.69v-5.9h6.01v-6.11h6.22c0-2.27,0-4.23,0-6.2,0,0-.08.1-.08.09,3.86,0,7.71,0,11.89,0v6.11l.09-.09Z"/>
      <path d="m59.8,210.4h11.83v6.02h-5.72v5.81h-17.87v-29.74h5.84l-.08-.09v12.09h6.08l-.09-.08c.03,2.02.06,4.05.1,6.07-1.95,0-3.9,0-5.85,0v5.75h5.77v-5.84Z"/>
      <path d="m216.48,156.4c-2.02,0-4.05,0-6.07,0l.08.09v-6.15h-6.18v-11.85c-4.17,0-8.04,0-11.9,0,0-2.03,0-4.06,0-6.09h6v-6c2.03.03,4.06.06,6.08.09,0,0-.08-.09-.08-.09v5.95h5.99v12.08h11.91v5.89h-5.91v6.16l.09-.09Z"/>
      <path d="m11.87,95.8H.04v-5.93h5.72v-17.8h12.03v5.81s.09-.08.09-.08h-6.08v18.09l.08-.09Z"/>
      <path d="m17.79,77.89c4.03,0,8.06,0,12.09,0l-.08-.09c.03,8.03.05,16.06.08,24.09-2.03,0-4.05,0-6.08,0,0-3.95,0-7.9,0-12.16h-5.92v-11.93l-.09.08Z"/>
      <path d="m210.41,156.4v5.84h-17.85v-5.84h-6.15l.08.09c-.03-2.03-.05-4.06-.08-6.09h6v-6h6.15v12.09h11.93l-.08-.09Z"/>
      <path d="m36,53.98v-5.9h29.59v5.82c-9.84,0-19.76,0-29.69,0,0,0,.1.08.1.08Z"/>
      <path d="m83.89,53.8h-11.84v-17.92c1.93,0,3.88,0,5.84,0,0,0-.09-.08-.09-.08v12.09h6.08l-.08-.08v6.08l.09-.08Z"/>
      <path d="m216.4,210.42v5.97h5.89v5.84h-17.8c0-1.9,0-3.86,0-5.82,0,0-.08.09-.08.09h6.08v-6.08l-.08.08h6.08l-.09-.08Z"/>
      <path d="m95.79,210.49h5.85v11.79h-17.65v-5.7h11.89c0-2.26,0-4.21,0-6.17,0,0-.09.09-.09.09Z"/>
      <path d="m186.41,156.4v6.01c-4.09,0-8.05,0-12.01,0,0,0,.09.08.09.08v-6h-6.08c0-2.03,0-4.06,0-6.09,4.03,0,8.06,0,12.09,0v6.08h6l-.08-.09Z"/>
      <path d="m29.88,77.89v-5.93h-5.85v-6.07c3.98,0,7.91,0,11.85,0,0,0-.08-.09-.08-.09v6.08h6.08l-.08-.08v6h-12l.08.09Z"/>
      <path d="m162.41,174.41v17.85h-5.85v-5.66h-6.06v-6.18l-.09.08h6.15v-6h5.94l-.08-.09Z"/>
      <path d="m126.48,180.5v-5.95h-5.99v-12.14l-.09.08h6.15v5.92h5.94c-.03,4.03-.06,8.06-.09,12.08l.08-.08h-6.08l.08.09Z"/>
      <path d="m65.8,23.79v17.83h-5.92c0-5.94,0-11.88,0-17.83,0,0-.08.09-.08.09h6.08l-.08-.09Z"/>
      <path d="m65.79,192.41v5.93h5.86v6.07c-3.98,0-7.92,0-11.86,0,0,0,.09.08.09.08v-12.09l-.08.08h6.08l-.09-.08Z"/>
      <path d="m210.4,198.5h11.83v11.92c-1.93,0-3.88,0-5.83,0,0,0,.09.08.09.08v-6.08h-6.08l.08.08c0-2.03,0-4.06,0-6.08l-.09.08Z"/>
      <path d="m168.5,11.8h-5.85V.02h11.65v5.7h-5.89c0,2.26,0,4.22,0,6.18,0,0,.09-.09.09-.09Z"/>
      <path d="m5.78,107.81v12.41H.03v-12.32h5.84l-.09-.09Z"/>
      <path d="m53.88,186.41h-6c0-4.08,0-8.04,0-12,0,0-.08.09-.08.09,2.03-.03,4.06-.06,6.08-.09-.03,4.03-.05,8.06-.08,12.09l.08-.09Z"/>
      <path d="m120.48,5.89V.04h11.92c0,1.94,0,3.89,0,5.84,0,0,.08-.09.08-.09-4.03,0-8.06,0-12.08,0l.08.09Z"/>
      <path d="m150.49,180.41c-4.03,0-8.06,0-12.09,0l.08.09v-5.84h11.92v5.84l.09-.08Z"/>
      <path d="m138.4,180.41v12.01c-2.09,0-4.05,0-6.01,0,0,0,.09.08.09.08v-12.09l-.08.08c2.03,0,4.06,0,6.08,0l-.08-.09Z"/>
      <path d="m53.65,41.79h-5.58v-11.73h5.58v11.73Z"/>
      <path d="m186.49,59.89v-11.83h5.91v11.83l.09-.08h-6.08l.08.09Z"/>
      <path d="m216.49,65.9c0-4.03.01-8.06.02-12.09,0,0-.09.09-.09.09h5.83v11.92c-1.95,0-3.9,0-5.85,0,0,0,.09.09.09.09Z"/>
      <path d="m17.88,114.4h-5.99c0-2.28,0-4.44,0-6.59,0,0-.09.08-.09.08,2.03-.03,4.06-.05,6.09-.08-.03,2.23-.06,4.46-.09,6.68l.08-.09Z"/>
      <path d="m114.27,162.31v5.99h-6.19v-5.91c2.02,0,4.15,0,6.29,0,0,0-.1-.08-.1-.08Z"/>
      <path d="m107.79,192.49h6.44v5.77h-6.35c0-1.96,0-3.91,0-5.85,0,0-.09.09-.09.09Z"/>
      <path d="m71.79,23.88c2.03,0,4.07,0,6.1,0,0,0-.09-.08-.09-.08v6.08s.09-.08.09-.08c-1.89,0-3.77,0-6.01,0,0-2.09,0-4.05,0-6.01,0,0-.09.09-.09.09Z"/>
      <path d="m11.88,101.89c0-2.03,0-4.06,0-6.09,0,0-.08.09-.08.09h6.09c0,2.23,0,4.11,0,6-2.03-.03-4.06-.05-6.09-.08l.09.08Z"/>
      <path d="m5.6,138.34H.01v-5.74h5.59v5.74Z"/>
      <path d="m95.79,150.49h5.84v5.77h-5.75c0-1.96,0-3.91,0-5.85,0,0-.09.09-.09.09Z"/>
      <path d="m216.4,156.49h5.84v5.77h-5.75c0-1.96,0-3.91,0-5.85,0,0-.09.09-.09.09Z"/>
      <path d="m198.41,65.89c2.03,0,4.05,0,6.08,0l-.08-.09v6.08s.08-.08.08-.08c-2.03.03-4.06.06-6.08.09.03-2.03.05-4.06.08-6.09l-.08.09Z"/>
      <path d="m5.87,107.9v-6.01c2.09,0,4.05,0,6.01,0,0,0-.09-.08-.09-.08v6.08s.09-.08.09-.08c-2.03,0-4.07,0-6.1,0,0,0,.09.09.09.09Z"/>
      <path d="m89.89,5.88V.04h5.91v5.84s.08-.09.08-.09h-6.08s.09.08.09.08Z"/>
      <path d="m89.89,11.8h-5.84v-5.92c1.94,0,3.89,0,5.84,0,0,0-.09-.08-.09-.08,0,2.03,0,4.06,0,6.08l.09-.08Z"/>
      <path d="m41.8,65.89h6c0,2.08,0,4.04,0,6,0,0,.08-.09.08-.09h-6.08l.08.08c0-2.03,0-4.06,0-6.08l-.08.09Z"/>
      <path d="m17.88,120.5c0-2.03,0-4.06,0-6.09,0,0-.08.09-.08.09h6v6l.08-.08c-2.03,0-4.06,0-6.08,0l.08.09Z"/>
      <path d="m204.49,65.89v-5.84h5.92c0,1.94,0,3.89,0,5.84,0,0,.08-.09.08-.09h-6.08l.08.09Z"/>
      <path d="m192.4,59.88h6.01c0,2.09,0,4.05,0,6.01,0,0,.08-.09.08-.09-2.03.03-4.06.05-6.09.08.03-2.03.06-4.06.09-6.08l-.09.08Z"/>
      <path d="m35.8,59.89h5.99c0,2.08,0,4.04,0,6,0,0,.08-.09.08-.09-2.03,0-4.06,0-6.08,0,0,0,.08.09.08.09,0-2.03,0-4.06.01-6.08l-.09.09Z"/>
      <path d="m138.4,53.88h6.01c0,2.09,0,4.05,0,6.01,0,0,.08-.09.08-.09-2.03.03-4.06.06-6.08.09.03-2.03.05-4.06.08-6.09,0,0-.09.08-.09.08Z"/>
      <path d="m53.88,192.5c0-2.03,0-4.06,0-6.09,0,0-.08.09-.08.09,2.03-.03,4.06-.05,6.09-.08-.03,2.03-.06,4.06-.09,6.08l.08-.08h-6.08l.08.09Z"/>
      <path d="m71.8,186.41v6.01c-2.09,0-4.05,0-6.01,0,0,0,.09.08.09.08-.03-2.03-.05-4.06-.08-6.09,2.03.03,4.06.06,6.08.09l-.08-.09Z"/>
      <path d="m35.89,59.81h-5.92c0-2.09,0-4.11,0-6.13,0,0-.08.1-.08.09,2.04.07,4.07.14,6.11.21,0,0-.1-.08-.09-.08-.03,2-.07,4-.11,5.99,0,0,.09-.09.09-.09Z"/>
      <path d="m216.5,53.81h-5.84v-5.77h5.75c0,1.96,0,3.91,0,5.85,0,0,.09-.09.09-.09Z"/>
      <path d="m198.6,47.97h5.64v5.69h-5.64v-5.69Z"/>
      <path d="m144.5,198.28v-5.59h5.74v5.59h-5.74Z"/>
      <path d="m144.4,41.8v6c-2.08,0-4.04,0-6,0,0,0,.09.08.09.08-.03-2.03-.05-4.06-.08-6.09l6.08.09s-.09-.08-.09-.08Z"/>
      <path d="m174.3,41.72h-5.64v-5.69h5.64v5.69Z"/>
      <path d="m150.41,35.79v6.01c-2.09,0-4.05,0-6.01,0,0,0,.09.08.09.08v-6h6l-.08-.09Z"/>
      <path d="m126.39,216.49h5.84v5.77h-5.75c0-1.96,0-3.91,0-5.85,0,0-.09.09-.09.09Z"/>
      <path d="m174.41,216.4v5.84h-5.77v-5.75c1.96,0,3.91,0,5.85,0,0,0-.09-.09-.09-.09Z"/>
      <path d="m120.49,162.41c-2.07-.03-4.14-.06-6.21-.1,0,0,.1.08.09.08.04-2,.07-3.99.11-5.99,0,0-.08.09-.08.09,2.03-.03,4.06-.06,6.08-.09-.03,2.03-.05,4.06-.08,6.09l.09-.08Z"/>
      <path class="cls-1" d="m126.49,144.49v-12h5.99l-.08-.09v5.83h6.08v-5.83l-.08.08h6.08v-6.08l-.08.08h24.13v6h5.96l-.08-.08v6.08l.08-.08h-6.08v6.08l.08-.08h-6.08v6.08l.08-.08h-6.08v12.08l.08-.08h-6.08l.08.08v-6.08h-6.08s.08.08.08.08c-.03-2.02-.06-4.05-.09-6.08,1.95,0,3.9,0,5.85,0v-5.75h-5.77v5.84h-6.16v-6.1h-11.92l.09.08Zm30.11-11.91v5.69h5.64v-5.69h-5.64Z"/>
      <path class="cls-1" d="m47.8,89.89h11.95v5.78h6.01v-17.6h6v17.6h6v-5.61h12.03v11.83l.09-.08h-5.86v18.75h5.77v5.94l.08-.08h-6.08v6.08l.08-.09c-2.03,0-4.05,0-6.08,0l.08.08v-12.08h-6.09l.08.09v-6.14h5.73v-6.54h-11.81l.08.08v-6h-12.09v-6.15h-5.91v-5.94l-.08.09Z"/>
      <path class="cls-1" d="m89.79,101.89h18.01v-6.08c6.08,0,12.16,0,18.45,0v5.93h-5.57v6.03h5.6v6.53h-11.89v6.18l.08-.08h-6.69v12.09l.08-.08h-5.93v-6h-6.14l.08.09v-6.14h5.91c0-2.18,0-4.06,0-5.93,1.95,0,3.9,0,5.85,0v-6.35h-5.77v6.44h-6.13v-6.77h-5.87v-5.92l-.09.08Z"/>
      <path class="cls-1" d="m138.4,83.8c4.03.03,8.06.06,12.08.09l-.08-.09v6.08h6.08l-.08-.08v6.08h6.08l-.08-.08v6.08l.08-.08h-5.8v12.75h11.56v5.85h-23.84l.09.08v-5.96h5.78v-6.6h-17.59v-5.99h5.72v-18.14Zm6.18,17.88h5.68v-5.62h-5.68v5.62Z"/>
      <path class="cls-1" d="m23.79,120.49v-6h-6c.03-2.23.06-4.46.09-6.68,0,0-.09.08-.09.08h6.08v-6.08l-.08.09c2.03,0,4.05,0,6.08,0,0,0-.08-.09-.08-.09v12.68h24.09l-.08-.08v6.08l.08-.09h-6.09v18.09l.09-.08h-6.08l.09.08v-5.96h-5.88v-6.02h5.62v-6.02h-17.83Z"/>
      <path class="cls-1" d="m71.8,120.4v5.98h-11.85v5.84h-6.07c0-3.9,0-7.86,0-11.82,0,0-.08.09-.08.09h5.83v-6.08h-5.83l.08.08c-.03-2.23-.06-4.46-.08-6.69,4.03.03,8.06.06,12.08.09l-.08-.08v12.68h6.08l-.08-.09Z"/>
      <path class="cls-1" d="m77.8,132.4v17.96h5.87v5.95h-11.73v-5.82h-5.96v-5.92h5.67v-6.03h-5.59v-6.06c3.91,0,7.87,0,11.83,0,0,0-.08-.08-.08-.08Z"/>
      <path class="cls-1" d="m53.88,174.41c-2.03.03-4.06.06-6.08.09v-17.83h18v11.83l.09-.08h-6.14v-5.73h-5.94v11.81l.08-.09Z"/>
      <path class="cls-1" d="m138.4,59.89c2.03-.03,4.06-.06,6.08-.09v5.94h5.78v5.99h-5.66v5.99h-6.12v6.15c-2.03-.03-4.06-.06-6.08-.09l.08.09v-12.08l-.08.08h6.08v-12.08s-.08.09-.08.09Z"/>
      <path class="cls-1" d="m107.89,77.88v-5.99h18.6s-.08-.09-.08-.09v12.08l.08-.09c-4.03,0-8.05,0-12.08,0,0,0,.08.09.08.09v-6.08h-6.68l.09.08Z"/>
      <path class="cls-1" d="m107.88,95.89h-5.84v-18c1.94,0,3.89,0,5.85,0,0,0-.09-.08-.09-.08v6.08h6.68s-.08-.09-.08-.09v5.94h-6.52v6.15Z"/>
      <path class="cls-1" d="m120.48,156.41l-6.08.09v-12h12.09s-.09-.08-.09-.08v6.15h-6v5.94l.08-.09Z"/>
      <path class="cls-1" d="m132.48,132.5v-12.01c4.09,0,8.05,0,12.01,0,0,0-.09-.08-.09-.08v6.08l.08-.08h-6.08v6.08l.08-.08c-2.03,0-4.06,0-6.08,0l.08.09Z"/>
      <path class="cls-1" d="m71.8,174.5h17.83v5.91h-17.83s.08.09.08.09v-6.08l-.08.09Z"/>
      <path class="cls-1" d="m107.79,132.48h12.43v5.77h-12.34c0-1.95,0-3.9,0-5.85,0,0-.08.08-.08.08Z"/>
      <path class="cls-1" d="m89.8,132.41v11.83h-5.91c0-3.94,0-7.89,0-11.84,0,0-.08.09-.08.09h6.08l-.09-.08Z"/>
      <path class="cls-1" d="m41.88,144.4h-11.83v-5.91c3.94,0,7.89,0,11.84,0,0,0-.09-.08-.09-.08v6.08l.08-.09Z"/>
      <path class="cls-1" d="m41.67,150.31v6h-11.6v-5.92c3.82,0,7.76,0,11.69,0,0,0-.1-.08-.1-.08Z"/>
      <path class="cls-1" d="m72.01,168.59v-6h11.6v5.92c-3.82,0-7.76,0-11.69,0,0,0,.1.08.1.08Z"/>
      <path class="cls-1" d="m23.69,126.62h5.91v5.78h-5.8l.08.08c-.04-1.99-.07-3.97-.11-5.96,0,0-.08.1-.08.1Z"/>
      <path class="cls-1" d="m95.8,126.4v6.01c-2.08,0-4.05,0-6.01,0,0,0,.09.08.09.08,0-2.03,0-4.06,0-6.08l-.08.08c2.03,0,4.06,0,6.08,0l-.08-.09Z"/>
      <path class="cls-1" d="m23.8,132.4v5.84h-5.77v-5.75c1.96,0,3.91,0,5.85,0,0,0-.08-.08-.08-.08Z"/>
      <path class="cls-1" d="m47.79,138.49h5.99v6l.08-.08c-2.02,0-4.05,0-6.07,0l.08.09v-6.08l-.09.08Z"/>
      <path class="cls-1" d="m47.8,144.4v5.91c-2.09,0-4.1,0-6.12,0,0,0,.09.08.09.08.03-2,.07-3.99.11-5.99,0,0-.08.09-.08.09h6.08l-.08-.09Z"/>
      <path class="cls-1" d="m53.79,144.49h5.84v5.77h-5.75c0-1.96,0-3.91,0-5.85,0,0-.08.08-.08.08Z"/>
      <path class="cls-1" d="m132.4,83.8v5.84h-5.92c0-1.94,0-3.89,0-5.84,0,0-.08.09-.08.09h6.08l-.08-.09Z"/>
      <path class="cls-1" d="m29.89,168.42h-5.84v-5.77h5.75c0,1.96,0,3.91,0,5.85,0,0,.08-.08.08-.08Z"/>
      <path class="cls-1" d="m35.87,168.5v-5.84h5.77v5.75c-1.96,0-3.91,0-5.85,0,0,0,.08.08.08.08Z"/>
      <path class="cls-1" d="m65.79,168.49c2.07.03,4.14.06,6.21.1,0,0-.09-.08-.09-.08-.03,2-.07,3.99-.11,5.99,0,0,.08-.09.08-.09h-6v-6s-.09.08-.09.08Z"/>
      <path class="cls-1" d="m71.88,186.5c-2.03-.03-4.06-.06-6.08-.09l.08.09v-6h6s-.08-.09-.08-.09c.03,2.03.05,4.06.08,6.09Z"/>
      <path class="cls-1" d="m17.79,120.41c2.03,0,4.06,0,6.08,0-.06,2.07-.12,4.13-.18,6.21,0,0,.08-.09.08-.09-1.87,0-3.73,0-5.98,0v-6.12Z"/>
      <path class="cls-1" d="m114.39,120.48h5.84v5.77h-5.75c0-1.96,0-3.91,0-5.85,0,0-.08.08-.08.08Z"/>
      <path class="cls-1" d="m132.48,41.8h-5.96v-5.78h-6v17.69h-12.48v6.19c8.15,0,16.29,0,24.43,0,0,0-.08-.09-.08-.09v12.08l.08-.08h-6.08s.08.09.08.09c0-1.89,0-3.77,0-5.97h-24.47v-18.01h12.21v-11.88h-6.31v5.61h-6.03v-11.7h-5.82v-12.03h5.68v-5.84h12.66v5.82l.09-.08h-6.43v12.18h24.35v11.91l.08-.09Z"/>
      <path class="cls-1" d="m41.79,71.8h6.08v5.97h5.8v5.93h-5.88c0,2.26,0,4.23,0,6.19,0,0,.08-.09.08-.09-2.02.03-4.05.06-6.08.09,0-1.95,0-3.9,0-5.85h-5.75v5.77h5.84v6.14h-6.01c0,2.18,0,4.06,0,5.94-2.03-.03-4.06-.06-6.09-.08,0,0,.08.09.08.09-.03-8.03-.05-16.06-.08-24.09h12v-6Z"/>
      <path class="cls-1" d="m120.4,5.8c4.03,0,8.06,0,12.08,0-.03,4.03-.06,8.06-.09,12.08,0,0,.09-.08.09-.08h-6.08l.09.08v-5.94h-6.09v-6.15Z"/>
      <path class="cls-1" d="m114.4,17.88c4.03,0,8.06,0,12.09,0,0,0-.09-.08-.09-.08v5.84h-11.92v-5.84l-.09.08Z"/>
      <path class="cls-1" d="m83.88,47.88h-6.08v-12.09h6.08v12.09Z"/>
      <path class="cls-1" d="m77.8,29.88v-6.08c1.88,0,3.76,0,5.84,0v6.08h-5.84Z"/>
      <path class="cls-1" d="m77.9,83.6v-5.53h5.74v5.53h-5.74Z"/>
      <path class="cls-1" d="m77.8,65.79v5.84h-5.77v-5.75c1.96,0,3.91,0,5.85,0,0,0-.08-.08-.08-.08Z"/>
      <path class="cls-1" d="m89.8,11.88c0-2.03,0-4.06,0-6.08,2.03,0,4.06,0,6.08,0v6.08h-6.08Z"/>
      <path class="cls-1" d="m83.8,53.88v-6.08h5.84v6.08h-5.84Z"/>
      <path class="cls-1" d="m89.95,41.61v-5.6h5.74v5.6h-5.74Z"/>
      <path class="cls-1" d="m138.49,180.5c-2.03,0-4.06,0-6.08,0,.03-4.03.06-8.06.09-12.08,0,0-.09.08-.09.08h12.08v-6.08l-.08.08h6.08l-.08-.08v5.83h6.08v-5.83l-.08.08c4.03,0,8.06,0,12.08,0l-.09-.08v5.94h-5.91v6.15h-5.94v6h-6.15v-5.84h-11.92v5.84Z"/>
      <path class="cls-1" d="m174.62,174.6h17.6v17.65h-17.6v-17.65Zm11.77,6.04h-5.73v5.57h5.73v-5.57Z"/>
      <path class="cls-1" d="m198.28,204.31v5.9h-17.62v-11.57h5.68v5.75c4.14,0,8.09,0,12.03,0,0,0-.1-.08-.1-.08Z"/>
      <path class="cls-1" d="m210.49,198.41c0,2.03,0,4.06,0,6.08-4.07-.06-8.13-.12-12.21-.18,0,0,.1.08.09.08,0-5.88,0-11.75,0-17.78h5.94v11.8h6.18Z"/>
      <path class="cls-1" d="m168.41,156.5h6.08v6c-2.03-.03-4.06-.05-6.09-.08,0,0,.09.08.09.08v-6.08l-.08.09Z"/>
      <path class="cls-1" d="m210.41,204.41h6.08v6.08h-6.08v-6.08Z"/>
      <path class="cls-1" d="m210.49,210.41v6.08h-6.08v-6.08h6.08Z"/>
      <path class="cls-1" d="m174.41,107.89h5.94v6.6h6.14l-.08-.09v18.09l.08-.08h-12.08l.08.08v-6.18h5.8v-5.93h-5.8v-12.57l-.08.09Z"/>
      <path class="cls-1" d="m174.4,95.81c0,4.03,0,8.06,0,12.09,0,0,.08-.09.08-.09h-12v-6l-.08.08h6.08v-6.08l-.08.08h6.08s-.09-.08-.09-.08Z"/>
      <path class="cls-1" d="m204.49,126.49c-2.03-.03-4.06-.06-6.08-.09l.08.09v-6.15h-6v-5.94l-.08.09h12.08v12Z"/>
      <path class="cls-1" d="m204.41,77.89h11.83v5.91h-11.83l.08.09v-6.08l-.08.09Z"/>
      <path class="cls-1" d="m186.4,89.81v6c-4.08,0-8.04,0-12,0,0,0,.09.08.09.08v-6.08l-.08.08h12.08l-.09-.08Z"/>
      <path class="cls-1" d="m216.29,107.71h-11.63v-5.69h11.63v5.69Z"/>
      <path class="cls-1" d="m186.49,114.49v-6.44h5.92v6.44s.08-.09.08-.09c-2.03,0-4.06,0-6.08,0l.08.09Z"/>
      <path class="cls-1" d="m198.4,89.81v5.84h-5.91v-5.84l-.09.08c2.03,0,4.06,0,6.08,0l-.09-.08Z"/>
      <path class="cls-1" d="m204.41,83.8v6.01c-2.08,0-4.05,0-6.01,0,0,0,.09.08.09.08v-6h6l-.08-.09Z"/>
      <path class="cls-1" d="m192.5,89.81c-2.03,0-4.06,0-6.09,0,0,0,.09.08.09.08v-5.84h5.92v5.84l.09-.08Z"/>
      <path class="cls-1" d="m198.41,71.89c2.03-.03,4.06-.06,6.08-.09-.03,2.03-.05,4.06-.08,6.09,0,0,.08-.09.08-.09h-6v-6s-.08.09-.08.09Z"/>
      <path class="cls-1" d="m204.41,65.8h6.08v6.08h-6.08v-6.08Z"/>
      <path class="cls-1" d="m156.41,83.89h18.08l-.08-.09v6.08l.08-.08h-6.08v6.08l.08-.08h-6.08l.08.08v-6.08h-6.08l.08.08v-6.08l-.08.09Z"/>
      <path class="cls-1" d="m180.49,77.88v-5.93h-5.86v-6.06c3.98,0,7.92,0,11.85,0,0,0-.08-.09-.08-.09v12h-6l.09.08Z"/>
      <path class="cls-1" d="m156.39,59.88c2.03,0,4.06.01,6.09.02l-.08-.08v5.97h5.89v5.84h-11.81c0-3.91,0-7.87,0-11.82,0,0-.08.08-.08.08Z"/>
      <path class="cls-1" d="m162.48,59.89v-5.85h11.77v5.76c-3.96,0-7.91,0-11.85,0,0,0,.08.08.08.08Z"/>
      <path class="cls-1" d="m174.49,83.89v-6.01c2.08,0,4.05,0,6.01,0,0,0-.09-.08-.09-.08v6h-6l.08.09Z"/>
      <path class="cls-1" d="m150.49,83.89v-5.84h5.92c0,1.94,0,3.89,0,5.84,0,0,.08-.09.08-.09-2.03,0-4.06,0-6.08,0l.08.09Z"/>
      <path class="cls-1" d="m192.49,59.8c-.03,2.03-.06,4.06-.09,6.08l.09-.08c-2.03,0-4.06,0-6.08,0,0,0,.08.09.08.09-.03-2.03-.05-4.06-.08-6.09h6.08Z"/>
      <path class="cls-1" d="m216.21,6.33v29.61h-29.72V6.33h29.72Zm-6.14,5.9h-17.61v17.65h17.61V12.23Z"/>
      <path class="cls-1" d="m36,186.42v29.52H6.38v-29.52h29.62Zm-6.12,6.04H12.22v17.55h17.66v-17.55Z"/>
      <path class="cls-1" d="m6.27,35.87V6.36h29.62v29.51H6.27ZM29.9,12.27H12.22v17.57h17.68V12.27Z"/>
      <path class="cls-1" d="m150.49,35.88h-6v6l-6.08-.09.08.09v-18.13h-6v-5.95s-.09.08-.09.08c3.88,0,7.77,0,11.97,0v-5.88h5.94v11.77h5.98v5.93h-5.8v6.19Z"/>
      <path class="cls-1" d="m132.49,180.41v12.09h-6.08v-12.09h6.08Z"/>
      <path class="cls-1" d="m65.88,23.88h-6.08v-5.84h6.08v5.84Z"/>
      <path class="cls-1" d="m138.49,53.8c-.03,2.03-.05,4.06-.08,6.09,0,0,.08-.09.08-.09h-6.08s.08.09.08.09c0-1.89,0-3.77,0-6.09h6Z"/>
      <path class="cls-1" d="m138.4,41.8c.03,2.03.05,4.06.08,6.09h-6c0-2.17,0-4.13,0-6.09,0,0-.08.09-.08.09h6.08l-.08-.09Z"/>
      <path class="cls-1" d="m53.8,192.41h6.08v12.09h-6.08v-12.09Z"/>
      <path class="cls-1" d="m59.8,210.4v5.84h-5.77v-5.75c1.96,0,3.91,0,5.85,0,0,0-.08-.08-.08-.08Z"/>
      <path class="cls-1" d="m210.49,156.49h-11.93v-12.09h-6.15l.08.09v-6.08l-.08.09h11.9v11.85h6.18v6.15Z"/>
      <path class="cls-1" d="m198.41,126.4v6h-6l.08.09v-6h6l-.08-.09Z"/>
      <path class="cls-1" d="m192.41,132.4c0,2.03,0,4.06,0,6.09,0,0,.08-.09.08-.09h-6.08l.08.08v-6.08l-.08.08c2.03,0,4.06,0,6.08,0l-.08-.09Z"/>
      <path class="cls-1" d="m17.88,101.89v-6h-6.09c0-5.88,0-11.77,0-18.09h6.08c0,3.87,0,7.75,0,11.93h5.92c0,4.26,0,8.21,0,12.16,0,0,.08-.09.08-.09-2.03,0-4.06,0-6.08,0l.09.08Z"/>
      <path class="cls-1" d="m192.41,144.4v6c-2.08,0-4.04,0-6,0,0,0,.08.09.08.09v-6.08l-.08.08h6.08l-.08-.09Z"/>
      <path class="cls-1" d="m186.49,156.49h-6v-6.08l-.09.08h6.08s-.08-.09-.08-.09c.03,2.03.05,4.06.08,6.09Z"/>
      <path class="cls-1" d="m180.49,150.41c-4.03,0-8.06,0-12.09,0l.08.09v-6.08l-.08.08h6.08v-6.08l-.08.08h12.08l-.08-.08v6.08l.08-.08h-6.08v6.08l.09-.08Z"/>
      <path class="cls-1" d="m168.41,150.41c0,2.03,0,4.06,0,6.09l.08-.09h-6v-6l-.08.08h6.08l-.08-.09Z"/>
      <path class="cls-1" d="m35.79,65.8c2.03,0,4.06,0,6.08,0,0,2.03,0,4.06,0,6.08h-6.08v-6.08Z"/>
      <path class="cls-1" d="m120.4,162.49c.03-2.03.05-4.06.08-6.09,0,0-.08.09-.08.09h24.09l-.08-.08v6.08l.08-.08h-12.08v6.08s.09-.08.09-.08c-1.88,0-3.76,0-5.94,0v-5.92h-6.15Z"/>
      <path class="cls-1" d="m65.8,186.41c.03,2.03.05,4.06.08,6.09h-6.08c.03-2.03.06-4.06.09-6.08l-.09.08h6.08l-.08-.09Z"/>
      <path class="cls-1" d="m59.88,186.41c-2.03.03-4.06.05-6.09.08.03-4.03.05-8.06.08-12.09,0,0-.08.09-.08.09h6v12l.09-.08Z"/>
      <path class="cls-1" d="m11.79,107.89v-6.08c2.03.03,4.06.05,6.09.08,0,0-.09-.08-.09-.08,0,2.03,0,4.06,0,6.08,0,0,.09-.08.09-.08-2.03.03-4.06.05-6.09.08Z"/>
      <path class="cls-1" d="m192.4,65.88c2.03-.03,4.06-.05,6.09-.08-.03,2.03-.05,4.06-.08,6.09,0,0,.08-.09.08-.09h-6v-6l-.09.08Z"/>
      <path d="m162.49,101.81v6h12v12.57h5.8v5.93h-5.8v6.18h-5.96v-6h-24.13v-6.08h23.84v-5.85h-11.56v-12.75h5.8Z"/>
      <path d="m144.49,156.49h-24.09v-5.94h6v-6.15h11.92v6.1h6.16l-.09-.09c.03,2.02.06,4.05.09,6.07Z"/>
      <path d="m162.49,150.41v6h6v6.08c-4.03,0-8.06,0-12.08,0v-12.08h6.08Z"/>
      <path d="m186.49,138.49h-12.08v-6.08h12.08v6.08Z"/>
      <path d="m138.4,132.49v-6.08h6.08v6.08h-6.08Z"/>
      <path d="m132.4,132.41c2.03,0,4.06,0,6.08,0v5.83h-6.08v-5.83Z"/>
      <path d="m156.6,132.58h5.64v5.69h-5.64v-5.69Z"/>
      <path d="m174.49,138.41v6.08h-6.08v-6.08h6.08Z"/>
      <path d="m144.48,150.5v-5.84h5.77v5.75c-1.96,0-3.91,0-5.85,0,0,0,.09.09.09.09Z"/>
      <path d="m168.49,150.49h-6.08v-6.08h6.08v6.08Z"/>
      <path d="m144.4,162.49v-6.08h6.08v6.08h-6.08Z"/>
      <path d="m156.49,162.41v5.83h-6.08v-5.83h6.08Z"/>
      <path d="m95.88,126.49c-2.03,0-4.06,0-6.08,0v-5.94h-5.77v-18.75h5.86v5.92h5.87v6.77h6.13l-.09-.09v5.93h-5.91v6.14Z"/>
      <path d="m41.8,89.9l6.07-.09v5.94h5.91c0,2.24,0,4.19,0,6.15,0,0,.09-.08.09-.08h-18.09l.09.08v-5.94h6.01v-6.14l-.09.09Z"/>
      <path d="m71.88,120.49h-6.08v-12.68h11.81v6.54h-5.73v6.14Z"/>
      <path d="m65.88,107.89c-4.03-.03-8.06-.06-12.08-.09,0,0,.08.09.08.09v-6.08s-.09.08-.09.08c3.88,0,7.77,0,12.09,0v6Z"/>
      <path d="m89.88,126.41c0,2.03,0,4.06,0,6.08h-6.08v-6.08h6.08Z"/>
      <path d="m101.88,114.5v-6.44h5.77v6.35c-1.96,0-3.91,0-5.85,0,0,0,.09.09.09.09Z"/>
      <path d="m156.4,89.8h6.08v6.08h-6.08v-6.08Z"/>
      <path d="m150.4,83.8c2.03,0,4.06,0,6.08,0v6.08h-6.08v-6.08Z"/>
      <path d="m162.41,95.8h6.08v6.08h-6.08v-6.08Z"/>
      <path d="m144.58,101.68v-5.62h5.68v5.62h-5.68Z"/>
      <path d="m29.79,101.8c2.03.03,4.06.06,6.09.08,0,0-.09-.08-.09-.08v6.08h18.09s-.08-.09-.08-.09c.03,2.23.06,4.46.08,6.69h-24.09v-12.68Z"/>
      <path d="m17.79,107.89c0-2.03,0-4.06,0-6.08,2.03,0,4.06,0,6.08,0v6.08h-6.08Z"/>
      <path d="m47.88,144.49h-6.08v-6.08h6.08v6.08Z"/>
      <path d="m53.8,114.41h5.83v6.08h-5.83v-6.08Z"/>
      <path d="m59.8,186.5v-12h-6v-11.81h5.94v5.73h6.14v6h6v6.08h-6v6h-6.08Z"/>
      <path d="m132.4,59.8h6.08v12.08h-6.08v-12.08Z"/>
      <path d="m126.4,71.8h6.08v12.08h-6.08v-12.08Z"/>
      <path d="m114.48,83.89h-6.68v-6.08h6.68v6.08Z"/>
      <path d="m138.49,41.88h-6.08v-11.91h-24.35v-12.18h6.43v5.84h11.92v-5.84h6.08v5.95h6v18.13Z"/>
      <path d="m41.89,89.81h-5.84v-5.77h5.75c0,1.96,0,3.91,0,5.85,0,0,.09-.09.09-.09Z"/>
      <path d="m132.4,168.49v-6.08h12.08v6.08h-12.08Z"/>
      <path d="m186.39,180.64v5.57h-5.73v-5.57h5.73Z"/>
      <path d="m192.49,132.49c-2.03,0-4.06,0-6.08,0v-18.09c2.03,0,4.06,0,6.08,0v5.94h6v6.15h-6v6Z"/>
      <path d="m168.41,95.89v-6.08h6.08v6.08h-6.08Z"/>
      <path d="m192.49,65.8v6h6v6h6v6.08h-6v6c-2.03,0-4.06,0-6.08,0v-5.84h-5.92v5.84h-12.08v-6.08h6v-6h6v-12c2.03,0,4.06,0,6.08,0Z"/>
      <path d="m210.07,12.23v17.65h-17.61V12.23h17.61Z"/>
      <path d="m29.88,192.47v17.55H12.22v-17.55h17.66Z"/>
      <path d="m29.9,12.27v17.57H12.22V12.27h17.68Z"/>
      <path d="m186.41,144.49v-6.08h6.08v6.08h-6.08Z"/>
      <path d="m180.41,150.49v-6.08h6.08v6.08h-6.08Z"/>
      <path class="cls-1" d="m53.88,107.89h-18.09v-6.08c6.03,0,12.06,0,18.09,0v6.08Z"/>
    </g>
  </g>
</svg>