<?xml version="1.0" encoding="UTF-8"?>
<svg id="Layer_2" data-name="Layer 2" xmlns="http://www.w3.org/2000/svg" viewBox="0 0 215.14 215.12">
  <defs>
    <style>
      .cls-1 {
        fill: #fff;
      }
    </style>
  </defs>
  <g id="Layer_1-2" data-name="Layer 1">
    <g>
      <path d="m140.92,193.04h-7.12v-7.07h-7.87v-7.93l-.09.08h7.8v-7.29h14.86v-22.25h-7.58v-7.74l-.08.08h15.09v-7.28l-.08.08c2.39.01,4.79.02,7.18.03v7.08c7.98,0,15.44,0,22.9,0,0,2.55,0,5.1,0,7.65h14.15v-7.57h-14.23v-7.07c-7.84,0-15.37,0-22.89,0,.06-2.67.12-5.34.18-8.01l-.08.09h29.92v7.81h15.16l-.09-.09v7.15h7.08v7.81h-6.91v14.52c-2.85,0-5.4,0-7.95,0,0-2.35,0-4.7,0-7.05h-14.14v6.97h14.23v7.76h14.78v14.93h-21.89v-14.66h-7.22v14.63h-7.81v14.53h-22.35l.08.09.03-7.18h6.89v-7.11h-6.8c0,2.5,0,4.84,0,7.19-2.47-.06-4.94-.12-7.41-.18l.08.08v-7.04h-7.88v7.04l.08-.09Zm15.15-37.1v21.93h21.77v-21.93h-21.77Z"/>
      <path d="m88.53,96.64h22.8v-7.85h-7.47v-7.22h7.48v-7.25h7.38l-.08-.09v7.38h7.1v14.9h-6.85v15.01h7.04l-.08-.08v7.28h15.09l-.08-.08c0,7.43,0,14.86,0,22.29l.08-.08h-15c0,2.92,0,5.4,0,7.88h-7.35v7.12h-7.14l.09.08v-7.16h-7.68v-7.71h7.53v-7.33h7.16v-7.71h-14.9c0-2.66,0-5.01,0-7.36,2.55,0,5.09,0,7.65,0v-6.95h-7.57v7.04h-7.16v6.98h-7.63v-14.11h7.37v-7.82h-7.67c0-2.55,0-4.89,0-7.23,0,0-.08.1-.08.1Zm37.45,36.79h7.53v-7.37h-7.53v7.37Z"/>
      <path d="m200.23,74.24v7.18h-7.06v7.14h-15.05v14.97h-7.14v-6.92h-7.74v-7.72h-7.25v14.64h-7.37c0,5.28,0,10.24,0,15.2,0,0,.09-.08.09-.08h-7.88l.08.08v-7.28h-15.09l.08.08v-7.94h7.88v-14.95c2.57,0,4.84,0,7.11,0,0,2.55,0,5.09,0,7.65h7.55v-7.57h-7.64v-7.34h30.1v-7.14s-.08.08-.08.08c2.39.01,4.79.02,7.18.03v6.89h7.71v-6.8c-2.7,0-5.24,0-7.79,0,.06-2.67.12-5.34.18-8.01l-.08.09h7.77v-7.08h7.13v14.89h7.38l-.09-.09Z"/>
      <path d="m51.37,51.4H0V0h51.37v51.4ZM7.38,7.21v36.82h36.83V7.21H7.38Z"/>
      <path d="m.04,163.59h51.33v51.5H.04v-51.5Zm7.27,44.18h36.9v-36.77H7.31v36.77Z"/>
      <path d="m215.14.09v51.29h-51.43V.09h51.43Zm-44.05,7.1v36.83h36.84V7.2h-36.84Z"/>
      <path d="m22.02,96.43v14.91h-7.56v7.38h14.85l-.08-.09v7.35h7.8v7.74l.08-.09h-14.96v-7.59h-7.73v7.55h-7.33v22.15H.07v-37h6.83v-7.13H.06v-15.03h6.87v-7.86h7.38l-.08-.09c0,2.56,0,5.11,0,7.88h7.88l-.09-.08Z"/>
      <path d="m88.53,29.43h15.06v7.41h7.81v-14.75h14.33v-7.7h-7v-7.37l-.09.09h14.94v7.12h7.15v22.59h-6.96v-7.39h-7.81v7.5h-7.33v7.37l.09-.08h-7.28v7.28l.08-.08h-7.88l.08.08v-7.28h-7.28l.09.08v-7.1h-7.91c0-2.81,0-5.34,0-7.87,0,0-.08.1-.08.1Z"/>
      <path d="m81.52,96.44v15.1c-2.51,0-4.84,0-7.18,0,0,0,.1.08.1.08v-7.79h-7.87v-37.31h-22.14v-7.02h36.84v6.85h-6.75v14.91h6.93v-6.84h14.81v7.01h-7.71c0,5.28,0,10.24,0,15.21,0,0,.08-.1.08-.09-2.39,0-4.79-.01-7.18-.02,0-2.55,0-5.09,0-7.65h-6.95v7.57h7.04Z"/>
      <path d="m14.3,88.72v-7.18h-7.14v-7.13H.06v-14.98h36.77v37c-4.9,0-9.86,0-14.81,0,0,0,.09.08.09.08-.03-2.63-.06-5.25-.09-7.88,2.35,0,4.7,0,7.05,0v-6.95h-6.97v7.04c-2.63-.03-5.25-.06-7.88-.09l.08.09Zm.16-22.11v7.44h14.65v-7.44h-14.65Z"/>
      <path d="m81.43,193.03h14.84v7.14h-7.45v14.91h-7.23v-6.75h-7.23v6.78h-14.95v-36.8h22.11c0,4.9,0,9.85,0,14.81-4.94,0-9.88,0-14.85,0v6.96h14.77v-7.04Z"/>
      <path d="m133.72,59.31v-14.83h7.13v6.85h7.7v-21.86h7.3v29.72h7.1v7.34h7.97l-.08-.09v7.88l.08-.08h-37.2v-7.8l-.08.08h14.83v-7.28h-14.83l.09.08Z"/>
      <path d="m29.31,118.72v-7.17h7.64v-7.71h14.31v-7.32h-6.83v-7.72h6.86v-7.22h-6.77v-7.1h14.72v37.04l.09-.08h-15v7.29c-5.03-.03-10.06-.06-15.08-.09l.08.09Z"/>
      <path d="m74.31,29.22h-14.84v-7.04h6.76v-7.83h-6.79v-7.13h6.94V.04h7.72v14.02h7.33v-6.84h14.81v7.01h-7.71c0,5.28,0,10.24,0,15.21,0,0,.08-.1.08-.09-2.4-.04-4.79-.08-7.18-.12l.08.09v-7.04h-7.28v7.04l.08-.09Z"/>
      <path d="m103.71,178.03h-7.17v7.68h-7.63v-14.76h7.4v-7.73h-7.58v-7.38l-.09.09c7.63,0,15.25,0,22.88,0,0,0-.09-.08-.09-.08v7.35h7.2v7.74l.08-.08h-15.09v7.28l.08-.09Z"/>
      <path d="m186.05,111.62v-14.9h6.94v6.78h7.23v-6.81h7.83v6.9h7.02v14.89h-14.67v-6.95c-4.95,0-9.69,0-14.44,0,0,0,.1.08.1.08Z"/>
      <path d="m74.1,140.74v22.19h7.16v7.79h-21.75v-14.74h6.84v-15.15c2.75,0,5.3,0,7.85,0,0,0-.1-.08-.1-.08Z"/>
      <path d="m111.47,215.05v-6.93h-7.64v-7.71h7.58v-7.17h14.33v21.8h-14.26Z"/>
      <path d="m208.11,200.23h-7.75v14.87h-22.12v-6.87h7.55v-7.92h7.21v-7.01h15.02v7.02l.09-.09Z"/>
      <path d="m155.84,200.24c0,2.63,0,5.26-.01,7.88l.09-.09h-7.16v7.08h-14.93v-14.7h7.1c0-2.66,0-5.02,0-7.38,0,0-.08.09-.08.09h7.88l-.08-.08v7.28h7.28l-.08-.09Z"/>
      <path d="m59.22,111.52c5.07.03,10.14.06,15.21.1,0,0-.1-.08-.09-.08,0,4.68,0,9.35,0,14.24h-7.74v7.86h-15.18l.08.09c-.03-2.63-.06-5.26-.09-7.88,2.56,0,5.11,0,7.89,0v-14.4l-.09.08Z"/>
      <path d="m118.63,44.31h7.2v15l.09-.08h-7.28v7.28l.08-.09h-15v-7.19l-.09.08h7.88v-7.88l-.08.08h7.28v-7.28l-.09.08Z"/>
      <path d="m88.72,155.84h-7.09v-15.1c-2.69,0-5.11,0-7.53,0,0,0,.1.08.09.08,0-2.27,0-4.55,0-6.98h22.13v6.92h-7.69c0,5.26,0,10.22,0,15.17,0,0,.09-.09.09-.09Z"/>
      <path d="m103.72,59.23h-7.18v7.08h-7.64v-22c2.5,0,5.06,0,7.61,0,0,0-.09-.08-.09-.08v7.28h7.28l-.08-.08v7.88l.09-.08Z"/>
      <path d="m36.9,148.54v7.1h-14.75v-6.85h-7.64v-7.71h14.64v7.54c2.75,0,5.3,0,7.85,0,0,0-.1-.08-.1-.08Z"/>
      <path d="m163.13,118.71v-7.1c7.71,0,15.31,0,22.92,0,0,0-.1-.08-.09-.08,0,2.27,0,4.54,0,7.09h-22.91l.09.09Z"/>
      <path d="m81.43,29.22v22.03h-7.12c0-7.34,0-14.69,0-22.03,0,0-.08.09-.08.09h7.28l-.08-.09Z"/>
      <path d="m51.43,133.63c0,2.43,0,4.86,0,7.29l.09-.08h-7.28v7.88l.08-.09c-2.47-.03-4.93-.06-7.41-.09,0,0,.1.08.09.08.04-5,.07-10,.11-14.99,0,0-.08.09-.08.09h14.49l-.08-.09Z"/>
      <path d="m163.04,118.62c0,2.43,0,4.87,0,7.3,0,0,.08-.09.08-.09h-7.28v7.88l.08-.08h-7.2v-15s-.09.08-.09.08c4.83,0,9.67,0,14.5,0,0,0-.09-.09-.09-.09Z"/>
      <path d="m118.63,178.04v7.64h-14.91c0-2.54,0-5.09,0-7.64,0,0-.08.09-.08.09h15.09l-.09-.08Z"/>
      <path d="m200.32,74.32v-14.83h7.57v14.74c-2.55,0-5.1,0-7.65,0,0,0,.09.09.09.09Z"/>
      <path d="m155.82,208.12h14.83v6.97h-14.74c0-2.35,0-4.7,0-7.05,0,0-.09.09-.09.09Z"/>
      <path d="m155.75,7.29v14.61h-6.83V7.29h6.83Z"/>
      <path d="m66.34,37.29v14.01h-6.83v-14.01h6.83Z"/>
      <path d="m51.42,140.92h7.64v7.71h-7.63l.08.09c0-2.63,0-5.26,0-7.88l-.09.08Z"/>
      <path d="m118.71,74.32c0-2.63,0-5.26,0-7.89,0,0-.08.09-.08.09h7.28l-.08-.08v7.8h-7.2l.08.09Z"/>
      <path d="m125.83,59.31c2.63,0,5.26,0,7.89,0,0,0-.09-.08-.09-.08v7.28l.08-.08h-7.88l.08.08v-7.28l-.09.08Z"/>
      <path d="m208.03,200.32h7.04v7.57h-6.95c0-2.56,0-5.1,0-7.65,0,0-.09.09-.09.09Z"/>
      <path d="m208.12,133.73v-7.63h6.97v7.55c-2.36,0-4.7,0-7.05,0,0,0,.09.09.09.09Z"/>
      <path d="m51.43,148.63v7.04h-7.12c0-2.34,0-4.69,0-7.04,0,0-.08.09-.08.09h7.28l-.08-.09Z"/>
      <path d="m118.73,7.03h-7.04V.06h6.95c0,2.36,0,4.7,0,7.05,0,0,.09-.09.09-.09Z"/>
      <path d="m215.05,88.56h-6.8v-6.94h6.8v6.94Z"/>
      <path d="m170.92,66.52v-7.04h7.12c0,2.34,0,4.69,0,7.04,0,0,.08-.09.08-.09h-7.28l.08.09Z"/>
      <path d="m125.92,178.04c-2.43,0-4.86,0-7.29,0,0,0,.09.08.09.08v-7.28l-.08.08c2.43-.03,4.86-.05,7.29-.08-.03,2.43-.06,4.86-.09,7.28l.09-.08Z"/>
      <path class="cls-1" d="m156.06,155.93h21.77v21.93h-21.77v-21.93Zm7.19,7.2v7.53h7.39v-7.53h-7.39Z"/>
      <path class="cls-1" d="m125.92,148.72v-7.88h15v7.74h7.58v22.25c-4.98,0-9.92,0-14.86,0,0,0,.08.09.08.09v-7.88l-.08.08h7.03v-7.28h-7.03l.08.08v-7.28h-7.88l.09.08Z"/>
      <path class="cls-1" d="m148.72,118.63v15h7.2v7.28h-15.09c0-7.43,0-14.86,0-22.29h7.88Z"/>
      <path class="cls-1" d="m162.94,133.84h22.89v7.07l.08-.08h-22.9c0-2.4,0-4.74,0-7.08,0,0-.08.1-.08.1Z"/>
      <path class="cls-1" d="m185.83,140.91h14.23v7.57h-14.15c0-2.55,0-5.1,0-7.65,0,0-.08.08-.08.08Z"/>
      <path class="cls-1" d="m200.33,163.04h-14.23v-6.97h14.14c0,2.35,0,4.7,0,7.05,0,0,.08-.08.08-.08Z"/>
      <path class="cls-1" d="m125.83,178.12c.03-2.43.06-4.86.09-7.28l-.09.08h7.88s-.08-.09-.08-.09c0,2.28,0,4.57,0,7.29h-7.8Z"/>
      <path class="cls-1" d="m148.72,193.13h-7.88v-7.04h7.88v7.04Z"/>
      <path class="cls-1" d="m155.84,133.72v-7.88h7.28c-.06,2.67-.12,5.33-.18,8.01,0,0,.08-.09.08-.09-2.4,0-4.79-.02-7.19-.03Z"/>
      <path class="cls-1" d="m156.04,193.22v-7.19h6.8v7.11c-2.22,0-4.56,0-6.89,0,0,0,.1.08.1.08Z"/>
      <path class="cls-1" d="m155.92,200.33h-7.28v-7.28c2.47.06,4.93.12,7.41.18,0,0-.1-.08-.09-.08,0,2.4-.02,4.79-.03,7.18Z"/>
      <path class="cls-1" d="m125.83,66.43h7.88v7.8h37.2v7.14h-30.1v7.34l.08-.08h-7.11v14.95h-7.88v7.94h-7.04v-15.01h6.85v-14.9h-7.1v-7.38h7.2v-7.8Z"/>
      <path class="cls-1" d="m125.92,170.84c-2.43.03-4.86.05-7.29.08v-7.74h-7.2v-7.35h7.14v-7.12h7.35s-.09-.08-.09-.08v7.28h7.88l-.08-.08v7.28s.08-.08.08-.08h-7.88v7.88l.09-.08Z"/>
      <path class="cls-1" d="m125.83,111.43h15.09v7.28h-15.09v-7.28Z"/>
      <path class="cls-1" d="m125.98,133.44v-7.37h7.53v7.37h-7.53Z"/>
      <path class="cls-1" d="m103.71,118.73v-7.04h7.57v6.95c-2.56,0-5.11,0-7.65,0,0,0,.08.08.08.08Z"/>
      <path class="cls-1" d="m140.82,88.71h7.64v7.57h-7.55c0-2.56,0-5.11,0-7.65,0,0-.08.08-.08.08Z"/>
      <path class="cls-1" d="m177.94,74.44h7.79v6.8h-7.71c0-2.22,0-4.56,0-6.89,0,0-.08.1-.08.1Z"/>
      <path class="cls-1" d="m170.84,66.43h7.28c-.06,2.67-.12,5.33-.18,8.01,0,0,.08-.09.08-.09-2.4,0-4.79-.02-7.19-.03v-7.88Z"/>
      <path class="cls-1" d="m7.38,7.21h36.83v36.82H7.38V7.21Zm7.22,29.5h22.03V14.71H14.6v22Z"/>
      <path class="cls-1" d="m7.31,207.78v-36.77h36.9v36.77H7.31Zm7.36-7.5h22.02v-21.97H14.67v21.97Z"/>
      <path class="cls-1" d="m171.09,7.2h36.84v36.83h-36.84V7.2Zm7.25,7.43v22.03h21.89V14.63h-21.89Z"/>
      <path class="cls-1" d="m51.51,133.72h-14.49v-7.74h-7.8v-7.35c5.03.03,10.06.06,15.08.09,0,0-.08-.09-.08-.09v7.28h7.28l-.09-.08c.03,2.63.06,5.26.09,7.88Z"/>
      <path class="cls-1" d="m22.02,88.64c.03,2.63.06,5.25.09,7.88h-7.88c0-2.77,0-5.33,0-7.88,2.63.03,5.25.06,7.88.09l-.08-.08Z"/>
      <path class="cls-1" d="m103.63,59.31v-7.88h7.88v7.88h-7.88Z"/>
      <path class="cls-1" d="m118.72,44.23v7.28h-7.28v-7.28h7.28Z"/>
      <path class="cls-1" d="m103.71,51.51h-7.28v-7.28h7.28v7.28Z"/>
      <path class="cls-1" d="m81.52,96.44h-7.04v-7.57h6.95c0,2.56,0,5.11,0,7.65,0,0,.08-.08.08-.08Z"/>
      <path class="cls-1" d="m14.47,66.61h14.65v7.44h-14.65v-7.44Z"/>
      <path class="cls-1" d="m22.1,88.72v-7.04h6.97v6.95c-2.36,0-4.71,0-7.05,0,0,0,.08.08.08.08Z"/>
      <path class="cls-1" d="m81.43,193.03v7.04h-14.77v-6.96c4.97,0,9.91,0,14.85,0,0,0-.08-.08-.08-.08Z"/>
      <path class="cls-1" d="m133.63,66.51v-7.28h14.83v7.28h-14.83Z"/>
      <path class="cls-1" d="m59.31,111.43v14.4c-2.78,0-5.33,0-7.89,0,0,0,.09.08.09.08v-7.28h-7.28s.08.09.08.09c0-2.28,0-4.57,0-7.29h15Z"/>
      <path class="cls-1" d="m81.51,29.31h-7.28v-7.04h7.28v7.04Z"/>
      <path class="cls-1" d="m118.72,170.84v7.28h-15.09v-7.28h15.09Z"/>
      <path class="cls-1" d="m125.92,59.23v7.28h-7.28v-7.28h7.28Z"/>
      <path class="cls-1" d="m51.51,148.72h-7.28v-7.88h7.28c0,2.63,0,5.26,0,7.88Z"/>
      <path d="m163.26,163.14h7.39v7.53h-7.39v-7.53Z"/>
      <path d="m125.83,170.92v-7.88h7.88v7.88h-7.88Z"/>
      <path d="m133.72,155.92h-7.88v-7.28h7.88v7.28Z"/>
      <path d="m133.63,163.12v-7.28h7.03v7.28h-7.03Z"/>
      <path d="m14.6,36.71V14.71h22.03v22H14.6Z"/>
      <path d="m14.67,200.27v-21.97h22.02v21.97H14.67Z"/>
      <path d="m178.34,14.63h21.89v22.03h-21.89V14.63Z"/>
      <path d="m44.22,118.63h7.28v7.28h-7.28v-7.28Z"/>
    </g>
  </g>
</svg>