<?xml version="1.0" encoding="UTF-8"?>
<svg id="Layer_2" data-name="Layer 2" xmlns="http://www.w3.org/2000/svg" viewBox="0 0 222.34 222.29">
  <defs>
    <style>
      .cls-1 {
        fill: #fff;
      }
    </style>
  </defs>
  <g id="Layer_1-2" data-name="Layer 1">
    <g>
      <path d="m150.51,180.39h-11.92v6h-6.16l.08.09v-6.08h-12.09l.08.08v-6.18h5.8v-5.66h-11.88v11.85l.08-.08h-6.79v-5.79c-2.21,0-4.1,0-5.99,0,.04-2.07.07-4.14.1-6.21h6.18v-6.04h18.27v-6.02h-18.48v-11.72h-6.02v11.98h-5.76v5.92h5.89c0,2.2,0,4.08,0,5.97-1.94,0-3.89,0-5.87,0v6.04h5.76v6.02h-5.76v6h11.87c0,2.19,0,4.07,0,5.95h-11.83v6.04h5.81v11.72h12.53v-5.85h6.14v5.84h11.94v-5.84l-.08.09h17.85v5.86h-11.68v11.9h-6.04v-5.59h-6.04v5.63h-5.93v-5.67h-6.04v5.6h-6.64v-5.64h-11.93v5.68h-11.97v-5.72h5.69v-6.04h-11.62v-5.93h5.63v-6.04h5.99v-11.85h-5.75v5.59h-5.93v-5.89h-6.19l.09.09c0-2.02,0-4.05,0-6.07l-.09.08h17.83v-6.08h-17.83l.09.08c-.03-2.02-.06-4.05-.1-6.07,3.94,0,7.89,0,11.85,0v-5.76h-11.77v5.85h-5.93v-11.97h-6.06c0-4.24,0-8.18,0-12.12,0,0-.09.08-.09.08,2.03-.03,4.06-.05,6.09-.08v6.16h6.03v5.72h11.74v-5.96h-5.77v-17.92l-.08.08h6.08l-.08-.08v11.83h12.11v-5.81h6.01v-5.94h5.96l-.08-.08v6.08h6.68l-.08-.08v11.81h11.88v-5.84h-5.8v-5.97l-.08.08h6v-12.09h17.86v-6.06h-5.86v-5.94h12.16v5.82h17.73v-5.82h-11.65v-12.6h5.84c0,1.96,0,3.92,0,6.09h12l-.08-.08v12.79h5.88v5.93h-5.8v5.98h-6.19v-5.89h-17.92v11.89c-2.2,0-4.09,0-5.97,0,0-1.95,0-3.9,0-5.85h-5.75v5.77h5.84v6.15h-5.85v17.84h5.84c0,1.96,0,3.92,0,6.18h-11.88v5.93h17.8v5.98l.08-.09Z"/>
      <path d="m144.43,5.87h11.91v11.75h12.19v-5.83l-.09.09h5.84v17.79h-5.68v-5.65h-6.04v17.58h-6.03v-5.61h-5.93v5.65h-6.03v-5.57h-6.04v11.61h-5.93v-11.64h-5.98v17.65h5.79v6.19l.09-.09h-5.93v6h-6.14l.08.09v-6.14h-6.09c0-2.18,0-4.06,0-5.93,1.95,0,3.9,0,5.85,0v-5.75h-5.77v5.84c-4.23-.03-8.45-.06-12.68-.09l.08.08v-6.08h-6.08l.08.08v-11.86h-6.15v5.77h-5.93l.09.08v-24.21c4.06,0,8.08,0,12.09,0,0,1.96,0,3.92,0,6.19h-5.94v6.08h17.85c0,2.17,0,4.05,0,5.93-1.95,0-3.9,0-5.85,0v5.75h5.77v-5.84h6.74v5.83h5.85v-11.81c1.92,0,3.85,0,6.01,0v-6.01h5.84v-5.74h-5.76c0,2.08,0,3.95,0,5.83-2.03,0-4.06,0-6.1,0v-6.12h-24.5V5.77c8.31,0,16.44,0,24.57,0,0,1.95,0,3.9,0,5.85h5.75v-5.77h-5.84V.03h11.95v5.84h6.14l-.08-.09v5.99c2.31,0,4.19,0,6.08,0-.04,2-.07,3.99-.11,5.99h-5.69v11.91h5.6c0-4.1,0-8.04,0-11.99,2.02,0,4.03,0,5.94,0v-5.83h-5.83c.03-2.03.06-4.05.09-6.08l-.08.09Zm11.92,18.1h-5.7v5.65h5.7v-5.65Z"/>
      <path d="m48.03,132.57c-.04-4.06-.08-8.12-.12-12.18l-.09.08h6.14v5.73h5.98v-5.63c2.15-.11,4.1-.21,6.05-.31,0,2.02,0,4.03,0,5.94h5.83v-5.83h11.84v-5.75h-11.75c0,2.08,0,3.96,0,5.83-2-.04-3.99-.07-5.99-.11v-5.97h-18.1l.08.08v-6.78h35.8v-5.93h-5.98v-6.04h-5.93v-17.85c-2.21,0-4.09,0-5.98,0,0-3.96,0-7.92,0-12-2.23,0-4.11,0-6,0,.03-2.03.05-4.06.08-6.09l-.08.09h24.09v-12.09l-.09.08c4.03,0,8.06,0,12.08,0l-.08-.08v6.08h6.08l-.08-.08v6.18h5.88v5.93h-5.79v5.97c-2.03,0-4.06,0-6.09,0v-5.86h-12.06v5.86c-2.18,0-4.05,0-5.93,0,0-1.95,0-3.9,0-5.85h-5.75v5.77h5.84v11.99c4.23,0,8.11,0,11.99,0,0,1.95,0,3.9,0,6.14h-5.82v5.86c4.09,0,7.95,0,11.82,0-.04,1.99-.08,3.99-.12,5.98h-5.69v5.91h5.6c0-2.09,0-4.04,0-5.99,2.07.03,4.14.06,6.2.09v6.01h6.01v6.77h-5.9v5.9h12.54v5.93h5.96c-.03,4.03-.06,8.06-.09,12.08l.08-.08c-2.03,0-4.06,0-6.08,0l.08.08v-6.08h-6.68l.08.08v-5.86h-18.15v5.78h-5.94l.08.08v-5.84h-6.08v5.84l.08-.08h-12c0,2.31,0,4.2,0,6.08h-6.09v6s.09-.08.09-.08c-1.87,0-3.75,0-5.91,0v-11.9c-2.2,0-4.13,0-6.07,0,0,0,.1.08.1.08Z"/>
      <path d="m174.43,162.39v5.96h29.87v6h-5.6v5.9h17.62v-5.65h-5.63v-5.98h11.64v17.7h-11.9v12.17l.09-.08h-6.18v-11.8h-5.94v17.78h-12.03v-5.75h-5.68v11.57h17.62c0-2.13,0-4.02,0-5.9,4.07.06,8.14.12,12.21.18l-.08-.08v6.08l.08-.08h-6.08v6.08l.08-.09h-11.97v5.88h-5.93v-5.89h-12.18l.09.09v-11.84h-5.94v5.65h-6.03v5.98h-5.95v-11.72h5.82v-6.03h5.82v-24.13h-5.82l.08.09v-6.15h5.91v-5.94c2.03.03,4.06.05,6.09.08l-.09-.08Zm17.9,12.24h-17.63v17.66h17.63v-17.66Z"/>
      <path d="m210.44,65.87c2.03,0,4.05,0,6.08,0l-.09-.09v5.97h5.89v17.92h-5.65v6.04h5.58v18.63h-5.61v5.93h5.64v11.98h-5.66v-5.88c-4.27,0-8.23,0-12.19,0,0,0,.08.09.08.09v-12c-4.32,0-8.2,0-12.08,0v-6.44h-5.92v6.44h-6.14v-6.69h-5.94l.08.08c-.03-4.03-.06-8.06-.09-12.08,3.96,0,7.92,0,12,0v-6c2.03,0,4.06,0,6.09,0v5.84h5.91v-5.84c1.96,0,3.92,0,6.01,0v-6.01h11.83v-5.91c-4.08,0-7.96,0-11.83,0,.03-2.03.05-4.06.08-6.09l-.08.08h6.08v-6.08l-.08.09Zm5.92,36.11h-11.7v5.65h11.7v-5.65Z"/>
      <path d="m17.91,83.87v-5.93h11.86v-12.07h6.13l-.08-.09v6h12.09v6.14h6.08v11.86h5.93c-.03,2.03-.07,4.05-.1,6.08l.09-.09h-12.16v6.12h-11.7v6.01h5.79v6.56l.08-.09c-6.03.03-12.05.06-18.08.1,0-2.15,0-4.3,0-6.45h-11.75v6.37h11.83v5.96h5.78v11.94h-5.72v-5.81h-6.02v-5.91H5.94v-12.59c-2.14-.09-3.98-.18-5.94-.26v-5.76h17.91v-6.16l-.09.08c2.03-.03,4.05-.06,6.08-.09,0,1.95,0,3.9,0,5.85h5.75v-5.77h-5.84v-12.08h-5.99l.09.08Zm23.92,0v-5.85h-5.75v5.77h5.84c0,2.03-.01,4.06-.02,6.09h-5.84v5.74h5.76c0-2.08,0-3.95,0-5.83h5.85v-5.92c-2.08,0-3.95,0-5.83,0Z"/>
      <path d="m156.42,59.86v-11.82h23.94v11.84h6.15l-.08-.09c.03,2.03.05,4.06.08,6.09h-11.85v6.06h5.86v5.93c-1.96,0-3.92,0-6.01,0v6.01c-6.03,0-12.05,0-18.08,0,0-1.95,0-3.9,0-5.85h-5.75v5.77h5.84c0,2.03,0,4.05-.01,6.08h-12.09v5.99l.09-.09h-6.16v-5.81h-5.76c-.09,1.96-.17,3.8-.25,5.67h-11.98v-11.76c-4.38,0-8.46,0-12.53,0,0-2.03,0-4.06,0-6.09h12.68v-6l-.08.09h5.97v5.85h5.93v5.91h6.03v-5.66h6.03v-6.03h5.93v-12.17c2.26,0,4.22,0,6.18,0,0,3.96,0,7.91,0,11.82h11.81v-5.84h-5.89c0-2.2,0-4.09,0-5.97,3.94,0,7.89,0,11.85,0v-5.76h-11.77v5.85c-2.03,0-4.06-.01-6.09-.02Z"/>
      <path d="m180.63.48h41.31v41.26h-41.31V.48Zm5.9,35.37h29.63V6.28h-29.63v29.58Z"/>
      <path d="m.57.46h41.19v41.25H.57V.46Zm35.37,35.53V6.31H6.43v29.68h29.52Z"/>
      <path d="m41.74,221.84H.6v-41.31h41.15v41.31Zm-5.85-5.84v-29.62H6.37v29.62h29.52Z"/>
      <path d="m59.91,204.4v11.98h-5.96v5.84h-5.9v-29.69h5.59v-6.04h-5.71v-11.94h-11.9v-6.04h11.72v-5.89h5.93v5.74h6.15v24.03c2.19,0,4.07,0,5.95,0,0,0-.1-.08-.1-.08.09,1.88.18,3.77.28,5.97h5.67v6.22c-3.92,0-7.87,0-11.82,0,0-1.95,0-3.9,0-5.85h-5.75v5.77h5.84Z"/>
      <path d="m5.91,150.47v-5.96H.03v-17.93h5.71v11.91h6.16l-.09-.09v5.83h17.94v-5.85c2.25,0,4.2,0,6.15,0,0,1.95,0,3.9,0,5.85h5.75v-5.77h-5.84v-5.9c4.19,0,8.2,0,12.22,0,0,0-.1-.08-.09-.08,0,5.85,0,11.7,0,17.85h-12.13v6.13l.09-.09c-2.02,0-4.05,0-6.07,0l.09.09v-6.09H5.82l.09.09Z"/>
      <path d="m17.9,59.78h-5.97v17.88H.1v-5.74h5.59v-6.03H.07v-6.03h5.65v-5.92H.04v-5.96h29.58v11.8h-5.81l.08.09v-5.84h-6.08v5.84l.08-.09Z"/>
      <path d="m71.9,23.77h-6.07s.08.09.08.09v-5.84h-6.08v5.84l.08-.09h-11.84v-5.93h5.66v-5.91h-5.68v-6.02h5.68V.02h6.12v11.67h5.91v-5.69h11.95v5.69h-5.9v12.17l.09-.09Z"/>
      <path d="m216.51,156.38c-2.02,0-4.05,0-6.07,0l.08.09v-6.15h-6.18v-11.85c-4.17,0-8.04,0-11.9,0,0-2.03,0-4.06,0-6.09h6v-6c2.03.03,4.06.06,6.08.09,0,0-.08-.09-.08-.09v5.95h5.99v12.08h11.91v5.89h-5.91v6.16l.09-.09Z"/>
      <path d="m47.91,59.87v-5.96h-11.87v-5.94h29.68v5.73h-5.9c0,2.26,0,4.21,0,6.17,0,0,.08-.09.08-.09h-12.09l.09.08Z"/>
      <path d="m132.43,186.39v5.98h5.88v5.93h-5.88c0,2.26,0,4.23,0,6.19,0,0,.08-.09.08-.09h-6.15v-11.91c-4.18,0-8.06,0-11.93,0,.03-4.03.05-8.06.08-12.09l-.08.08c2.03,0,4.06,0,6.08,0l-.08-.08v6.08h12.09l-.08-.09Z"/>
      <path d="m210.44,156.39v5.84h-17.85v-5.84h-6.15l.08.09c-.03-2.03-.06-4.06-.09-6.08h6.01v-6.01h6.15v12.09h11.93l-.08-.09Z"/>
      <path d="m29.83,156.38v17.81h-5.85v-5.81h-6.15l.09.09v-12c4.09,0,8.04,0,12,0,0,0-.09-.09-.09-.09Z"/>
      <path d="m83.91,47.78h-5.95v5.86h-5.94v-17.68h5.73v5.9c2.25,0,4.21,0,6.16,0,0,0-.09-.08-.09-.08,0,2.03,0,4.06,0,6.08l.09-.08Z"/>
      <path d="m5.82,150.38v23.82H.06v-23.74c1.95,0,3.9,0,5.85,0,0,0-.09-.09-.09-.09Z"/>
      <path d="m186.43,156.39v6.01c-4.09,0-8.05,0-12.01,0,0,0,.09.08.09.08v-6h-6.08c0-2.03,0-4.06,0-6.09,4.03,0,8.06,0,12.09,0v6.08h6l-.08-.09Z"/>
      <path d="m216.43,210.4v5.97h5.89v5.84h-17.8c0-1.9,0-3.86,0-5.82,0,0-.08.09-.08.09h6.08v-6.08l-.08.08h6.08l-.09-.08Z"/>
      <path d="m162.43,174.39v17.85h-5.85v-5.66h-6.07c0-2.27,0-4.23,0-6.19,0,0-.08.09-.08.09h6.15v-6h5.94l-.08-.09Z"/>
      <path d="m168.53,11.79h-5.85V0h11.65v5.7h-5.89c0,2.26,0,4.22,0,6.18,0,0,.09-.09.09-.09Z"/>
      <path d="m65.82,23.78v17.83h-5.92c0-5.94,0-11.88,0-17.83,0,0-.08.09-.08.09h6.08l-.08-.09Z"/>
      <path d="m210.43,198.48h11.83v11.92c-1.93,0-3.88,0-5.83,0,0,0,.09.08.09.08v-6.08h-6.08l.08.08c0-2.03,0-4.06,0-6.08l-.09.08Z"/>
      <path d="m48.05,29.97h5.67v11.63h-5.67v-11.63Z"/>
      <path d="m186.52,59.87v-11.83h5.91v11.83l.09-.08h-6.08l.08.09Z"/>
      <path d="m17.91,95.79h-5.84v-11.92c1.94,0,3.89,0,5.84,0,0,0-.09-.08-.09-.08,0,4.03,0,8.06,0,12.09l.09-.08Z"/>
      <path d="m216.51,65.88c0-4.03.01-8.06.02-12.09l-.09.09h5.83v11.92c-1.95,0-3.9,0-5.85,0,0,0,.09.09.09.09Z"/>
      <path d="m35.9,65.87v-6.01c4.09,0,8.05,0,12.01,0,0,0-.09-.08-.09-.08.03,2.03.06,4.06.09,6.08-4.03-.03-8.06-.05-12.09-.08,0,0,.08.09.08.09Z"/>
      <path d="m138.64,59.97v-5.99h5.6v5.91c-1.82,0-3.75,0-5.69,0,0,0,.1.08.1.08Z"/>
      <path d="m23.82,59.78v5.84h-5.92c0-1.94,0-3.89,0-5.84,0,0-.08.09-.08.09h6.08l-.08-.09Z"/>
      <path d="m132.42,59.86c2.07.03,4.14.07,6.22.1,0,0-.1-.08-.09-.08,0,1.86,0,3.72,0,5.76h-6.04c0-1.98,0-3.92,0-5.87,0,0-.09.09-.09.09Z"/>
      <path d="m47.91,120.39c-2.03,0-4.06,0-6.08-.01l.09.09c0-2.03,0-4.05,0-6.08,0,0-.08.09-.08.09h6.08l-.08-.08c0,2.03,0,4.06,0,6.08l.09-.08Z"/>
      <path d="m41.83,120.38v5.84h-5.77v-5.75c1.96,0,3.91,0,5.85,0,0,0-.09-.09-.09-.09Z"/>
      <path d="m11.89,138.49v-5.84h5.77v5.75c-1.96,0-3.91,0-5.85,0,0,0,.09.09.09.09Z"/>
      <path d="m138.51,5.87V.03h5.92c0,1.94,0,3.89,0,5.84,0,0,.08-.09.08-.09h-6.08s.08.09.08.09Z"/>
      <path d="m84.05,5.88h5.57v5.73h-5.57v-5.73Z"/>
      <path d="m35.81,156.47h5.84v5.77h-5.75c0-1.96,0-3.91,0-5.85,0,0-.09.09-.09.09Z"/>
      <path d="m216.42,156.47h5.84v5.77h-5.75c0-1.96,0-3.91,0-5.85,0,0-.09.09-.09.09Z"/>
      <path d="m71.81,23.86h5.84v5.77h-5.75c0-1.96,0-3.91,0-5.85,0,0-.09.09-.09.09Z"/>
      <path d="m71.91,180.4h-5.84v-5.92c1.94,0,3.89,0,5.84,0,0,0-.09-.08-.09-.08v6.08l.09-.08Z"/>
      <path d="m168.53,41.65v-5.59h5.74v5.59h-5.74Z"/>
      <path d="m198.43,65.87c2.03,0,4.05,0,6.08,0l-.08-.09v6.08l.08-.08c-2.03.03-4.06.06-6.08.09.03-2.03.05-4.06.08-6.09l-.08.09Z"/>
      <path d="m71.83,186.38v5.92c-2.09,0-4.11,0-6.13,0,0,0,.1.08.09.08,0-1.87,0-3.73,0-5.91,2.23,0,4.18,0,6.13,0,0,0-.09-.09-.09-.09Z"/>
      <path d="m17.82,168.38v5.84h-5.77v-5.75c1.96,0,3.91,0,5.85,0,0,0-.09-.09-.09-.09Z"/>
      <path d="m120.43,65.78c0,2.03,0,4.06,0,6.09,0,0,.08-.09.08-.09h-5.83v-5.92h5.83l-.08-.09Z"/>
      <path d="m150.41,192.61v5.59h-5.74v-5.59h5.74Z"/>
      <path d="m198.64,47.96h5.62v5.68h-5.62v-5.68Z"/>
      <path d="m216.53,53.79h-5.84v-5.77h5.75c0,1.96,0,3.91,0,5.85,0,0,.09-.09.09-.09Z"/>
      <path d="m204.52,65.87v-5.84h5.92c0,1.94,0,3.89,0,5.84,0,0,.08-.09.08-.09h-6.08l.08.09Z"/>
      <path d="m71.81,210.63v5.57h-5.73v-5.57h5.73Z"/>
      <path d="m192.43,59.87h6.01c0,2.09,0,4.05,0,6.01,0,0,.08-.09.08-.09-2.03.03-4.06.05-6.09.08.03-2.03.06-4.06.09-6.08l-.09.08Z"/>
      <path d="m174.44,216.39v5.84h-5.77v-5.75c1.96,0,3.91,0,5.85,0,0,0-.09-.09-.09-.09Z"/>
      <path class="cls-1" d="m107.83,83.87h12.53v11.76h11.98c.08-1.87.16-3.7.25-5.67h5.76v5.81c2.25,0,4.21,0,6.16,0,0,1.95,0,3.9,0,5.85h5.75v-5.77h-5.84v-5.99c4.18,0,8.14,0,12.09,0,0,0-.08-.09-.08-.09v6.08h6.08l-.08-.08v6.08l.08-.09h-5.84v12.6h11.65v5.82h-17.73v-5.82h-12.16l.08.09v-6.77h-6.12v-5.7h-6.02v5.78h-11.95l.08.08v-12.08h-12.68l.08.08c0-2.03,0-4.06,0-6.08l-.08.08h6.08v-6.08l-.08.09Z"/>
      <path class="cls-1" d="m144.44,138.48h5.97v-11.89h17.92v5.89c2.27,0,4.23,0,6.19,0,0,0-.08-.09-.08-.09v6.08l.08-.08h-6.08v6.08l.08-.08h-6.08v6.08l.08-.08h-6.08v12.08l.08-.08h-6.08l.08.08v-5.83h-6.08v5.83l.08-.09h-5.84v-17.84h5.85v-6.15l-.08.08Zm17.82-.17v-5.63h-5.62v5.63h5.62Z"/>
      <path class="cls-1" d="m162.51,174.48h-5.94v6h-6.15v-5.98h-17.8v-5.93h11.88c0-2.26,0-4.22,0-6.18,0,0-.08.09-.08.09h6.08l-.08-.08v5.83h6.08v-5.83l-.08.08c4.03,0,8.06,0,12.08,0l-.09-.08v5.94h-5.91v6.15Z"/>
      <path class="cls-1" d="m101.92,168.47v-5.97h-5.89v-5.92h5.76v-11.98h6.02v11.72h18.48v6.02h-18.27v6.04h-6.18l.08.08Z"/>
      <path class="cls-1" d="m83.82,132.39h5.94v-5.78h18.15v5.86h-5.96v5.94h-6.01v5.81h-12.11v-11.83Z"/>
      <path class="cls-1" d="m65.91,138.47v-6.08h12v17.92h5.77v5.96h-11.74v-5.72h-6.03c0-2.25,0-4.21,0-6.16,0,0-.09.08-.09.08h5.83v-6.08h-5.83l.09.08Z"/>
      <path class="cls-1" d="m174.43,107.79h5.94v6.69h6.14l-.08-.09v18.09l.08-.08h-12.08s.08.09.08.09v-5.98h5.8v-5.93h-5.88v-12.79Z"/>
      <path class="cls-1" d="m114.43,192.48h11.93v11.91h6.15v5.84h-11.94v-5.84h-6.14l.08.09v-12.08l-.08.09Z"/>
      <path class="cls-1" d="m114.51,180.4c-.03,4.03-.05,8.06-.08,12.09,0,0,.08-.09.08-.09h-6.68l.09.08v-5.95h-11.87v-6h5.76c0-2.14,0-4.08,0-6.02,0,0-.08.1-.08.1h5.99v5.79h6.79Z"/>
      <path class="cls-1" d="m114.43,204.39v5.85h-12.53v-11.72h-5.81v-6.04h11.83s-.09-.08-.09-.08v12.08h6.68l-.08-.09Z"/>
      <path class="cls-1" d="m138.43,114.39v5.94h5.86v6.06c-5.99,0-11.93,0-17.86,0,0,0,.08.09.08.09v-6.13h6.08v-5.87h5.92l-.08-.09Z"/>
      <path class="cls-1" d="m174.43,95.79c.03,4.03.06,8.06.09,12.08h-12c0-2.17,0-4.13,0-6.09l-.08.09h6.08v-6.08l-.08.08h6.08l-.09-.08Z"/>
      <path class="cls-1" d="m114.43,138.39c2.03,0,4.06,0,6.08,0v5.97h5.8v5.84h-11.88v-11.81Z"/>
      <path class="cls-1" d="m120.51,180.48c-2.03,0-4.06,0-6.08,0v-11.85h11.88v5.66h-5.8v6.18Z"/>
      <path class="cls-1" d="m71.82,180.48v-6.08h17.83v6.08h-17.83Z"/>
      <path class="cls-1" d="m120.43,138.48c.03-4.03.06-8.06.09-12.08l-.09.08c2.03,0,4.06,0,6.08,0,0,0-.08-.09-.08-.09,0,3.88,0,7.77,0,12.09h-6Z"/>
      <path class="cls-1" d="m71.9,168.49v-5.85h11.77v5.76c-3.96,0-7.91,0-11.85,0,0,0,.08.08.08.08Z"/>
      <path class="cls-1" d="m132.51,186.48h-12.09v-6.08h12.09v6.08Z"/>
      <path class="cls-1" d="m107.83,132.39h6.68v6.08h-6.68v-6.08Z"/>
      <path class="cls-1" d="m77.82,132.47v-5.84h6.08v5.84h-6.08Z"/>
      <path class="cls-1" d="m59.82,144.48v-6h6.09s-.09-.08-.09-.08v6.08s.09-.08.09-.08c-2.03.03-4.06.05-6.09.08Z"/>
      <path class="cls-1" d="m144.52,138.4h-5.84v-5.77h5.75c0,1.96,0,3.91,0,5.85,0,0,.08-.08.08-.08Z"/>
      <path class="cls-1" d="m101.83,168.38c-.03,2.07-.07,4.14-.1,6.21,0,0,.08-.09.08-.09-1.86,0-3.72,0-5.76,0v-6.04c1.98,0,3.93,0,5.87,0,0,0-.08-.08-.08-.08Z"/>
      <path class="cls-1" d="m120.42,29.78v11.81h-5.85v-5.83h-6.74l.08.08v-5.93h-17.85v-6.08h5.94c0-2.27,0-4.23,0-6.19,0,0-.08.1-.08.09,8.06,0,16.11,0,24.5,0,0,2.21,0,4.16,0,6.12,0,0,.09-.08.09-.08h-5.83v6.08h5.83l-.09-.08Z"/>
      <path class="cls-1" d="m120.51,65.87h-5.83v5.92h5.83v6h-12.68l.08.09v-6.08h-6.08l.09.08v-5.97h5.79v-5.93h-5.88v-6.18c4.23.03,8.45.06,12.68.09l-.08-.08v5.93h6.09v6.14Z"/>
      <path class="cls-1" d="m83.82,47.87c0-2.03,0-4.06,0-6.08h5.93v-5.77h6.15v11.86c-4.03,0-8.06,0-12.08,0Z"/>
      <path class="cls-1" d="m144.3,17.68v11.99h-5.6v-11.91c1.82,0,3.75,0,5.69,0,0,0-.1-.08-.1-.08Z"/>
      <path class="cls-1" d="m156.35,23.97v5.65h-5.7v-5.65h5.7Z"/>
      <path class="cls-1" d="m120.42,5.86h5.84v5.77h-5.75c0-1.96,0-3.91,0-5.85,0,0-.08.08-.08.08Z"/>
      <path class="cls-1" d="m138.43,5.78h6.08c-.03,2.03-.06,4.05-.09,6.08l.08-.08h-6.08v-5.99Z"/>
      <path class="cls-1" d="m144.42,11.86h5.83v5.83c-1.9,0-3.92,0-5.94,0,0,0,.09.08.09.08.03-2,.07-4,.1-5.99,0,0-.08.08-.08.08Z"/>
      <path class="cls-1" d="m126.52,23.86v-5.82h5.76v5.74h-5.84l.08.08Z"/>
      <path class="cls-1" d="m126.43,23.77v6.01c-2.16,0-4.09,0-6.01,0,0,0,.09.08.09.08v-6.08s-.09.08-.09.08c2.03,0,4.06,0,6.1,0,0,0-.08-.08-.08-.08Z"/>
      <path class="cls-1" d="m107.83,35.77v5.84h-5.77v-5.75c1.96,0,3.91,0,5.85,0,0,0-.08-.08-.08-.08Z"/>
      <path class="cls-1" d="m101.91,53.87h-6.08v-6.08h6.08v6.08Z"/>
      <path class="cls-1" d="m114.5,53.88v-5.84h5.77v5.75c-1.96,0-3.91,0-5.85,0,0,0,.08.08.08.08Z"/>
      <path class="cls-1" d="m47.9,114.47h-6.08v-6.56h-5.79v-6.01h11.7v-6.12c4.26,0,8.21,0,12.16,0,0,1.95,0,3.9,0,5.85h5.75v-5.77h-5.84c.03-2.03.07-4.05.1-6.08l-.09.08h6.08v-12.08l-.08.09h5.98v17.85h5.93v6.04h5.98v5.93h-35.8v6.78Z"/>
      <path class="cls-1" d="m59.91,89.79h-5.93v-11.86h-6.08c0-2.25,0-4.2,0-6.14,0,0-.09.08-.09.08h12.08v-6.08l-.08.09h6c0,4.08,0,8.04,0,12,0,0,.08-.09.08-.09h-6.08v12.08l.09-.08Z"/>
      <path class="cls-1" d="m77.83,71.88h5.93v-5.86h12.06v5.86l.09-.08h-6.08v12.08l.08-.09h-11.99v-11.99l-.08.08Z"/>
      <path class="cls-1" d="m120.51,126.39h-5.96v-5.93h-12.54v-5.9h5.9v-6.77l-.09.08c2.23,0,4.46,0,6.68,0l-.08-.08v6.76h6v11.93l.09-.08Z"/>
      <path class="cls-1" d="m95.91,95.78h-11.82v-5.86h5.82c0-2.24,0-4.19,0-6.14,0,0-.08.09-.08.09,4.03,0,8.06,0,12.08,0l-.08-.08c0,2.03,0,4.06,0,6.08l.08-.08h-6.08v6.08l.08-.09Z"/>
      <path class="cls-1" d="m47.82,120.47c0-2.03,0-4.06,0-6.08h18.1c0,2.09,0,4.03,0,5.97,0,0,.08-.1.08-.1-1.95.1-3.91.2-6.06.31v5.63h-5.98v-5.73h-6.14Z"/>
      <path class="cls-1" d="m47.91,65.87c-.03-2.03-.06-4.06-.09-6.08h12.09c-.03,2.03-.05,4.06-.08,6.09,0,0,.08-.09.08-.09h-12.08l.09.08Z"/>
      <path class="cls-1" d="m71.91,120.47v-5.83h11.75v5.75h-11.84l.08.08Z"/>
      <path class="cls-1" d="m95.7,101.69v6h-5.6v-5.91c1.82,0,3.76,0,5.69,0,0,0-.1-.08-.1-.08Z"/>
      <path class="cls-1" d="m101.91,101.78c-2.07-.03-4.13-.06-6.2-.09,0,0,.09.08.09.08.03-2,.07-3.99.11-5.99,0,0-.08.09-.08.09h6.08l-.08-.08c0,2.03,0,4.06,0,6.08l.08-.09Z"/>
      <path class="cls-1" d="m107.91,107.79h-6.01v-6.01s-.08.09-.08.09h6v6l.09-.08Z"/>
      <path class="cls-1" d="m71.83,120.38v5.83h-5.83c0-1.9,0-3.92,0-5.94,0,0-.08.09-.08.09,2,.03,4,.07,5.99.1,0,0-.08-.08-.08-.08Z"/>
      <path class="cls-1" d="m95.82,71.87c2.03,0,4.06,0,6.09,0,0,0-.09-.08-.09-.08,0,2.03,0,4.06,0,6.08l.08-.08h-6v-6l-.09.08Z"/>
      <path class="cls-1" d="m77.92,71.79h-5.84v-5.77h5.75c0,1.96,0,3.91,0,5.85,0,0,.08-.08.08-.08Z"/>
      <path class="cls-1" d="m192.33,174.63v17.66h-17.63v-17.66h17.63Zm-6.07,11.68v-5.63h-5.62v5.63h5.62Z"/>
      <path class="cls-1" d="m198.31,204.3v5.9h-17.62v-11.57h5.68v5.75c4.14,0,8.09,0,12.03,0,0,0-.1-.08-.1-.08Z"/>
      <path class="cls-1" d="m210.52,198.4c0,2.03,0,4.06,0,6.08-4.07-.06-8.13-.12-12.21-.18,0,0,.1.08.09.08,0-5.88,0-11.75,0-17.78h5.94v11.8h6.18Z"/>
      <path class="cls-1" d="m168.43,156.48h6.08v6c-2.03-.03-4.06-.05-6.09-.08,0,0,.09.08.09.08v-6.08l-.08.09Z"/>
      <path class="cls-1" d="m210.43,204.4h6.08v6.08h-6.08v-6.08Z"/>
      <path class="cls-1" d="m210.52,210.4v6.08h-6.08v-6.08h6.08Z"/>
      <path class="cls-1" d="m204.52,126.47c-2.03-.03-4.06-.06-6.08-.09l.08.09v-6.15h-6v-5.94l-.08.09h12.08v12Z"/>
      <path class="cls-1" d="m216.35,101.98v5.65h-11.7v-5.65h11.7Z"/>
      <path class="cls-1" d="m186.43,89.79v6c-4.08,0-8.04,0-12,0,0,0,.09.08.09.08v-6.08l-.08.08h12.08l-.09-.08Z"/>
      <path class="cls-1" d="m204.44,77.87h11.83v5.91h-11.83l.08.09v-6.08l-.08.09Z"/>
      <path class="cls-1" d="m186.51,114.48v-6.44h5.92v6.44s.08-.09.08-.09c-2.03,0-4.06,0-6.08,0l.08.09Z"/>
      <path class="cls-1" d="m198.43,89.79v5.84h-5.91v-5.84l-.09.08c2.03,0,4.06,0,6.08,0l-.09-.08Z"/>
      <path class="cls-1" d="m204.44,83.78v6.01c-2.08,0-4.05,0-6.01,0,0,0,.09.08.09.08v-6h6l-.08-.09Z"/>
      <path class="cls-1" d="m192.52,89.79c-2.03,0-4.06,0-6.09,0,0,0,.09.08.09.08v-5.84h5.92v5.84l.09-.08Z"/>
      <path class="cls-1" d="m198.44,71.87c2.03-.03,4.06-.06,6.08-.09-.03,2.03-.05,4.06-.08,6.09,0,0,.08-.09.08-.09h-6v-6l-.08.09Z"/>
      <path class="cls-1" d="m204.43,65.79h6.08v6.08h-6.08v-6.08Z"/>
      <path class="cls-1" d="m23.91,114.4h-11.83v-6.37h11.75c0,2.15,0,4.3,0,6.45,0,0,.08-.08.08-.08Z"/>
      <path class="cls-1" d="m35.82,65.79c4.03.03,8.06.05,12.09.08,0,0-.09-.08-.09-.08v6.08s.09-.08.09-.08c-3.88,0-7.77,0-12.09,0v-6Z"/>
      <path class="cls-1" d="m17.82,95.87c0-4.03,0-8.06,0-12.09h5.99v12.08l.08-.08c-2.03.03-4.05.06-6.08.09Z"/>
      <path class="cls-1" d="m23.81,95.87h5.84v5.77h-5.75c0-1.96,0-3.91,0-5.85,0,0-.08.08-.08.08Z"/>
      <path class="cls-1" d="m41.81,89.8v5.82h-5.76v-5.74h5.84l-.08-.08Z"/>
      <path class="cls-1" d="m41.9,89.88c0-2.03.01-4.06.02-6.09l-.08.08h5.83v5.92c-1.94,0-3.9,0-5.85,0,0,0,.08.08.08.08Z"/>
      <path class="cls-1" d="m41.91,83.79h-5.84v-5.77h5.75c0,1.96,0,3.91,0,5.85,0,0,.08-.08.08-.08Z"/>
      <path class="cls-1" d="m156.44,83.88c6.03,0,12.05,0,18.08,0l-.08-.09v6.08l.08-.08h-6.08v6.08l.08-.08h-6.08l.08.08v-6.08h-6.08s.08.09.08.09c0-2.03,0-4.05.01-6.08l-.08.08Z"/>
      <path class="cls-1" d="m180.52,77.87v-5.93h-5.86v-6.06c3.98,0,7.92,0,11.85,0,0,0-.08-.09-.08-.09v12h-6l.09.08Z"/>
      <path class="cls-1" d="m156.42,59.86c2.03,0,4.06.01,6.09.02,0,0-.08-.08-.08-.08v5.97h5.89v5.84h-11.81c0-3.91,0-7.87,0-11.82,0,0-.08.08-.08.08Z"/>
      <path class="cls-1" d="m162.51,59.88v-5.85h11.77v5.76c-3.96,0-7.91,0-11.85,0,0,0,.08.08.08.08Z"/>
      <path class="cls-1" d="m192.52,59.78c-.03,2.03-.06,4.06-.09,6.08l.09-.08c-2.03,0-4.06,0-6.08,0,0,0,.08.09.08.09-.03-2.03-.05-4.06-.08-6.09h6.08Z"/>
      <path class="cls-1" d="m174.51,83.87v-6.01c2.08,0,4.05,0,6.01,0,0,0-.09-.08-.09-.08v6h-6l.08.09Z"/>
      <path class="cls-1" d="m156.52,83.79h-5.84v-5.77h5.75c0,1.96,0,3.91,0,5.85,0,0,.08-.08.08-.08Z"/>
      <path class="cls-1" d="m107.83,77.78c0,2.03,0,4.06,0,6.09,0,0,.08-.09.08-.09h-6.08l.08.08c0-2.03,0-4.06,0-6.08l-.08.08c2.03,0,4.06,0,6.08,0l-.08-.09Z"/>
      <path class="cls-1" d="m186.53,35.85V6.28h29.63v29.58h-29.63Zm23.6-23.57h-17.69v17.51h17.69V12.28Z"/>
      <path class="cls-1" d="m35.94,35.99H6.43V6.31h29.52v29.68Zm-6.09-6.11V12.2H12.3v17.67h17.56Z"/>
      <path class="cls-1" d="m35.89,216H6.37v-29.62h29.52v29.62Zm-5.98-23.55H12.24v17.55h17.67v-17.55Z"/>
      <path class="cls-1" d="m59.91,204.4h-5.84v-5.77h5.75c0,1.96,0,3.91,0,5.85,0,0,.08-.08.08-.08Z"/>
      <path class="cls-1" d="m35.81,138.47h5.84v5.77h-5.75c0-1.96,0-3.91,0-5.85,0,0-.08.08-.08.08Z"/>
      <path class="cls-1" d="m23.9,59.87h-6.08v-5.84h6.08v5.84Z"/>
      <path class="cls-1" d="m65.91,23.87h-6.08v-5.84h6.08v5.84Z"/>
      <path class="cls-1" d="m210.52,156.48h-11.93v-12.09h-6.15l.08.09v-6.08l-.08.09h11.9v11.85h6.18v6.15Z"/>
      <path class="cls-1" d="m198.44,126.39v6h-6l.08.09v-6h6l-.08-.09Z"/>
      <path class="cls-1" d="m192.43,132.39c0,2.03,0,4.06,0,6.09,0,0,.08-.09.08-.09h-6.08l.08.08v-6.08l-.08.08c2.03,0,4.06,0,6.08,0l-.08-.09Z"/>
      <path class="cls-1" d="m186.52,156.48h-6v-6.08l-.09.08h6.08l-.09-.08.09,6.08Z"/>
      <path class="cls-1" d="m192.43,144.39v6.01h-6.01s.09.08.09.08v-6.08l-.08.08h6.08l-.08-.09Z"/>
      <path class="cls-1" d="m180.52,150.39c-4.03,0-8.06,0-12.09,0l.08.09v-6.08l-.08.08h6.08v-6.08l-.08.08h12.08l-.08-.08v6.08l.08-.08h-6.08v6.08l.09-.08Z"/>
      <path class="cls-1" d="m168.43,150.39c0,2.03,0,4.06,0,6.09l.08-.09h-6v-6l-.08.08h6.08l-.08-.09Z"/>
      <path class="cls-1" d="m192.43,65.87c2.03-.03,4.06-.05,6.09-.08-.03,2.03-.05,4.06-.08,6.09,0,0,.08-.09.08-.09h-6v-6l-.09.08Z"/>
      <path d="m120.43,126.47v-11.93h-6v-6.76h11.95v-5.78h6.02v5.7h6.12v6.77h-5.92v5.87h-6.08v6.13c-2.03,0-4.06,0-6.08,0Z"/>
      <path d="m107.83,107.87v-6h-6c0-2.03,0-4.06,0-6.08h12.68v12.08c-2.23,0-4.46,0-6.68,0Z"/>
      <path d="m144.42,95.87h5.84v5.77h-5.75c0-1.96,0-3.91,0-5.85,0,0-.09.09-.09.09Z"/>
      <path d="m162.43,95.79h6.08v6.08h-6.08v-6.08Z"/>
      <path d="m156.43,89.79h6.08v6.08h-6.08v-6.08Z"/>
      <path d="m101.91,95.87h-6.08v-6.08h6.08c0,2.03,0,4.06,0,6.08Z"/>
      <path d="m101.83,83.79h6.08v6.08h-6.08c0-2.03,0-4.06,0-6.08Z"/>
      <path d="m162.51,150.39v6h6v6.08c-4.03,0-8.06,0-12.08,0v-12.08h6.08Z"/>
      <path d="m186.52,138.48h-12.08v-6.08h12.08v6.08Z"/>
      <path d="m162.26,138.31h-5.62v-5.63h5.62v5.63Z"/>
      <path d="m174.52,138.39v6.08h-6.08v-6.08h6.08Z"/>
      <path d="m168.51,150.48h-6.08v-6.08h6.08v6.08Z"/>
      <path d="m150.51,162.48h-6.08v-5.83h6.08v5.83Z"/>
      <path d="m156.51,162.39v5.83h-6.08v-5.83h6.08Z"/>
      <path d="m65.82,144.48v-6.08h5.83v6.08h-5.83Z"/>
      <path d="m192.52,132.47c-2.03,0-4.06,0-6.08,0v-18.09c2.03,0,4.06,0,6.08,0v5.94h6v6.15h-6v6Z"/>
      <path d="m114.51,204.48h-6.68v-12.08h6.68v12.08Z"/>
      <path d="m168.43,95.87v-6.08h6.08v6.08h-6.08Z"/>
      <path d="m120.51,23.78v6.08h-5.83v-6.08h5.83Z"/>
      <path d="m107.91,77.87c-2.03,0-4.06,0-6.08,0,0-2.03,0-4.06,0-6.08h6.08v6.08Z"/>
      <path d="m59.82,89.87v-12.08h6.08v12.08h-6.08Z"/>
      <path d="m59.81,95.87h5.84v5.77h-5.75c0-1.96,0-3.91,0-5.85,0,0-.09.09-.09.09Z"/>
      <path d="m47.82,71.87v-6.08h12.08v6.08h-12.08Z"/>
      <path d="m101.91,77.79c0,2.03,0,4.06,0,6.08-4.03,0-8.06,0-12.08,0v-12.08h6.08v6h6Z"/>
      <path d="m186.26,186.31h-5.62v-5.63h5.62v5.63Z"/>
      <path d="m192.52,65.79v6h6v6h6v6.08h-6v6c-2.03,0-4.06,0-6.08,0v-5.84h-5.92v5.84h-12.08v-6.08h6v-6h6v-12c2.03,0,4.06,0,6.08,0Z"/>
      <path d="m210.13,12.28v17.51h-17.69V12.28h17.69Z"/>
      <path d="m29.86,29.88H12.3V12.2h17.56v17.67Z"/>
      <path d="m29.91,192.45v17.55H12.24v-17.55h17.67Z"/>
      <path d="m186.43,144.48v-6.08h6.08v6.08h-6.08Z"/>
      <path d="m180.43,150.48v-6.08h6.08v6.08h-6.08Z"/>
    </g>
  </g>
</svg>